<svg width="72" height="72" viewBox="0 0 72 72" fill="none" xmlns="http://www.w3.org/2000/svg">
<rect width="72" height="72" rx="10" fill="url(#paint0_linear_48_160)"/>
<path d="M36 16.9875C25.5 16.9875 16.9875 25.5 16.9875 36C16.9875 46.5 25.5 55.0125 36 55.0125C46.5 55.0125 55.0125 46.5 55.0125 36C55.0125 25.5 46.5 16.9875 36 16.9875ZM36 53.2125C26.5125 53.2125 18.7875 45.4875 18.7875 36C18.7875 26.5125 26.5125 18.7875 36 18.7875C45.4875 18.7875 53.2125 26.5125 53.2125 36C53.2125 45.4875 45.4875 53.2125 36 53.2125Z" fill="white"/>
<path d="M36.9001 35.6251V25.1251C36.9001 24.6376 36.4876 24.2251 36.0001 24.2251C35.5126 24.2251 35.1001 24.6376 35.1001 25.1251V36.0001C35.1001 36.2251 35.2126 36.4876 35.3626 36.6376L42.6001 43.8751C42.7876 44.0626 43.0126 44.1376 43.2376 44.1376C43.4626 44.1376 43.6876 44.0626 43.8751 43.8751C44.2126 43.5376 44.2126 42.9376 43.8751 42.6001L36.9001 35.6251Z" fill="white"/>
<defs>
<linearGradient id="paint0_linear_48_160" x1="36" y1="0" x2="36" y2="72" gradientUnits="userSpaceOnUse">
<stop stop-color="#2F3A94"/>
<stop offset="1" stop-color="#8E98E9"/>
</linearGradient>
</defs>
</svg>
