<svg width="72" height="72" viewBox="0 0 72 72" fill="none" xmlns="http://www.w3.org/2000/svg">
<rect width="72" height="72" rx="10" fill="url(#paint0_linear_48_155)"/>
<path fill-rule="evenodd" clip-rule="evenodd" d="M57.7261 13.5001C57.6868 13.502 57.6476 13.507 57.6091 13.5151C53.4691 13.5346 49.6546 14.3911 46.1926 15.8386C46.1723 15.8452 46.1523 15.8527 46.1326 15.8611C46.1026 15.8761 46.0666 15.8836 46.0336 15.8971C45.9693 15.9246 45.9093 15.9609 45.8551 16.0051C45.5716 16.1401 45.2596 16.3006 44.9266 16.4821C44.9067 16.4902 44.8872 16.4992 44.8681 16.5091C44.8321 16.5271 44.7991 16.5496 44.7631 16.5676C44.6176 16.6471 44.5351 16.6891 44.3971 16.7671C39.5146 19.3366 35.3971 22.9561 32.0776 27.0181C31.4484 26.7451 30.7847 26.5599 30.1051 26.4676C27.5761 26.1571 24.8236 27.0736 22.2661 28.8631C18.8551 31.2511 15.6976 35.2126 13.5616 40.2136C13.4968 40.3663 13.4844 40.5361 13.5264 40.6966C13.5684 40.8571 13.6625 40.9991 13.7938 41.1004C13.9251 41.2018 14.0864 41.2567 14.2523 41.2566C14.4181 41.2566 14.5793 41.2015 14.7106 41.1001C17.8051 38.7001 20.2126 37.4056 21.8956 37.1011C22.7386 36.9511 23.3806 37.0276 23.9176 37.2826C24.3811 37.5031 24.7876 37.8796 25.1596 38.4406C25.0636 38.6656 24.9451 38.8906 24.8521 39.1156C24.7959 39.2527 24.7816 39.4033 24.811 39.5485C24.8403 39.6938 24.9121 39.827 25.0171 39.9316L26.6281 41.5426C25.2286 43.6516 23.7886 46.0516 22.2301 48.7426C22.2286 48.7426 22.2241 48.7411 22.2211 48.7561C22.2153 48.7664 22.2098 48.7769 22.2046 48.7876C22.2015 48.7945 22.1985 48.8015 22.1956 48.8086C22.1935 48.8135 22.1915 48.8185 22.1896 48.8236C22.1808 48.8427 22.1728 48.8622 22.1656 48.8821C22.1635 48.887 22.1615 48.892 22.1596 48.8971C22.1539 48.9154 22.1489 48.9339 22.1446 48.9526C22.1384 48.9768 22.1334 49.0013 22.1296 49.0261C22.1277 49.0405 22.1262 49.055 22.1251 49.0696C22.1239 49.0795 22.1229 49.0895 22.1221 49.0996C22.122 49.1051 22.122 49.1106 22.1221 49.1161C22.1218 49.1411 22.1228 49.1661 22.1251 49.1911C22.1263 49.2111 22.1283 49.2311 22.1311 49.2511C22.132 49.2561 22.133 49.2611 22.1341 49.2661C22.1388 49.2908 22.1449 49.3154 22.1521 49.3396C22.1586 49.3619 22.1661 49.3839 22.1746 49.4056C22.1818 49.4249 22.1898 49.4439 22.1986 49.4626C22.2082 49.483 22.2187 49.503 22.2301 49.5226C22.2311 49.5226 22.2321 49.5226 22.2331 49.5226C22.236 49.5276 22.239 49.5326 22.2421 49.5376C22.2534 49.554 22.2654 49.57 22.2781 49.5856C22.2805 49.5906 22.283 49.5956 22.2856 49.6006C22.299 49.6161 22.313 49.6311 22.3276 49.6456C22.3397 49.658 22.3522 49.67 22.3651 49.6816C22.37 49.6876 22.375 49.6936 22.3801 49.6996C22.384 49.7046 22.388 49.7096 22.3921 49.7146C22.4071 49.7266 22.4226 49.7382 22.4386 49.7491C22.4425 49.7541 22.4465 49.7591 22.4506 49.7641C22.4676 49.7763 22.4851 49.7878 22.5031 49.7986C22.525 49.8117 22.5475 49.8237 22.5706 49.8346C22.582 49.8398 22.5935 49.8448 22.6051 49.8496C22.616 49.8548 22.627 49.8598 22.6381 49.8646C22.6431 49.8646 22.6481 49.8646 22.6531 49.8646C22.6724 49.8698 22.6919 49.8743 22.7116 49.8781C22.7289 49.8837 22.7464 49.8887 22.7641 49.8931C22.7756 49.8933 22.7871 49.8933 22.7986 49.8931C22.8191 49.8939 22.8396 49.8939 22.8601 49.8931C22.8641 49.8931 22.8681 49.8931 22.8721 49.8931C22.9225 49.8931 22.9727 49.8881 23.0221 49.8781C23.0459 49.8732 23.0694 49.8672 23.0926 49.8601C23.117 49.8528 23.141 49.8443 23.1646 49.8346C23.1929 49.8223 23.2205 49.8082 23.2471 49.7926C23.2651 49.7776 23.2771 49.7746 23.2936 49.7626C25.9696 48.2101 28.3621 46.7731 30.4636 45.3781L32.0191 46.9336C32.1237 47.0389 32.2573 47.1108 32.4028 47.1402C32.5483 47.1695 32.6993 47.1551 32.8366 47.0986C33.0556 47.0086 33.2776 46.8901 33.4981 46.7956C34.7041 47.5861 35.1331 48.5086 34.8661 50.0806C34.5766 51.7801 33.3016 54.1996 30.9031 57.2926C30.8016 57.4238 30.7466 57.585 30.7465 57.7509C30.7464 57.9168 30.8014 58.078 30.9027 58.2093C31.004 58.3407 31.1461 58.4347 31.3065 58.4767C31.467 58.5187 31.6369 58.5064 31.7896 58.4416C36.7906 56.3056 40.7521 53.1466 43.1401 49.7371C45.4186 46.4821 46.2496 42.9181 44.9701 39.8941C49.0096 36.6286 52.6201 32.5921 55.1926 27.8086C55.2976 27.6256 55.3606 27.5056 55.4731 27.3076C55.7101 26.8966 55.9156 26.5111 56.0866 26.1526C56.1117 26.1146 56.1333 26.0744 56.1511 26.0326C56.1511 26.0311 56.1511 26.0266 56.1541 26.0251C56.1661 25.9951 56.1916 25.9576 56.2036 25.9306C56.2272 25.8743 56.2438 25.8153 56.2531 25.7551C57.7495 22.1046 58.513 18.1953 58.5001 14.2501C58.5001 14.1513 58.4806 14.0535 58.4427 13.9623C58.4048 13.8712 58.3493 13.7883 58.2794 13.7187C58.2094 13.649 58.1264 13.5938 58.035 13.5563C57.9437 13.5188 57.8458 13.4997 57.7471 13.5001C57.7461 13.5001 57.7451 13.5001 57.7441 13.5001C57.7381 13.5 57.7321 13.5 57.7261 13.5001ZM56.9176 15.0856C56.8347 18.2056 56.2392 21.2908 55.1551 24.2176L47.8306 16.8961C50.7383 15.7929 53.8092 15.1811 56.9176 15.0856ZM46.2016 17.5231L54.5386 25.8781C54.4726 26.0056 54.3931 26.1496 54.3196 26.2876C54.3186 26.2886 54.3176 26.2896 54.3166 26.2906C54.2908 26.326 54.2683 26.3637 54.2491 26.4031C54.1201 26.6551 53.9761 26.8981 53.8426 27.1471C53.6986 27.3976 53.5336 27.6766 53.4346 27.8731C53.4201 27.9022 53.4076 27.9323 53.3971 27.9631C48.5941 36.2851 40.3831 42.2341 32.6971 45.4921L31.7176 44.5111C32.9746 43.6291 34.1476 42.7561 35.1181 41.8801C37.9366 39.3436 39.5341 36.6451 39.1786 33.5686C39.1731 33.5134 39.1615 33.4591 39.1441 33.4066L39.1291 33.3721C39.072 33.2069 38.959 33.0668 38.8096 32.9761L38.7511 32.9416C38.6593 32.8853 38.5565 32.8495 38.4496 32.8366V32.8216C35.3716 32.4661 32.6701 34.0651 30.1321 36.8821C29.2546 37.8556 28.3786 39.0286 27.4951 40.2886L26.4586 39.2521C29.7136 31.5796 35.6491 23.4976 43.9636 18.7066C43.9965 18.6948 44.0286 18.6808 44.0596 18.6646C44.6146 18.3841 45.5581 17.8546 46.2016 17.5231ZM44.3056 23.9911C43.3546 23.9911 42.4006 24.3511 41.6806 25.0711C40.988 25.7685 40.5996 26.7116 40.6002 27.6944C40.6007 28.6773 40.9902 29.62 41.6836 30.3166C42.38 31.0089 43.3221 31.3974 44.3041 31.3974C45.2861 31.3974 46.2282 31.0089 46.9246 30.3166C47.6175 29.62 48.0067 28.6777 48.0072 27.6952C48.0078 26.7127 47.6197 25.7699 46.9276 25.0726C46.5832 24.7288 46.1742 24.4564 45.7243 24.2711C45.2743 24.0858 44.7922 23.9896 44.3056 23.9911ZM44.3056 25.4821C44.8696 25.4821 45.4336 25.6981 45.8671 26.1331C46.0732 26.3376 46.2368 26.5809 46.3484 26.8491C46.4599 27.1172 46.5172 27.4048 46.5169 27.6952C46.5166 27.9856 46.4588 28.273 46.3467 28.541C46.2347 28.8089 46.0706 29.0519 45.8641 29.2561C45.66 29.4623 45.4171 29.6261 45.1493 29.7378C44.8815 29.8496 44.5942 29.9071 44.3041 29.9071C44.0139 29.9071 43.7267 29.8496 43.4589 29.7378C43.1911 29.6261 42.9482 29.4623 42.7441 29.2561C42.5375 29.0519 42.3735 28.8089 42.2614 28.541C42.1494 28.273 42.0916 27.9856 42.0913 27.6952C42.091 27.4048 42.1483 27.1172 42.2598 26.8491C42.3714 26.5809 42.5349 26.3376 42.7411 26.1331C43.1761 25.6981 43.7416 25.4821 44.3056 25.4821ZM28.5766 27.9616C29.3956 27.9691 30.1636 28.1911 30.9226 28.4296C30.6781 28.7641 30.4396 29.1166 30.1996 29.4616L30.1471 29.5396C29.5621 30.3811 28.9876 31.2496 28.4356 32.1541C27.9706 32.9056 27.5461 33.6601 27.1306 34.4206L26.9116 34.8256C26.511 35.5758 26.1304 36.3366 25.7701 37.1071C25.3861 36.6826 25.0621 36.1621 24.5626 35.9266C23.7016 35.5186 22.7026 35.4316 21.6301 35.6251C20.1721 35.8876 18.4411 36.8161 16.5466 38.0446C18.4441 34.6816 20.6806 31.8016 23.1241 30.0916C24.6871 28.9966 26.2531 28.3006 27.7381 28.0321C28.0231 27.9796 28.3036 27.9571 28.5766 27.9616ZM37.5496 34.4536C37.5301 36.6271 36.4846 38.6176 34.1146 40.7521C31.9846 42.6676 28.7806 44.7046 25.0996 46.9021C27.2941 43.2181 29.3296 40.0111 31.2451 37.8841C33.3826 35.5126 35.3746 34.4716 37.5496 34.4536ZM43.5736 41.0656C44.3086 43.3951 43.8511 46.1056 41.9116 48.8761C40.1986 51.3241 37.3111 53.5636 33.9406 55.4611C35.1706 53.5531 36.0946 51.8056 36.3451 50.3311C36.6361 48.6301 35.9521 47.2606 34.8256 46.1896C35.6229 45.8182 36.4102 45.4255 37.1866 45.0121L37.3006 44.9506C37.9966 44.5771 38.6926 44.2156 39.3841 43.8016C40.8259 42.9608 42.2241 42.0477 43.5736 41.0656ZM23.7331 44.7106L17.8831 50.5636L18.5926 51.2761L21.6946 48.1726C22.3648 47.0128 23.0433 45.8588 23.7331 44.7106ZM27.2341 48.3166C26.1361 48.9796 24.9766 49.6576 23.7721 50.3581L20.0131 54.1171L20.7241 54.8266L27.2341 48.3166ZM21.5101 49.7791L17.1706 54.1171L17.8831 54.8266L22.2211 50.4871C22.2031 50.4871 22.1836 50.4721 22.1656 50.4646C22.16 50.4596 22.1545 50.4546 22.1491 50.4496L22.0786 50.4046L22.0876 50.4196C22.0257 50.3814 21.967 50.3383 21.9121 50.2906C21.906 50.2852 21.9 50.2797 21.8941 50.2741C21.8817 50.2635 21.8697 50.2524 21.8581 50.2411C21.8551 50.2411 21.8521 50.2411 21.8491 50.2411C21.8481 50.2411 21.8471 50.2411 21.8461 50.2411C21.8435 50.2361 21.841 50.2311 21.8386 50.2261C21.8281 50.2111 21.8161 50.2111 21.8056 50.1961C21.8015 50.1911 21.7975 50.1861 21.7936 50.1811C21.7816 50.1661 21.7681 50.1601 21.7561 50.1451C21.7337 50.1208 21.7122 50.0958 21.6916 50.0701C21.6895 50.0651 21.6875 50.0601 21.6856 50.0551C21.6586 50.0206 21.6391 49.9846 21.6151 49.9486C21.5797 49.9041 21.5495 49.8558 21.5251 49.8046C21.5206 49.7896 21.5146 49.7866 21.5101 49.7791ZM17.1706 51.2761L16.4596 51.9841L17.1706 52.6966L17.8801 51.9841L17.1706 51.2761ZM16.4596 54.8266L15.7501 55.5376L16.4596 56.2471L17.1706 55.5376L16.4596 54.8266ZM19.3006 54.8266L18.5926 55.5376L19.3006 56.2471L20.0131 55.5376L19.3006 54.8266Z" fill="white"/>
<defs>
<linearGradient id="paint0_linear_48_155" x1="36" y1="0" x2="36" y2="72" gradientUnits="userSpaceOnUse">
<stop stop-color="#2F3A94"/>
<stop offset="1" stop-color="#8E98E9"/>
</linearGradient>
</defs>
</svg>
