<svg width="719" height="754" viewBox="0 0 719 754" fill="none" xmlns="http://www.w3.org/2000/svg">
<g filter="url(#filter0_f_48_86)">
<path d="M130.292 152.093L131.668 154.636C104.332 177.475 94.3274 176.08 64.621 171.957L59.8392 171.288C56.4492 170.834 53.2505 170.353 50.2306 169.908C17.1332 165.072 4.74078 163.262 -9.87465 201.089C-26.7128 244.557 -41.5841 325.589 -44.3764 371.102C-46.5191 405.445 -31.548 427.62 -15.6973 451.106C-4.22507 468.077 7.63246 485.645 12.3706 508.225C22.7842 557.848 -15.7575 626.937 -49.7769 687.933C-65.219 715.59 -79.7996 741.736 -87.6133 762.506L-90.0489 761.402C-82.1216 740.33 -67.503 714.127 -51.9722 686.294C-18.2885 625.91 19.9113 557.465 9.75854 509.19C5.15699 487.252 -6.53368 469.913 -17.8391 453.168C-33.2852 430.315 -49.2579 406.643 -47.0626 371.113C-44.2396 325.315 -29.262 243.753 -12.3165 200.016C3.20836 159.911 17.101 161.925 50.69 166.827L60.2731 168.202L65.055 168.872C94.0717 172.856 103.821 174.199 130.292 152.093Z" fill="url(#paint0_linear_48_86)"/>
<path d="M140.881 151.371L142.226 153.94C114.588 176.427 104.975 175.597 73.2373 172.458L65.9219 171.701C32.0896 168.141 20.7847 167.003 6.29954 203.918C-11.8057 249.592 -29.9873 329.376 -32.5835 374.442C-34.659 409.641 -19.1321 431.96 -2.71894 455.688C9.33561 473.068 21.7691 491.075 26.6127 514.454C36.8464 563.781 -1.55901 630.34 -35.4154 689.07C-51.7103 717.268 -67.0228 743.882 -75.0189 765.296L-77.4545 764.191C-69.3578 742.409 -53.9119 715.66 -37.592 687.338C-4.06449 629.318 33.9667 563.3 24.0387 515.361C19.3062 492.62 7.03319 474.872 -4.83523 457.756C-20.8376 434.629 -37.3728 410.715 -35.2635 374.422C-32.6053 328.915 -14.3043 248.669 3.8827 202.72C19.342 163.735 32.1915 164.989 66.5472 168.589L73.5816 169.289C105.498 172.334 114.07 173.182 140.881 151.371Z" fill="url(#paint1_linear_48_86)"/>
<path d="M148.158 145.969L149.624 148.465C124.532 170.978 115.857 171.695 86.6493 170.911L85.8063 170.741C48.4879 169.72 40.6836 169.544 25.6807 206.257C5.19412 256.244 -19.7131 331.278 -22.5954 378.165C-24.8506 414.655 -8.05587 438.071 9.83582 462.905C22.8825 481.035 36.3655 499.771 41.5636 524.03C52.0517 573.149 12.9567 636.526 -21.5046 692.448C-38.6055 720.159 -54.7302 746.319 -63.0448 767.863L-65.4741 766.727C-57.0396 744.851 -40.8071 718.551 -23.6238 690.694C10.5019 635.385 49.2163 572.58 38.8942 525.015C33.8707 501.342 20.5614 482.932 7.7071 465.035C-9.68408 440.884 -27.5893 415.853 -25.3265 378.134C-22.4333 330.796 2.65066 255.28 23.2191 205.018C38.9729 166.286 48.0601 166.558 85.9656 167.568L86.8085 167.737C115.959 168.543 123.741 167.905 148.158 145.969Z" fill="url(#paint2_linear_48_86)"/>
<path d="M152.569 137.11L154.707 138.77C140.485 163.66 121.025 167.003 102.235 170.319C82.9724 173.604 64.8833 176.737 51.1814 200.89C42.7499 215.741 36.5385 235.15 30.5543 253.957C26.4741 267.449 21.7695 280.709 16.4636 293.671C14.5295 298.139 12.4932 302.586 10.407 307.283C-0.557102 331.565 -11.8751 356.683 -12.8525 382.712C-14.2667 420.44 4.07226 445.429 23.4701 471.893C39.7236 494.035 56.5163 516.932 60.1272 547.769C65.7233 595.841 30.052 646.144 -4.43925 694.808C-23.6864 721.959 -41.8932 747.635 -51.3231 771.027L-53.74 769.829C-44.089 745.866 -25.8312 720.2 -6.38701 692.862C27.717 644.672 62.9317 595.053 57.5203 548.443C54.0028 518.596 37.4723 495.849 21.4373 474.075C2.68069 448.387 -16.9476 421.747 -15.4808 382.832C-14.481 356.03 -2.98591 330.559 8.09802 305.945C10.1593 301.373 12.208 296.863 14.1421 292.395C19.3965 279.575 24.0466 266.455 28.0687 253.102C34.1352 234.149 40.3904 214.522 49.0184 199.355C63.4552 173.925 83.0492 170.576 102.025 167.265C121 163.954 139.076 160.754 152.569 137.11Z" fill="url(#paint3_linear_48_86)"/>
<path d="M155.238 125.148L157.655 126.346C148.705 148.41 136.958 153.044 123.382 158.314C118.084 160.3 112.859 162.634 107.734 165.304C90.264 174.746 88.0933 179.069 80.068 194.941C78.8401 197.349 77.473 200.053 75.9094 203.074C68.6163 217.02 62.0688 232.282 55.9597 247.082C48.9477 264.398 41.1192 281.281 32.5148 297.64C30.1272 301.985 27.6248 306.371 25.0657 310.908C11.2497 335.233 -3.03545 360.305 -4.42716 387.999C-6.43068 428.263 14.2126 455.01 36.0749 483.362C54.1718 506.91 72.8965 531.037 76.9929 563.558C83.0019 611.162 45.6302 657.628 9.50948 702.629C-10.7726 727.921 -29.8934 751.665 -39.8323 773.887L-42.2241 772.564C-32.0642 749.772 -12.8105 725.763 7.59876 700.367C43.2498 655.984 80.1325 610.1 74.3088 564.087C70.3313 532.562 51.8819 508.651 34.0227 485.507C12.7892 457.994 -9.18193 429.524 -7.13266 387.974C-5.70609 359.444 8.80678 333.9 22.8574 309.202C25.404 304.727 27.9125 300.31 30.2746 295.96C38.8187 279.666 46.5735 262.844 53.4969 245.583C59.765 230.654 66.2359 215.376 73.554 201.305C75.0989 198.378 76.4784 195.612 77.7063 193.203C85.6873 177.42 88.371 172.131 106.681 162.211C111.889 159.472 117.203 157.091 122.597 155.08C136.142 150.096 146.825 145.863 155.238 125.148Z" fill="url(#paint4_linear_48_86)"/>
<path d="M156.584 111.172L159.089 111.934C153.741 131.938 140.806 148.701 128.329 164.909C118.555 177.58 108.425 190.697 101.888 205.379C93.5043 224.092 78.8441 246.402 63.315 269.993C36.4745 310.998 5.88543 357.434 3.51558 393.966C0.776795 436.963 25.1414 467.145 48.6916 496.354C68.8171 521.313 89.6542 547.096 94.2991 581.119C100.697 628.64 61.502 670.821 23.5005 711.559C2.16209 734.437 -17.9885 756.031 -28.5759 777.249L-30.8025 775.765C-19.968 754.112 0.322272 732.351 21.8322 709.281C59.2618 669.141 97.9747 627.639 91.7053 581.86C87.2038 548.578 66.6174 523.268 46.7485 498.619C22.8072 468.975 -1.93586 438.296 0.880482 393.987C3.27159 356.423 34.1077 309.551 61.3104 268.198C76.6612 244.7 91.3408 222.427 99.5728 204.072C106.319 189.012 116.537 175.717 126.451 162.88C139.303 146.133 151.438 130.439 156.584 111.172Z" fill="url(#paint5_linear_48_86)"/>
<path d="M159.797 96.5034C153.484 131.369 140.645 183.766 127.31 216.411C116.407 243.167 95.0929 267.377 72.5088 293.016C43.3957 326.02 13.2798 360.312 8.35126 399.924C2.87943 443.959 31.3336 478.653 58.8576 512.157C78.6222 536.267 99.0791 561.164 106.047 589.048C119.748 643.605 78.3728 681.69 38.3578 718.429C16.9231 738.082 -5.17314 758.25 -17.4026 780.497L-19.5593 778.931C-7.04424 756.32 15.2547 735.805 36.8546 715.99C75.9856 679.948 116.688 642.699 103.538 590.163C96.7382 562.895 77.3469 539.572 56.9336 514.458C28.9801 480.447 0.0963596 445.245 5.74058 399.691C10.7988 359.037 41.2708 324.428 70.7774 290.92C93.1264 265.525 114.294 241.382 124.944 215.353C138.185 182.916 150.929 130.855 157.205 96.177L159.797 96.5034Z" fill="url(#paint6_linear_48_86)"/>
<path d="M157.817 80.5642L160.372 81.0774C156.111 101.493 158.071 122.026 159.959 141.864C162.327 166.98 164.795 192.924 154.802 218.988C142.889 249.976 115.056 276.082 88.15 301.274C55.1489 332.202 21.0292 364.2 15.2084 405.607C8.78066 451.49 40.6162 489.195 71.4256 525.658C94.1755 552.634 115.713 578.104 123.105 606.786C137.831 663.783 95.1358 695.872 53.7956 726.905C30.9724 744.078 7.37313 761.807 -6.29408 783.538L-8.35599 781.764C5.72405 759.565 29.5459 741.654 52.6683 724.315C94.8925 692.585 134.776 662.586 120.66 607.979C113.424 579.975 92.1296 554.749 69.5658 528.037C38.333 491.036 6.04245 452.818 12.7062 405.364C18.6363 362.618 53.2585 330.235 86.711 298.912C113.33 273.955 140.866 248.275 152.494 217.909C162.159 192.686 159.8 168.317 157.409 142.518C155.425 122.369 153.437 101.572 157.817 80.5642Z" fill="url(#paint7_linear_48_86)"/>
<path d="M161.496 65.9563C162.202 84.003 167.852 103.237 173.857 123.482C183.596 156.618 193.66 190.92 181.707 221.577C168.719 254.874 136.324 281.067 104.953 306.527C67.6293 336.749 29.0144 367.974 22.3342 411.41C18.2634 437.757 39.3221 469.315 53.2542 490.18L58.1343 497.636C65.6347 509.245 75.2747 521.316 85.3515 534.122C106.825 561.101 131.204 591.609 139.85 624.235C155.625 683.547 111.663 710.168 69.1847 735.89C44.9981 750.457 19.953 765.726 4.8861 786.885L2.93834 784.94C18.3795 763.241 43.6983 747.8 68.1523 733.092C111.478 706.861 152.397 682.024 137.36 625.386C128.85 593.403 104.696 563.101 83.485 536.402C73.2356 523.529 63.557 511.385 55.9924 499.699L51.138 492.248C36.8149 470.948 15.4475 438.81 19.6208 411.027C26.5314 366.18 65.6549 334.539 103.481 303.933C134.477 278.883 166.529 252.945 179.182 220.519C190.68 191.067 180.786 157.381 171.221 124.83C165.214 104.197 159.481 84.8486 158.754 66.3768L161.496 65.9563Z" fill="url(#paint8_linear_48_86)"/>
<path d="M163.656 52.8238C166.191 73.4073 176.526 94.5864 187.695 117.034C203.576 149.364 220.023 182.715 211.561 215.044C200.316 257.79 160.754 285.393 122.491 312.09C81.5486 340.614 39.2386 370.125 34.1054 417.369C28.3816 469.933 63.3052 507.611 97.0689 544.052C126.756 575.919 157.398 609.11 161.214 652.551C164.939 695.39 154.696 707.481 119.732 724.902C109.429 730.02 99.7979 734.043 90.5364 737.945C63.4715 749.247 40.0945 758.991 16.3573 789.708L14.5049 787.685C38.6158 756.298 62.3176 746.393 89.7834 734.815C99.0641 730.949 108.663 726.952 118.96 721.865C152.944 704.96 162.297 693.856 158.677 653.012C154.955 610.692 124.614 577.982 95.2983 546.384C61.0733 509.462 25.6689 471.266 31.5964 417.026C36.939 367.947 79.8917 338.014 121.4 309.054C159.161 282.871 198.221 255.782 209.076 214.318C217.192 183.312 201.035 150.505 185.406 118.905C174.229 96.2295 163.683 74.7811 161.075 53.6327L163.656 52.8238Z" fill="url(#paint9_linear_48_86)"/>
<path d="M167.658 42.2959C174.773 81.0891 185.908 98.2846 201.294 122.098C206.2 129.559 211.742 138.216 217.66 148.309C228.218 166.263 241.53 192.994 235.422 217.572C224.256 262.438 180.789 289.903 138.76 316.428C94.4595 344.341 48.4217 373.492 42.9003 422.535C36.8076 476.936 73.8114 516.165 109.61 554.116C140.968 587.322 173.37 621.676 177.396 666.454C183.225 675.137 185.648 683.847 184.585 692.311C183.436 701.47 178.279 710.471 169.024 719.102L168.687 719.326L134.927 736.308C123.969 740.582 113.838 743.922 104.056 746.975C76.5338 755.659 52.739 763.118 27.894 792.868L26.0922 790.725C51.5403 760.222 75.6348 752.727 103.578 743.933C113.309 740.869 123.428 737.722 134.162 733.37L167.655 716.528C176.146 708.521 180.962 700.293 182 692.083C182.957 684.408 180.614 676.361 175.074 668.222L174.843 667.916L174.931 667.481C171.068 623.61 138.909 589.499 107.795 556.536C71.5095 518.099 34.025 478.352 40.3027 422.37C46.0209 371.552 92.6004 342.219 137.664 313.682C179.152 287.47 222.072 260.348 232.906 216.872C238.693 193.622 225.723 167.704 215.461 150.263C209.511 140.196 204.027 131.777 199.184 124.134C183.586 100.052 172.31 82.634 165.084 43.2033L167.658 42.2959Z" fill="url(#paint10_linear_48_86)"/>
<path d="M174.017 35.3818C182.78 76.287 196.057 94.4633 214.403 119.551C220.447 127.823 227.287 137.163 234.505 148.196C243.822 162.404 263.22 192.041 256.361 220.095C245.041 266.387 198.754 293.739 153.885 320.114C106.859 347.836 58.203 376.525 52.5081 426.829C46.2294 482.553 84.8075 522.94 122.136 562.008C154.857 596.232 188.693 631.651 192.896 677.663C198.93 686.387 201.454 695.118 200.417 703.587C199.274 712.714 193.932 721.71 184.594 730.228L184.219 730.508L149.589 745.471C138.19 749.3 127.595 751.769 117.44 754.165C89.5519 760.703 65.5776 766.41 39.8567 795.757L38.1186 793.562C64.4681 763.467 88.876 757.718 117.09 751.148C127.213 748.778 137.673 746.315 148.951 742.558L183.263 727.726C191.882 719.744 196.756 711.625 197.788 703.447C198.745 695.771 196.325 687.709 190.581 679.529L190.35 679.224L190.31 678.762C186.372 633.678 152.774 598.533 120.245 564.542C82.4614 524.962 43.4026 484.057 49.8468 426.716C55.7193 374.602 105.094 345.506 152.815 317.373C197.034 291.322 242.767 264.214 253.692 219.494C260.161 192.981 241.315 164.167 232.223 150.425C225.038 139.495 218.224 130.161 212.198 121.925C194.334 97.4843 180.223 78.1692 171.284 36.5489L174.017 35.3818Z" fill="url(#paint11_linear_48_86)"/>
<path d="M183.386 32.9255C192.398 75.2404 207.734 94.6723 227.131 119.421C234.014 128.153 241.826 138.076 249.947 149.906C261.443 166.495 280.667 194.219 273.613 222.849C261.953 270.044 214.062 297.171 167.757 323.419C119.212 350.9 69.0106 379.344 63.3445 430.431C57.0691 486.932 96.5815 527.96 134.825 567.632C168.403 602.482 203.103 638.496 207.386 685.301C213.414 694.056 215.964 702.792 214.895 711.287C213.771 720.451 208.461 729.421 199.098 738.063L198.672 738.333L163.513 752.089C151.576 755.551 140.769 757.491 130.287 759.4C102.431 764.456 78.3554 768.815 52.1967 798.754L50.4585 796.559C77.2713 765.877 101.742 761.533 130.083 756.316C140.508 754.428 151.264 752.477 162.997 749.103L197.811 735.473C206.405 727.486 211.291 719.305 212.303 711.09C213.241 703.378 210.822 695.316 205.077 687.136L204.827 686.794L204.787 686.333C200.712 640.477 166.332 604.721 132.998 570.115C94.2927 529.961 54.2803 488.379 60.7407 430.296C66.5969 377.337 117.543 348.493 166.782 320.6C212.515 294.691 259.724 268.042 271.09 222.18C277.736 195.184 259.057 168.185 247.965 152.098C239.871 140.403 232.437 130.977 225.24 121.825C205.587 96.8959 190.058 77.2311 180.877 34.1699L183.386 32.9255Z" fill="url(#paint12_linear_48_86)"/>
<path d="M196.463 35.0345C205.556 76.9449 220.881 96.8278 240.273 121.996C247.375 131.226 254.714 140.73 262.68 152.4C274.813 170.184 293.115 197.076 286.308 225.14C274.813 272.433 226.853 299.644 180.478 325.975C131.92 353.518 81.7127 381.993 75.9382 433.091C69.5548 489.732 109.315 530.454 147.75 570.1C181.416 604.643 216.25 640.782 220.584 687.467C226.56 696.212 229.053 704.969 228.003 713.5C226.874 722.695 221.698 731.659 212.373 740.374L211.947 740.644L176.629 754.4C164.564 757.836 153.629 759.751 143.051 761.609C115.098 766.483 90.9964 770.577 64.8841 800.947L63.1203 798.747C89.8872 767.764 114.435 763.436 142.962 758.483C153.482 756.646 164.335 754.747 176.278 751.383L211.246 737.784C219.763 729.781 224.578 721.554 225.597 713.308C226.541 705.565 224.154 697.476 218.479 689.213L218.229 688.872L218.31 688.467C214.241 642.58 179.62 606.97 146.139 572.561C107.192 532.553 66.9511 491.184 73.5319 432.898C79.5096 379.996 130.442 351.084 179.695 323.13C225.49 297.168 272.852 270.291 283.97 224.476C290.407 197.989 272.567 171.838 260.819 154.519C252.923 142.895 245.61 133.397 238.54 124.141C218.911 98.6984 203.418 78.5877 194.176 35.9673L196.463 35.0345Z" fill="url(#paint13_linear_48_86)"/>
<path d="M212.989 38.3548C221.656 78.9492 235.657 99.6021 253.376 125.826C259.532 134.866 265.645 144.124 272.505 155.215C282.97 172.309 300.514 200.991 294.14 227.555C282.975 274.267 236.217 301.978 191.005 328.737C143.559 356.828 94.4838 385.886 88.7644 436.444C82.405 492.702 122.135 532.382 160.577 570.669C194.285 604.347 229.196 639.173 233.586 685.449C239.562 694.193 242.087 702.925 241.037 711.456C239.913 720.619 234.731 729.615 225.413 738.298L225.012 738.574L189.474 753.16C177.513 756.876 166.567 759.113 155.952 761.286C127.575 767.079 103.075 772.097 77.0194 802.316L75.2811 800.121C101.959 769.186 126.874 764.089 155.734 758.005C166.266 755.847 177.155 753.631 188.912 750.003L224.112 735.512C232.604 727.504 237.445 719.282 238.432 711.062C239.419 702.842 236.982 695.262 231.314 686.967L231.089 686.631L231.049 686.17C226.868 640.843 192.296 606.311 158.831 572.876C119.921 534.009 79.6657 493.77 86.2225 435.869C92.1388 383.537 141.908 354.068 190.048 325.566C234.693 299.114 280.872 271.772 291.66 226.539C297.688 201.297 280.632 173.361 270.431 156.677C263.698 145.611 257.414 136.416 251.354 127.427C233.48 100.913 219.318 80.0013 210.497 38.8578L212.989 38.3548Z" fill="url(#paint14_linear_48_86)"/>
<path d="M232.646 42.3683C236.618 64.9242 250.054 89.3166 264.262 115.159C285.484 153.711 307.419 193.603 298.401 230.289C287.206 275.829 242.632 304.173 199.516 331.612C153.828 360.607 106.754 390.682 101.523 440.399C95.6962 495.857 135.253 533.624 173.515 570.16C207.165 602.272 241.949 635.486 246.654 680.983C252.63 689.598 255.135 698.293 254.124 706.767C253 715.931 247.818 724.927 238.43 733.693L238.054 733.974L202.165 749.914C190.262 753.998 179.235 756.769 168.616 759.362C139.677 766.499 114.69 772.617 88.6109 803.35L86.8665 801.186C113.542 769.732 138.899 763.494 168.284 756.252C178.878 753.653 189.828 750.867 201.552 746.747L237.129 730.906C245.697 722.914 250.557 714.598 251.55 706.347C252.482 698.667 250.076 690.672 244.389 682.6L244.164 682.264L244.246 681.859C239.902 637.341 205.33 604.396 171.949 572.533C133.13 535.594 93.0346 497.201 99.065 440.068C104.525 388.551 152.338 358.105 198.515 328.659C241.154 301.61 285.11 273.562 295.967 229.443C304.652 194.148 283.019 154.867 262.113 116.864C247.763 90.799 234.218 66.1579 230.167 43.0682L232.646 42.3683Z" fill="url(#paint15_linear_48_86)"/>
<path d="M254.716 46.9322C257.071 68.6775 266.748 92.8651 277.222 118.508C293.048 157.594 309.408 197.986 299.835 232.941C287.973 276.243 246.631 305.43 206.651 333.661C161.378 365.621 118.618 395.786 114.155 444.589C109.185 498.956 148.501 534.214 186.53 568.339C220.102 598.461 254.795 629.617 259.865 674.086C265.815 682.567 268.345 691.137 267.346 699.549C266.268 708.754 261.003 717.895 251.506 726.672L251.169 726.896L214.834 744.656C202.902 749.285 191.852 752.569 181.145 755.728C151.53 764.51 125.988 772.071 99.7592 803.679L97.9574 801.537C124.7 769.222 150.637 761.546 180.641 752.68C191.297 749.511 202.315 746.253 214.05 741.682L250.155 724.005C258.87 715.816 263.787 707.479 264.755 699.222C265.668 691.635 263.236 683.765 257.607 675.802L257.351 675.492L257.304 675.061C252.569 631.566 218.14 600.689 184.888 570.826C146.295 536.07 106.441 500.445 111.557 444.423C116.16 393.997 161.554 361.965 205.441 330.957C244.95 303.085 285.929 274.246 297.33 232.179C306.584 198.422 290.455 158.595 274.842 120.037C264.38 94.2024 254.51 69.7819 252.211 47.4973L254.716 46.9322Z" fill="url(#paint16_linear_48_86)"/>
<path d="M278.543 51.8809C278.919 73.4228 284.543 97.2818 290.498 122.535C299.681 161.485 309.131 201.751 299.163 235.623C287.188 276.182 249.462 306.29 212.995 335.421C170.39 369.309 130.108 401.559 126.621 448.809C122.838 501.764 161.799 534.166 199.516 565.476C233.123 593.306 267.678 621.974 273.19 665.172C279.152 673.461 281.688 681.87 280.733 690.194C279.674 699.435 274.365 708.665 264.601 717.582L264.295 717.78L227.445 737.574C215.516 742.85 204.34 746.757 193.592 750.523C163.225 761.194 137.013 770.368 110.694 803.221L108.886 801.109C135.726 767.648 162.295 758.287 193.031 747.496C203.754 743.725 214.872 739.839 226.592 734.812L263.206 715.132C272.105 706.818 277.175 698.512 278.04 690.106C278.909 682.607 276.478 674.866 270.831 667.126L270.6 666.821L270.553 666.391C265.39 624.104 231.116 595.623 197.951 568.108C159.695 536.301 120.134 503.455 124.049 448.778C127.555 399.848 170.28 365.758 211.587 332.775C247.666 303.987 284.953 274.211 296.633 234.726C306.355 201.808 296.965 162.04 287.899 123.567C281.905 98.1116 276.216 74.0454 275.832 52.1458L278.543 51.8809Z" fill="url(#paint17_linear_48_86)"/>
<path d="M303.436 57.0766C301.577 78.2343 302.763 101.299 303.994 125.732C305.966 164.593 308.02 204.766 297.19 238.302C285.257 275.211 251.681 306.089 219.314 335.979C180.997 371.278 141.408 407.747 139.248 453.289C136.907 504.623 175.452 533.931 212.762 562.245C246.205 587.581 280.75 613.786 286.571 655.978C292.884 701.669 273.982 713.348 240.003 730.092C228.198 735.944 216.916 740.51 206.062 744.934C174.887 757.644 147.993 768.624 121.501 802.867L119.63 800.808C146.604 766.014 173.855 754.846 205.374 742.011C216.177 737.706 227.382 732.996 239.175 727.206C275.452 709.337 289.672 697.947 283.97 656.751C278.269 615.554 244.237 589.97 211.255 564.986C173.343 536.227 134.139 506.495 136.625 453.377C138.85 406.326 178.992 369.354 217.78 333.695C249.88 304.076 283.029 273.469 294.723 237.483C305.339 204.616 303.331 164.744 301.36 126.272C300.098 101.735 298.911 78.5406 300.801 57.0977L303.436 57.0766Z" fill="url(#paint18_linear_48_86)"/>
<path d="M326.229 61.882L328.783 62.3952C324.813 82.1573 321.873 102.742 318.76 124.586C313.092 164.308 307.225 205.415 294.63 240.993C283.163 273.463 254.19 304.715 226.169 334.927C189.998 373.96 152.608 414.303 151.754 457.841C150.772 507.57 188.984 533.638 225.905 558.863C259.165 581.54 293.539 605.023 299.928 645.84C306.861 690.036 286.467 703.584 252.592 722.066C240.667 728.509 229.401 733.79 218.467 738.878C186.484 753.757 158.851 766.564 132.142 802.285L130.258 800.287C157.437 763.948 185.343 750.97 217.593 735.95C228.502 730.857 239.787 725.613 251.578 719.175C285.148 700.891 303.824 688.487 297.271 646.633C291.098 607.123 257.185 583.991 224.423 561.609C186.869 535.965 148.023 509.479 149.042 457.976C149.916 413.017 187.809 372.161 224.424 332.634C252.222 302.603 280.942 271.689 292.156 239.946C304.549 204.715 310.455 163.811 316.092 124.245C319.281 102.415 322.24 81.7376 326.229 61.882Z" fill="url(#paint19_linear_48_86)"/>
<path d="M351.484 66.7292L353.958 67.647C339.863 112.54 323.459 157.681 307.617 201.349C302.494 215.473 297.377 229.565 292.35 243.611C281.916 272.792 258.105 302.555 232.904 334.078C198.974 376.508 163.882 420.356 164.278 462.3C164.719 510.372 202.542 533.35 239.087 555.554C272.253 575.654 306.354 596.395 313.325 635.774C321.307 680.699 296.553 695.444 265.218 714.112C253.322 721.209 241.931 727.112 230.897 732.827C198.113 749.844 169.805 764.555 142.866 801.687L140.943 799.747C168.269 762.013 196.896 747.171 229.979 729.988C240.988 724.267 252.365 718.297 264.154 711.34C298.716 690.763 317.904 677.134 310.719 636.708C303.984 598.671 270.305 578.209 237.739 558.424C200.53 535.828 161.939 512.436 161.612 462.606C161.217 419.335 196.715 374.921 231.032 332.019C256.056 300.718 279.689 271.178 289.927 242.574C294.955 228.528 300.078 214.405 305.194 200.312C321.017 156.738 337.421 111.467 351.484 66.7292Z" fill="url(#paint20_linear_48_86)"/>
<path d="M375.91 71.4748L378.315 72.7349C366.417 101.136 351.537 127.578 337.146 153.179C320.601 182.621 303.486 213.05 291.059 246.33C275.307 288.494 254.201 321.327 231.782 356.194C228.454 361.386 225.087 366.634 221.67 372.003C218.678 376.711 215.279 381.727 211.683 387.059C195.681 410.621 175.78 439.971 176.783 466.723C178.519 513.242 215.967 533.328 252.194 552.748C285.063 570.36 319.039 588.55 326.623 626.596C335.288 669.974 309.902 686.276 277.803 706.895C265.903 714.541 254.419 721.041 243.317 727.358C209.757 746.518 180.824 762.884 153.641 801.359L151.687 799.445C179.282 760.372 209.914 742.955 242.348 724.508C253.418 718.217 264.87 711.743 276.713 704.118C307.737 684.222 332.238 668.487 323.991 627.524C316.687 590.862 283.243 572.94 250.898 555.628C214.025 535.852 175.874 515.43 174.079 467.086C173.032 439.096 193.308 409.205 209.62 385.155C213.204 379.885 216.603 374.87 219.564 370.187C222.981 364.819 226.347 359.57 229.676 354.379C252.893 318.182 272.92 286.882 288.502 245.169C301.055 211.655 318.253 181.081 334.874 151.524C349.266 126.053 364.178 99.7147 375.91 71.4748Z" fill="url(#paint21_linear_48_86)"/>
<path d="M398.899 75.9641L401.1 77.4424C386.948 105.423 368.442 129.679 350.545 153.151C328.371 182.175 305.485 212.092 291.44 248.933C273.127 296.702 253.407 333.082 229.534 375.719C226.753 380.697 223.559 386.013 220.169 391.646C205.771 415.562 187.836 445.308 189.422 471.01C192.212 516.252 229.381 533.757 265.336 550.693C297.986 566.092 331.78 582.012 339.907 618.807C349.192 660.821 322.704 678.908 292.029 699.845L290.495 700.865C278.577 708.993 267.032 716.063 255.881 722.889C221.677 743.797 192.235 761.906 164.757 801.456L162.771 799.567C190.534 759.395 221.79 740.193 254.849 720.091C265.968 713.292 277.481 706.248 289.31 698.166L290.85 697.115C321.658 676.043 346.123 659.427 337.359 619.849C329.537 584.443 296.331 568.771 264.212 553.641C227.574 536.405 189.701 518.564 186.802 471.488C185.134 444.603 203.398 414.276 218.069 389.929C221.453 384.327 224.615 379.038 227.383 374.122C251.168 331.661 270.805 295.426 289.049 247.87C303.304 210.65 326.386 180.416 348.706 151.195C366.514 127.77 384.887 103.649 398.899 75.9641Z" fill="url(#paint22_linear_48_86)"/>
<path d="M419.762 80.0577L421.881 81.6813C405.804 110.117 384.051 133.203 363.036 155.531C336.652 183.547 309.367 212.482 294.29 251.544C277.675 295.14 259.021 337.728 238.423 379.091C235.759 384.416 232.669 390.142 229.382 396.184C216.363 420.247 200.139 450.207 202.091 474.883C205.585 519.262 242.511 534.807 278.297 549.541C310.818 563.068 344.514 577.091 353.046 612.931C362.862 653.756 335.334 673.448 306.215 694.18L303.117 696.374C291.226 704.897 279.619 712.407 268.412 719.643C235.117 741.187 203.63 761.67 176.123 801.893L174.137 800.005C202.05 759.086 233.754 738.582 267.316 716.897C278.497 709.657 290.098 702.047 301.9 693.701L304.998 691.507C334.346 670.562 359.692 652.472 350.473 613.968C342.24 579.548 309.208 565.788 277.25 552.504C240.785 537.31 203.094 521.611 199.471 475.36C197.431 449.534 213.946 419.049 227.187 394.544C230.467 388.534 233.545 382.871 236.184 377.541C256.735 336.288 275.341 293.809 291.905 250.321C307.33 210.713 334.755 181.482 361.393 153.258C382.275 131.065 403.894 108.114 419.762 80.0577Z" fill="url(#paint23_linear_48_86)"/>
<path d="M437.827 83.6552L439.934 85.3411C422.566 114.91 398.31 137.363 374.867 159.074C344.63 187.092 316.083 213.573 300.452 254.207L294.316 270.2C279.753 308.296 265.991 344.255 248.754 382.3C246.13 388.087 243.048 394.299 239.719 400.818C227.252 425.964 213 454.443 214.836 478.641C218.074 522.71 255.151 536.57 291.117 550.013C323.6 562.14 357.221 574.69 366.069 609.752C376.207 649.897 348.955 669.936 320.106 691.175L315.895 694.279C304.005 703.061 292.361 710.888 281.111 718.471C247.342 741.053 215.642 762.464 188.002 803.212L186.017 801.323C214.011 760.129 246.049 738.494 279.964 715.715C291.189 708.257 302.82 700.362 314.652 691.601L318.863 688.497C346.739 668.001 373.088 648.623 363.559 610.866C355.056 577.266 322.055 564.938 290.141 553.022C253.535 539.192 215.627 525.1 212.272 479.098C210.452 453.898 224.862 424.901 237.549 399.314C240.802 392.78 243.871 386.629 246.56 380.921C263.721 342.99 277.348 307.036 292.027 269.027L298.169 253.004C314.046 211.675 344.246 183.713 373.332 156.661C396.641 135.085 420.707 112.788 437.827 83.6552Z" fill="url(#paint24_linear_48_86)"/>
<path d="M452.509 86.6372L454.628 88.2609C436.764 119.899 411.008 142.148 386.059 163.686C355.28 190.301 326.185 215.408 310.703 256.623C307.901 264.047 305.143 271.425 302.429 278.758C288.898 314.893 276.055 349.321 260.914 385.003C258.241 391.297 254.983 398.122 251.503 405.388C239.604 430.356 226.123 458.569 227.928 481.596C231.41 525.908 268.35 538.866 304.044 551.412C336.435 562.808 369.924 574.555 378.957 609.621C389.229 649.632 361.081 670.688 333.76 691.069L328.76 694.792C316.891 703.739 305.209 711.753 293.928 719.492C260.027 742.727 228.163 764.559 200.453 805.26L198.467 803.371C226.494 762.281 258.677 740.19 292.768 716.798C304.024 709.055 315.674 701.067 327.48 692.171L332.486 688.417C360.061 667.829 386.078 648.384 376.436 610.928C367.773 577.328 335.011 565.792 303.132 554.628C266.645 541.794 228.938 528.552 225.321 482.27C223.436 458.191 237.144 429.376 249.264 403.967C252.706 396.758 255.932 389.959 258.637 383.768C273.766 348.149 286.546 313.903 300.096 277.674C302.826 270.344 305.584 262.966 308.37 255.539C324.199 213.391 354.953 186.9 384.702 161.179C409.275 139.793 434.963 117.756 452.509 86.6372Z" fill="url(#paint25_linear_48_86)"/>
<path d="M463.692 92.348L465.837 93.9768C447.873 125.983 421.867 148.15 396.733 169.553C365.984 195.753 336.938 220.482 321.329 261.801C316.034 275.858 310.784 290.085 305.736 303.835C295.627 331.268 285.197 359.64 273.788 387.589C271.154 394.085 267.884 401.102 264.45 408.539C253.18 432.889 240.443 460.441 242.182 483.002C245.533 526.64 281.475 540.466 316.229 553.859C347.703 565.978 380.367 578.53 389.206 613.105C399.458 652.82 372.57 673.029 344.085 694.438L339.659 697.952C328.158 706.65 316.859 714.482 305.928 722.064C272.544 745.242 241.069 767.119 213.363 807.27L211.409 805.356C239.316 764.598 271.109 742.46 304.691 719.225C315.584 711.7 326.864 703.833 338.333 695.161L342.811 691.786C370.348 671.125 396.326 651.608 386.665 614.246C378.1 581.086 346.133 568.771 315.252 556.868C279.745 543.259 243.08 529.062 239.626 483.557C237.819 460.011 250.79 431.956 262.256 407.159C265.69 399.722 268.928 392.732 271.537 386.359C282.907 358.468 293.453 330.184 303.428 302.756C308.482 288.975 313.707 274.742 319.053 260.567C334.984 218.438 365.707 192.233 395.426 166.927C420.237 145.815 446.014 123.861 463.692 92.348Z" fill="url(#paint26_linear_48_86)"/>
<path d="M472.091 103.587L474.21 105.211C456.169 137.202 429.932 158.804 404.572 179.741C373.546 205.335 344.237 229.526 328.755 270.87C323.738 284.335 316.21 301.569 308.29 319.825C284.46 374.418 254.808 442.379 257.63 483.095C260.588 525.78 294.59 541.062 327.499 555.832C357.262 569.194 388.049 583.02 396.426 617.114C406.187 656.892 379.624 677.069 351.516 698.457L348.183 701.025C337.167 709.432 326.37 717.008 315.999 724.314C283.73 746.971 253.255 768.37 226.395 807.752L224.409 805.863C251.605 765.999 282.297 744.449 314.789 721.611C325.178 714.341 335.918 706.785 346.877 698.399L350.236 695.836C378.483 674.282 403.081 655.685 393.892 618.223C385.845 585.524 355.621 571.94 326.394 558.816C292.827 543.751 258.141 528.17 254.997 483.634C252.126 441.97 281.98 373.532 305.969 318.549C313.927 300.366 321.417 283.188 326.39 269.812C342.168 227.653 373.213 201.966 403.221 177.203C428.339 156.412 454.361 134.961 472.091 103.587Z" fill="url(#paint27_linear_48_86)"/>
<path d="M478.205 119.321L480.311 121.006C461.859 152.138 435.684 173.558 410.375 194.376C377.211 221.483 345.885 247.114 331.002 292.626C326.477 306.416 319.347 324.183 311.85 342.978C293.213 389.581 270.003 447.569 270.802 483.669C271.702 523.901 304.769 543.042 336.717 561.667C360.708 575.585 385.512 589.958 396.2 613.215C414.137 652.24 392.952 673.692 361.08 699.796C348.043 710.451 335.307 719.613 322.972 728.5C293.096 749.954 264.862 770.248 239.518 807.377L237.532 805.489C263.213 767.877 291.708 747.473 321.755 725.827C334.033 716.961 346.635 707.805 359.736 697.227C391.353 671.201 410.772 651.661 393.871 614.884C383.557 592.414 359.086 578.238 335.427 564.516C302.814 545.628 269.082 526.094 268.169 484.079C267.34 447.196 290.708 388.819 309.491 341.889C316.975 323.157 324.068 305.446 328.548 291.744C343.759 245.262 376.904 218.119 408.986 191.895C434.117 171.171 460.069 149.933 478.205 119.321Z" fill="url(#paint28_linear_48_86)"/>
<path d="M482.591 138.495L484.69 140.212C466.488 170.098 440.035 190.524 414.383 210.269C380.17 236.647 347.853 261.658 334.123 306.851C331.007 317.201 326.873 329.71 322.359 342.92C307.105 388.422 288.025 445.297 288.366 481.564C288.714 521.102 318.056 542.117 346.521 562.471C368.005 577.892 390.192 593.909 399.759 617.718C415.677 657.535 394.838 679.121 366.001 703.212C353.766 713.447 341.902 722.104 330.407 730.511C302.645 750.836 276.442 770.017 252.949 805.866L250.926 804.035C274.672 767.719 301.072 748.48 329.075 727.88C340.539 719.499 352.352 710.831 364.516 700.68C392.234 677.53 412.261 656.817 397.271 619.258C388.051 596.101 366.139 580.432 344.956 565.232C316.011 544.491 286.087 523.067 285.726 481.875C285.408 444.965 304.608 387.888 319.943 341.981C324.349 328.782 328.534 316.283 331.663 306.001C345.739 259.615 379.857 233.314 413.083 207.612C438.455 188.07 464.763 167.841 482.591 138.495Z" fill="url(#paint29_linear_48_86)"/>
<path d="M485.806 160.057L487.811 161.852C469.011 190.744 442.68 209.9 417.195 228.415C385.114 251.725 354.928 273.797 338.999 313.4C325.048 348.317 307.055 439.731 308.81 478.483C310.565 517.236 334.928 539.226 358.528 560.512C379.58 579.538 401.253 599.175 407.553 630.649C413.853 662.123 393.574 685.279 375.345 702.338C361.641 714.927 347.341 726.503 332.533 736.993C308.773 754.463 288.251 769.573 266.233 804.035L264.197 802.266C286.538 767.254 307.276 751.993 331.29 734.315C346.001 723.914 360.204 712.427 373.81 699.925C391.359 683.474 410.893 660.848 404.947 631.712C398.901 601.357 377.509 581.907 356.797 563.176C332.774 541.481 307.918 519.035 306.132 478.981C304.388 439.778 322.544 347.555 336.589 312.301C352.718 271.702 383.445 249.447 415.934 225.831C441.221 207.373 467.33 188.399 485.806 160.057Z" fill="url(#paint30_linear_48_86)"/>
<path d="M488.306 182.932L490.286 184.852C465.711 219.869 446.62 235.395 413.134 256.966L403.442 263.145C371.278 283.557 350.047 297.035 337.917 338.631C328.101 372.275 324.555 439.135 325.14 475.904C325.791 514.596 345.45 537.908 366.187 562.601C381.634 580.955 397.6 599.898 404.737 625.615C416.667 668.484 392.034 690.829 365.945 714.469L363.994 716.246C354.242 725.101 345.682 731.994 337.371 738.839C316.112 756.164 299.253 769.84 279.566 801.695L277.498 799.952C297.527 767.454 314.5 753.606 336.007 736.105C344.268 729.379 352.815 722.418 362.471 713.641L364.454 711.838C390.797 687.991 413.549 667.339 402.221 626.631C395.265 601.598 379.498 582.857 364.161 564.752C343.924 540.742 323.008 515.883 322.359 475.992C321.817 439.005 325.342 371.591 335.252 337.61C347.76 294.794 369.429 280.984 402.198 260.208L411.865 254.024C445.187 232.873 464.062 217.498 488.306 182.932Z" fill="url(#paint31_linear_48_86)"/>
<path d="M490.686 206.14L492.602 208.111C467.527 242.445 449.018 256.663 414.38 277.484C410.459 279.935 406.57 282.1 402.75 284.311C373.374 301.43 348.008 316.181 339.337 355.105C334.588 376.362 337.839 406.609 340.649 433.496C342.176 447.855 343.604 461.384 343.816 472.759C344.525 509.974 359.675 535.229 375.755 561.933C388.104 582.481 400.87 603.728 406.175 630.76C415.84 679.876 378.498 713.494 342.416 746.005C322.594 763.845 303.872 780.708 293.11 799.624L290.965 797.995C302.013 778.586 320.9 761.562 340.944 743.54C376.29 711.788 412.881 678.732 403.62 631.704C398.439 605.247 385.788 584.217 373.575 563.924C357.976 538.125 341.908 511.229 341.329 473.101C341.111 461.887 339.696 448.425 338.176 434.165C335.296 407.101 332.055 376.404 336.929 354.525C345.9 314.236 371.871 298.991 401.877 281.513C405.697 279.302 409.573 277.069 413.475 274.712C447.622 254.084 465.915 240.016 490.686 206.14Z" fill="url(#paint32_linear_48_86)"/>
<path d="M493.439 228.548L495.279 230.634C466.562 266.955 445.254 280.158 410.065 300.286C407.054 302.045 403.686 303.861 400.14 305.771C377.424 318.044 346.336 334.819 340.172 364.177C336.324 382.54 343.814 405.705 351.059 428.109C356.172 443.933 361.012 458.86 361.889 471.825C363.887 501.561 374.299 529.102 384.267 555.679C395.047 584.297 406.188 613.895 406.614 645.905C407.158 691.343 380.451 716.736 352.118 743.745C335.339 759.801 317.981 776.355 306.52 797.559L304.337 795.987C316.052 774.317 333.613 757.544 350.583 741.332C378.332 714.853 404.536 689.845 403.98 646.185C403.557 614.823 393.028 586.806 381.842 557.167C371.739 530.336 361.32 502.567 359.262 472.334C358.407 459.793 353.662 445.047 348.609 429.462C341.215 406.607 333.582 382.96 337.624 363.633C344.158 332.568 375.978 315.455 399.196 302.927C402.743 301.017 406.085 299.195 409.09 297.468C443.948 277.532 465.065 264.485 493.439 228.548Z" fill="url(#paint33_linear_48_86)"/>
<path d="M496.99 249.368L499.058 251.111C487.812 269.508 473.731 285.249 457.671 297.379C441.611 309.509 423.907 317.774 405.635 321.672C372.026 328.777 350.539 351.204 341.74 388.387C341.85 404.242 350.496 415.174 359.643 426.79C368.789 438.405 377.884 449.881 380.234 467.287L380.134 467.785C375.273 500.388 379.073 533.212 390.985 561.529C403.457 592.692 410.203 627.119 410.799 662.642C406.543 699.831 383.342 722.983 360.904 745.381C345.698 760.489 330.046 776.092 319.97 795.955L317.622 794.414C328.085 774.079 343.876 758.31 359.166 743.056C382.201 720.066 403.965 698.374 408.042 662.736C407.431 627.718 400.767 593.785 388.471 563.063C376.427 534.244 372.6 500.884 377.537 467.749C375.249 451.359 366.288 440.007 357.623 429.039C348.091 416.957 339.086 405.564 339.053 388.398L339.097 388.18L339.141 387.962C348.272 349.259 370.553 325.923 405.38 318.577C423.296 314.741 440.653 306.628 456.4 294.732C472.147 282.835 485.956 267.402 496.99 249.368Z" fill="url(#paint34_linear_48_86)"/>
<path d="M502.09 267.099L504.121 268.899C480.111 306.393 448.373 329.319 409.795 337.077C376.027 342.985 354.423 364.806 345.566 401.88C346.947 418.022 357.462 424.15 368.591 430.659C380.245 437.469 393.44 445.203 397.295 465.566L397.323 466.219C391.576 499.051 393.118 532.461 401.793 563.02C410.885 596.376 414.886 631.843 413.614 667.806C408.694 703.145 389.904 723.523 369.995 745.102C356.573 759.663 342.776 774.764 333.148 794.911L330.775 793.495C340.541 772.793 354.599 757.583 368.237 742.742C387.739 721.599 406.186 701.605 410.908 667.65C412.153 632.165 408.221 597.166 399.29 564.233C390.477 533.284 388.885 499.441 394.675 466.173C391.005 447.272 378.949 440.349 367.314 433.446C355.679 426.543 344.345 419.993 342.931 402.03L342.988 401.75L343.05 401.439C352.188 362.835 374.58 340.137 409.641 333.873C447.397 326.371 478.519 303.872 502.09 267.099Z" fill="url(#paint35_linear_48_86)"/>
<path d="M509.198 280.928L511.158 282.811C484.29 321.705 449.74 345.134 408.525 352.395C372.25 358.48 354.123 380.319 353.134 418.974C364.754 430.259 379.813 435.594 395.359 433.932L395.564 433.973L395.768 434.015C404.277 436.501 409.847 440.923 412.329 447.217C414.812 453.511 414.242 460.714 411.145 469.644C408.281 494.302 408.207 519.057 410.925 543.226C416.738 581.062 419.855 619.659 420.245 658.615C416.612 699.976 398.842 721.628 380.005 744.62C368.177 759.048 355.924 774.005 346.311 794.738L343.932 793.354C353.76 772.211 366.127 757.082 378.075 742.452C396.557 719.906 413.99 698.607 417.495 658.677C417.101 619.942 413.993 581.562 408.204 543.942C405.436 519.39 405.508 494.243 408.419 469.193L408.469 468.944C411.351 460.684 411.782 453.906 409.86 448.793C407.937 443.68 402.752 439.465 395.079 437.179C378.745 438.785 362.975 432.981 350.909 420.923L350.467 420.478L350.604 419.793C351.395 379.35 370.879 355.646 408.455 349.305C448.853 342.139 482.787 319.137 509.198 280.928Z" fill="url(#paint36_linear_48_86)"/>
<path d="M518.787 289.815L520.747 291.699C493.751 330.697 459.059 353.774 417.636 360.087C381.213 365.72 362.926 387.43 361.816 426.287C375.34 436.608 391.997 440.163 408.5 436.249L408.883 436.326C418.205 437.81 424.295 441.624 427.032 447.71C429.769 453.797 429.206 461.098 425.952 470.417C423.29 495.329 422.66 520.308 424.07 544.993C427.618 583.88 429.067 623.19 428.409 662.684C424.274 702.843 407.894 724.192 390.574 746.776C379.741 761.015 368.424 775.675 359.205 796.034L356.82 794.681C366.305 773.922 377.627 759.101 388.619 744.732C405.641 722.573 421.704 701.614 425.704 662.658C426.341 623.343 424.902 584.209 421.393 545.491C419.961 520.506 420.59 495.224 423.27 470.008L423.358 469.572C426.379 461.016 426.816 454.078 424.602 449.359C422.387 444.64 416.827 440.836 408.406 439.63C391.089 443.672 373.638 439.796 359.561 428.781L358.985 428.341L358.995 427.501C359.899 386.757 379.505 363.111 417.337 357.21C458.217 350.691 492.28 328.103 518.787 289.815Z" fill="url(#paint37_linear_48_86)"/>
<path d="M530.827 292.979L532.788 294.862C505.932 333.695 471.436 356.584 430.281 362.886C394.216 368.591 375.802 390.406 374.162 429.124C388.028 439.373 404.976 442.778 421.725 438.679L422.108 438.756C431.474 440.152 437.628 443.914 440.447 449.985C443.267 456.055 442.8 463.408 439.642 472.779C437.44 497.72 436.732 522.681 437.525 547.469C439.675 586.237 440.4 625.754 439.444 664.9C435.174 704.806 418.982 727.067 401.909 750.672C391.682 764.806 381.162 779.205 372.219 798.454L369.846 797.038C379.081 777.525 389.575 762.861 399.866 748.675C416.692 725.506 432.566 703.635 436.739 664.875C437.587 625.998 436.952 586.564 434.777 547.921C433.985 522.888 434.706 497.68 436.935 472.494L437.023 472.058C439.948 463.451 440.302 456.528 438.024 451.732C435.745 446.935 430.134 443.25 421.674 441.972C404.098 446.187 386.347 442.412 371.951 431.399L371.375 430.96L371.384 430.12C372.85 389.489 392.564 365.831 430.026 359.791C470.582 353.563 504.466 331.069 530.827 292.979Z" fill="url(#paint38_linear_48_86)"/>
<path d="M541.48 292.335L543.466 294.223C531.243 312.595 516.189 328.044 499.238 339.613C482.286 351.183 463.796 358.628 444.913 361.487C410.209 367.951 392.426 389.407 390.539 427.104C403.31 438.569 419.424 443.884 435.999 442.097L436.178 442.133L436.229 442.143C445.12 444.318 450.874 448.615 453.721 454.95C456.567 461.285 456.124 468.384 453.17 477.795C451.484 502.193 450.495 526.957 450.194 551.342C450.821 588.961 450.36 627.236 448.824 665.036C444.27 703.978 428.746 728.996 412.274 755.83C402.666 770.734 393.994 786.432 386.338 802.78L383.953 801.426C391.654 784.924 400.399 769.087 410.103 754.066C426.336 727.767 441.643 702.9 446.1 664.975C447.623 627.366 448.046 589.149 447.464 551.571C447.752 526.989 448.772 502.069 450.464 477.51L450.551 477.075C453.234 468.613 453.48 461.701 451.271 456.562C449.061 451.423 443.626 447.256 435.604 445.256C418.32 447.04 401.548 441.373 388.321 429.281L387.802 428.82L387.959 428.042C389.672 388.562 408.781 365.139 444.767 358.511C463.309 355.687 481.461 348.356 498.097 336.972C514.734 325.589 529.5 310.396 541.48 292.335Z" fill="url(#paint39_linear_48_86)"/>
<path d="M550.278 288.89L552.308 290.69C541.267 308.43 527.417 323.474 511.651 334.851C495.885 346.228 478.553 353.685 460.775 356.742C427.932 364.26 411.252 385.646 409.769 422.129C420.885 435.52 435.782 443.595 451.995 445.02L452.327 445.087C468.205 451.903 473.388 464.859 467.754 483.51C475.474 525.242 465.027 600.655 458.1 650.615C457.449 655.179 456.867 659.53 456.316 663.596C451.163 701.414 437.196 730.985 422.42 762.337C415.519 776.978 408.467 792.106 402.108 808.28L399.679 807.144C406.011 790.836 413.159 775.629 420.098 760.932C434.773 729.819 448.619 700.449 453.66 663.321C454.211 659.255 454.819 654.909 455.45 650.309C462.34 600.407 472.781 525.025 464.974 483.858L464.902 483.423L464.995 482.956C470.31 465.763 465.803 454.335 451.298 447.827C434.382 446.291 418.869 437.768 407.357 423.684L406.966 423.249L407.091 422.627C408.433 384.464 426.401 361.168 460.48 353.315C477.899 350.376 494.891 343.124 510.358 332.028C525.825 320.931 539.424 306.236 550.278 288.89Z" fill="url(#paint40_linear_48_86)"/>
<path d="M557.579 283.233L559.717 284.893C550.306 301.837 538.067 316.384 523.859 327.512C509.65 338.641 493.816 346.082 477.468 349.313C446.98 358.341 431.774 379.796 431.108 414.857C440.336 430.664 453.69 442.223 469.299 447.913L469.554 447.965C483.696 457.864 488.094 472.217 482.644 490.613C486.925 527.51 476.671 581.722 468.441 625.333C466.031 638.123 463.72 650.286 461.977 660.945C455.504 700.57 443.181 738.76 431.274 775.674C427.122 788.536 422.831 801.823 418.821 815.037L416.342 814.15C420.352 800.937 424.649 787.618 428.838 774.57C440.575 737.978 452.975 699.932 459.41 660.494C461.172 649.742 463.47 637.641 465.893 624.788C474.098 581.302 484.333 527.183 480.023 490.831L480.098 490.458L480.173 490.084C485.353 472.897 481.478 460.041 468.302 450.757C452.114 444.831 438.291 432.776 428.798 416.303L428.56 415.899L428.654 415.432C429.198 378.857 445.577 355.534 477.282 346.135C493.241 342.966 508.695 335.694 522.564 324.829C536.434 313.964 548.384 299.768 557.579 283.233Z" fill="url(#paint41_linear_48_86)"/>
<path d="M563.765 275.993L566.144 277.377C559.481 292.63 549.984 306.023 538.447 316.435C526.909 326.847 513.667 333.977 499.827 337.228C473.836 345.961 458.141 366.281 453.171 397.499C452.637 418.146 463.407 430.411 474.799 443.417C486.672 456.94 498.955 470.934 499.37 495.722C500.002 531.464 488.628 573.925 477.618 614.97C472.371 634.475 467.342 652.892 463.966 669.697C459.189 693.474 455.065 717.706 451.078 741.124C446.53 767.86 441.826 795.505 436.119 822.592L433.565 822.078C439.26 795.054 443.957 767.441 448.467 740.89C452.467 717.411 456.591 693.179 461.38 669.34C464.782 652.41 469.772 633.921 475.083 614.363C485.934 573.578 497.329 531.413 496.724 496.194C496.321 472.672 484.384 459.071 472.858 446.07C461.332 433.07 449.894 419.893 450.505 397.675C455.627 364.773 471.977 343.709 499.222 334.419C512.71 331.25 525.612 324.29 536.844 314.122C548.076 303.955 557.308 290.878 563.765 275.993Z" fill="url(#paint42_linear_48_86)"/>
<path d="M569.263 267.676L571.704 268.749C560.923 298.605 542.442 318.107 516.757 326.642C493.88 337.069 480.684 357.115 477.722 386.145C476.235 409.158 485.802 425.294 495.852 442.337C506.299 460.042 517.107 478.337 515.112 505.198C512.845 537.12 500.534 569.162 488.577 600.238C480.383 621.58 471.886 643.638 467.041 664.973C459.665 697.455 458.844 730.51 458.083 762.476C457.882 785.217 456.582 808.025 454.191 830.788L451.58 830.555C453.968 807.92 455.259 785.239 455.448 762.626C456.26 730.412 457.08 697.227 464.557 664.377C469.495 642.705 478.005 620.584 486.256 599.092C498.1 568.317 510.335 536.519 512.528 505.23C514.362 479.437 503.811 461.582 493.595 444.312C483.674 427.554 473.489 410.258 475.048 386.094C478.171 355.606 491.975 334.647 516.049 323.683C527.804 320.142 538.848 313.15 548.153 303.358C557.457 293.565 564.719 281.29 569.263 267.676Z" fill="url(#paint43_linear_48_86)"/>
<path d="M574.61 258.519L576.843 259.971C568.37 277.274 555.276 290.865 542.594 303.988C523.152 324.171 504.784 343.242 502.628 374.215C500.886 399.023 509.157 419.626 517.164 439.56C526.196 462.064 535.525 485.34 531.008 514.964C526.492 544.589 512.349 570.273 498.689 595.146C487.441 615.551 475.781 636.812 469.732 659.912C460.308 695.577 464.343 733.298 468.301 769.547C470.763 792.479 473.33 816.21 472.468 839.154L469.794 839.232C470.621 816.734 468.111 792.983 465.65 770.18C461.676 733.475 457.583 695.515 467.202 659.145C473.416 635.624 485.163 614.187 496.538 593.549C510.034 568.966 524.024 543.511 528.34 514.623C532.655 485.734 523.533 463.148 514.676 441.1C506.527 420.813 498.094 399.822 499.897 374.185C502.149 341.806 521.82 321.41 540.855 301.663C553.474 288.722 566.371 275.319 574.61 258.519Z" fill="url(#paint44_linear_48_86)"/>
<path d="M579.825 249.885L582.274 250.927C575.94 268.564 566.127 282.489 556.675 295.938C544.673 312.953 533.33 329.065 528.881 351.871C523.138 381.25 530.398 408.74 537.412 435.339C544.794 463.275 552.436 492.169 545.266 523.624C538.849 551.863 523.463 573.023 508.61 593.513C496.765 609.88 484.5 626.746 476.838 647.158C461.816 686.879 471.043 731.827 479.893 775.211C484.822 799.351 489.934 824.305 490.534 847.511L487.811 847.838C487.232 825.057 482.393 801.259 477.261 776.139C468.275 732.242 458.951 686.854 474.326 646.038C482.184 625.179 494.613 608.023 506.528 591.573C521.857 570.434 536.31 550.479 542.571 523.018C549.528 492.491 542.015 464.011 534.736 436.485C527.613 409.508 520.249 381.608 526.161 351.39C530.766 327.805 542.851 310.644 554.561 294.024C564.033 280.741 573.669 267.039 579.825 249.885Z" fill="url(#paint45_linear_48_86)"/>
<path d="M587.981 242.361C585.304 261.509 577.674 277.395 570.31 292.752C563.313 307.341 556.114 322.278 553.08 340.285C548.061 370.165 553.372 400.21 558.507 429.281C564.439 462.851 570.573 497.529 560.614 531.888C552.398 560.219 534.917 577.785 518.002 594.785C504.149 608.709 489.807 623.085 480.626 643.387C462.801 682.771 477.5 733.416 491.639 782.621C499.206 808.846 506.377 833.599 508.165 855.521L505.558 856.066C503.778 834.501 496.683 809.893 489.161 783.84C474.785 734.101 459.949 682.683 478.343 642.054C487.828 621.295 502.347 606.566 516.403 592.424C533.782 574.967 550.196 558.482 558.148 531.069C567.887 497.41 562.054 464.8 555.895 430.246C550.714 400.874 545.331 370.524 550.482 339.99C553.597 321.578 560.929 306.247 568.046 291.455C575.612 275.621 582.78 260.71 585.364 242.159L587.981 242.361Z" fill="url(#paint46_linear_48_86)"/>
<path d="M594.684 235.452C592.465 252.451 589.303 269.339 585.219 286.002C580.551 304.686 577.195 323.694 575.187 342.817C573.219 367.028 576.348 393.915 579.662 422.394C584.587 464.017 589.531 507.004 577.636 542.27C567.947 571.049 547.661 584.587 528.05 597.678C513.873 607.133 499.205 616.911 488.677 632.409C463.181 669.896 485.234 733.675 504.582 789.755C514.19 817.199 523.12 842.985 525.487 862.952L522.886 863.595C520.598 844.032 511.699 818.35 502.278 791.17C482.531 734.168 460.174 669.389 486.717 630.526C497.613 614.519 512.497 604.591 526.922 594.958C546.992 581.571 565.928 568.928 575.252 541.305C586.856 506.823 581.883 464.251 577.081 423.073C573.753 394.398 570.579 367.34 572.596 342.749C574.62 323.447 578.003 304.261 582.709 285.4C586.764 268.883 589.897 252.14 592.086 235.286L594.684 235.452Z" fill="url(#paint47_linear_48_86)"/>
<path d="M602.512 230.484C600.03 250.642 599.178 271.419 598.361 291.491C597.764 306.103 597.175 321.202 595.928 336.007C593.874 359.457 596.286 387.139 598.384 416.377C602.134 463.851 606.139 512.963 592.335 549.529C581.049 579.25 559.169 590.008 537.945 600.411C522.618 607.919 506.794 615.651 495.013 630.639C471.806 659.908 483.644 691.329 495.076 721.73C496.682 726.035 498.301 730.278 499.767 734.49C504.189 747.002 508.569 758.405 512.8 769.486C525.132 801.492 535.787 829.146 541.651 869.534L539.057 870.275C533.252 830.256 522.662 802.809 510.401 770.979C506.163 759.929 501.764 748.49 497.316 735.973C495.838 731.823 494.245 727.585 492.632 723.311C481.387 693.434 468.659 659.567 493.052 628.626C505.233 613.233 521.357 605.334 536.945 597.717C558.608 587.11 579.074 577.041 589.811 548.601C603.293 512.845 599.41 464.178 595.649 417.025C593.301 387.575 591.196 359.826 593.082 336.019C594.311 321.307 594.925 306.213 595.509 291.663C596.045 271.229 597.443 250.762 599.698 230.339L602.512 230.484Z" fill="url(#paint48_linear_48_86)"/>
<path d="M611.945 227.976C609.029 246.59 610.73 264.318 612.53 283.135C614.024 298.847 615.59 315.124 614.212 332.039C612.302 354.773 613.89 382.452 615.548 411.763C618.379 463.812 621.491 517.634 606.562 555.301C594.298 586.186 571.254 594.669 548.981 602.887C532.767 608.857 516.011 615.01 503.349 629.755C478.761 658.488 492.471 691.969 504.588 721.471C506.554 726.237 508.385 730.749 510.068 735.2C515.139 748.586 520.178 760.672 525.031 772.364C538.609 804.912 550.319 833.005 556.948 874.614L554.367 875.423C547.81 834.249 536.152 806.296 522.67 773.93C517.792 762.232 512.733 750.111 507.669 736.693C505.902 732.258 504.142 727.792 502.227 723.037C489.749 692.555 475.435 657.982 501.604 627.592C514.762 612.233 531.836 605.95 548.363 599.881C571.069 591.491 592.495 583.654 604.197 554.113C618.829 517.261 615.814 463.88 612.928 412.24C611.275 382.768 609.712 354.965 611.595 331.967C612.963 315.373 611.416 299.262 609.922 283.68C608.252 265.536 606.369 246.735 609.353 227.649L611.945 227.976Z" fill="url(#paint49_linear_48_86)"/>
<path d="M620.789 228.004L623.343 228.517C620.798 241.184 622.707 249.273 624.791 257.948C625.925 262.338 626.797 266.84 627.399 271.423C629.952 293.241 631.367 305.246 629.439 331.376C627.82 353.456 628.959 380.461 630.174 409.068C632.38 461.315 634.945 520.11 619.792 559.157C607.177 591.526 583.604 598.543 560.795 605.325C544.092 610.291 526.879 615.412 513.662 630.403C488.551 658.966 503.022 693.021 515.774 723.201C517.771 727.941 519.691 732.406 521.388 736.794C526.882 750.849 532.376 763.447 537.653 775.677C551.798 808.048 563.985 836.01 570.573 878.356L567.992 879.165C561.477 837.254 549.36 809.468 535.305 777.31C529.997 765.106 524.508 752.477 518.963 738.412C517.178 734.07 515.411 729.636 513.382 724.922C500.875 695.374 485.302 658.605 511.899 628.333C525.668 612.709 543.257 607.435 560.311 602.444C583.489 595.541 605.361 589.057 617.383 558.187C632.214 520.08 629.694 461.456 627.491 409.727C626.268 381.021 625.123 353.918 626.76 331.614C628.645 305.832 627.355 294.661 624.736 272.378C624.121 267.883 623.23 263.473 622.072 259.183C620.062 250.005 617.998 241.495 620.789 228.004Z" fill="url(#paint50_linear_48_86)"/>
</g>
<defs>
<filter id="filter0_f_48_86" x="-139" y="-8" width="865.912" height="917.945" filterUnits="userSpaceOnUse" color-interpolation-filters="sRGB">
<feFlood flood-opacity="0" result="BackgroundImageFix"/>
<feBlend mode="normal" in="SourceGraphic" in2="BackgroundImageFix" result="shape"/>
<feGaussianBlur stdDeviation="4" result="effect1_foregroundBlur_48_86"/>
</filter>
<linearGradient id="paint0_linear_48_86" x1="-61.7551" y1="767.701" x2="64.5756" y2="138.891" gradientUnits="userSpaceOnUse">
<stop stop-color="#272C4F"/>
<stop offset="1" stop-color="#8B98F8" stop-opacity="0.56"/>
</linearGradient>
<linearGradient id="paint1_linear_48_86" x1="-50.0745" y1="770.307" x2="76.8564" y2="138.509" gradientUnits="userSpaceOnUse">
<stop stop-color="#272C4F"/>
<stop offset="1" stop-color="#8B98F8" stop-opacity="0.56"/>
</linearGradient>
<linearGradient id="paint2_linear_48_86" x1="-41.1722" y1="772.257" x2="87.1155" y2="133.705" gradientUnits="userSpaceOnUse">
<stop stop-color="#272C4F"/>
<stop offset="1" stop-color="#8B98F8" stop-opacity="0.56"/>
</linearGradient>
<linearGradient id="paint3_linear_48_86" x1="-34.3059" y1="774.446" x2="96.02" y2="125.749" gradientUnits="userSpaceOnUse">
<stop stop-color="#272C4F"/>
<stop offset="1" stop-color="#8B98F8" stop-opacity="0.56"/>
</linearGradient>
<linearGradient id="paint4_linear_48_86" x1="-23.9115" y1="777.085" x2="108.934" y2="115.846" gradientUnits="userSpaceOnUse">
<stop stop-color="#272C4F"/>
<stop offset="1" stop-color="#8B98F8" stop-opacity="0.56"/>
</linearGradient>
<linearGradient id="paint5_linear_48_86" x1="-9.58669" y1="781.064" x2="126.223" y2="105.073" gradientUnits="userSpaceOnUse">
<stop stop-color="#272C4F"/>
<stop offset="1" stop-color="#8B98F8" stop-opacity="0.56"/>
</linearGradient>
<linearGradient id="paint6_linear_48_86" x1="1.74251" y1="784.344" x2="140.703" y2="92.6674" gradientUnits="userSpaceOnUse">
<stop stop-color="#272C4F"/>
<stop offset="1" stop-color="#8B98F8" stop-opacity="0.56"/>
</linearGradient>
<linearGradient id="paint7_linear_48_86" x1="15.6582" y1="787.949" x2="157.776" y2="80.556" gradientUnits="userSpaceOnUse">
<stop stop-color="#272C4F"/>
<stop offset="1" stop-color="#8B98F8" stop-opacity="0.56"/>
</linearGradient>
<linearGradient id="paint8_linear_48_86" x1="29.315" y1="791.793" x2="174.609" y2="68.5907" gradientUnits="userSpaceOnUse">
<stop stop-color="#272C4F"/>
<stop offset="1" stop-color="#8B98F8" stop-opacity="0.56"/>
</linearGradient>
<linearGradient id="paint9_linear_48_86" x1="46.5657" y1="795.777" x2="194.58" y2="59.0365" gradientUnits="userSpaceOnUse">
<stop stop-color="#272C4F"/>
<stop offset="1" stop-color="#8B98F8" stop-opacity="0.56"/>
</linearGradient>
<linearGradient id="paint10_linear_48_86" x1="63.5598" y1="800.033" x2="213.925" y2="51.591" gradientUnits="userSpaceOnUse">
<stop stop-color="#272C4F"/>
<stop offset="1" stop-color="#8B98F8" stop-opacity="0.56"/>
</linearGradient>
<linearGradient id="paint11_linear_48_86" x1="77.1711" y1="803.253" x2="229.212" y2="46.4708" gradientUnits="userSpaceOnUse">
<stop stop-color="#272C4F"/>
<stop offset="1" stop-color="#8B98F8" stop-opacity="0.56"/>
</linearGradient>
<linearGradient id="paint12_linear_48_86" x1="90.3501" y1="806.419" x2="243.329" y2="44.9682" gradientUnits="userSpaceOnUse">
<stop stop-color="#272C4F"/>
<stop offset="1" stop-color="#8B98F8" stop-opacity="0.56"/>
</linearGradient>
<linearGradient id="paint13_linear_48_86" x1="103.341" y1="808.673" x2="256.351" y2="47.0664" gradientUnits="userSpaceOnUse">
<stop stop-color="#272C4F"/>
<stop offset="1" stop-color="#8B98F8" stop-opacity="0.56"/>
</linearGradient>
<linearGradient id="paint14_linear_48_86" x1="116" y1="810.147" x2="268.803" y2="49.568" gradientUnits="userSpaceOnUse">
<stop stop-color="#272C4F"/>
<stop offset="1" stop-color="#8B98F8" stop-opacity="0.56"/>
</linearGradient>
<linearGradient id="paint15_linear_48_86" x1="128.636" y1="811.391" x2="281.176" y2="52.1183" gradientUnits="userSpaceOnUse">
<stop stop-color="#272C4F"/>
<stop offset="1" stop-color="#8B98F8" stop-opacity="0.56"/>
</linearGradient>
<linearGradient id="paint16_linear_48_86" x1="141.028" y1="811.97" x2="293.175" y2="54.6587" gradientUnits="userSpaceOnUse">
<stop stop-color="#272C4F"/>
<stop offset="1" stop-color="#8B98F8" stop-opacity="0.56"/>
</linearGradient>
<linearGradient id="paint17_linear_48_86" x1="153.4" y1="811.801" x2="305.003" y2="57.1968" gradientUnits="userSpaceOnUse">
<stop stop-color="#272C4F"/>
<stop offset="1" stop-color="#8B98F8" stop-opacity="0.56"/>
</linearGradient>
<linearGradient id="paint18_linear_48_86" x1="162.524" y1="811.109" x2="313.602" y2="59.1189" gradientUnits="userSpaceOnUse">
<stop stop-color="#272C4F"/>
<stop offset="1" stop-color="#8B98F8" stop-opacity="0.56"/>
</linearGradient>
<linearGradient id="paint19_linear_48_86" x1="174.735" y1="810.842" x2="325.244" y2="61.684" gradientUnits="userSpaceOnUse">
<stop stop-color="#272C4F"/>
<stop offset="1" stop-color="#8B98F8" stop-opacity="0.56"/>
</linearGradient>
<linearGradient id="paint20_linear_48_86" x1="187.047" y1="810.563" x2="337.068" y2="63.8328" gradientUnits="userSpaceOnUse">
<stop stop-color="#272C4F"/>
<stop offset="1" stop-color="#8B98F8" stop-opacity="0.56"/>
</linearGradient>
<linearGradient id="paint21_linear_48_86" x1="199.589" y1="810.59" x2="349.16" y2="66.1006" gradientUnits="userSpaceOnUse">
<stop stop-color="#272C4F"/>
<stop offset="1" stop-color="#8B98F8" stop-opacity="0.56"/>
</linearGradient>
<linearGradient id="paint22_linear_48_86" x1="212.031" y1="810.953" x2="361.214" y2="68.393" gradientUnits="userSpaceOnUse">
<stop stop-color="#272C4F"/>
<stop offset="1" stop-color="#8B98F8" stop-opacity="0.56"/>
</linearGradient>
<linearGradient id="paint23_linear_48_86" x1="224.48" y1="811.608" x2="373.326" y2="70.7285" gradientUnits="userSpaceOnUse">
<stop stop-color="#272C4F"/>
<stop offset="1" stop-color="#8B98F8" stop-opacity="0.56"/>
</linearGradient>
<linearGradient id="paint24_linear_48_86" x1="237.188" y1="813.093" x2="385.834" y2="73.2095" gradientUnits="userSpaceOnUse">
<stop stop-color="#272C4F"/>
<stop offset="1" stop-color="#8B98F8" stop-opacity="0.56"/>
</linearGradient>
<linearGradient id="paint25_linear_48_86" x1="250.01" y1="815.216" x2="398.562" y2="75.799" gradientUnits="userSpaceOnUse">
<stop stop-color="#272C4F"/>
<stop offset="1" stop-color="#8B98F8" stop-opacity="0.56"/>
</linearGradient>
<linearGradient id="paint26_linear_48_86" x1="262.435" y1="817.129" x2="410.205" y2="81.6023" gradientUnits="userSpaceOnUse">
<stop stop-color="#272C4F"/>
<stop offset="1" stop-color="#8B98F8" stop-opacity="0.56"/>
</linearGradient>
<linearGradient id="paint27_linear_48_86" x1="273.398" y1="817.195" x2="418.911" y2="92.9031" gradientUnits="userSpaceOnUse">
<stop stop-color="#272C4F"/>
<stop offset="1" stop-color="#8B98F8" stop-opacity="0.56"/>
</linearGradient>
<linearGradient id="paint28_linear_48_86" x1="283.432" y1="816.199" x2="425.562" y2="108.745" gradientUnits="userSpaceOnUse">
<stop stop-color="#272C4F"/>
<stop offset="1" stop-color="#8B98F8" stop-opacity="0.56"/>
</linearGradient>
<linearGradient id="paint29_linear_48_86" x1="293.86" y1="814.085" x2="431.645" y2="128.26" gradientUnits="userSpaceOnUse">
<stop stop-color="#272C4F"/>
<stop offset="1" stop-color="#8B98F8" stop-opacity="0.56"/>
</linearGradient>
<linearGradient id="paint30_linear_48_86" x1="303.677" y1="811.558" x2="436.554" y2="150.162" gradientUnits="userSpaceOnUse">
<stop stop-color="#272C4F"/>
<stop offset="1" stop-color="#8B98F8" stop-opacity="0.56"/>
</linearGradient>
<linearGradient id="paint31_linear_48_86" x1="308.52" y1="807.512" x2="436.108" y2="172.446" gradientUnits="userSpaceOnUse">
<stop stop-color="#272C4F"/>
<stop offset="1" stop-color="#8B98F8" stop-opacity="0.56"/>
</linearGradient>
<linearGradient id="paint32_linear_48_86" x1="312.179" y1="803.455" x2="434.452" y2="194.842" gradientUnits="userSpaceOnUse">
<stop stop-color="#272C4F"/>
<stop offset="1" stop-color="#8B98F8" stop-opacity="0.56"/>
</linearGradient>
<linearGradient id="paint33_linear_48_86" x1="315.549" y1="799.373" x2="432.682" y2="216.342" gradientUnits="userSpaceOnUse">
<stop stop-color="#272C4F"/>
<stop offset="1" stop-color="#8B98F8" stop-opacity="0.56"/>
</linearGradient>
<linearGradient id="paint34_linear_48_86" x1="323.252" y1="796.614" x2="435.671" y2="237.049" gradientUnits="userSpaceOnUse">
<stop stop-color="#272C4F"/>
<stop offset="1" stop-color="#8B98F8" stop-opacity="0.56"/>
</linearGradient>
<linearGradient id="paint35_linear_48_86" x1="331.296" y1="794.539" x2="439.776" y2="254.58" gradientUnits="userSpaceOnUse">
<stop stop-color="#272C4F"/>
<stop offset="1" stop-color="#8B98F8" stop-opacity="0.56"/>
</linearGradient>
<linearGradient id="paint36_linear_48_86" x1="341.088" y1="793.689" x2="446.63" y2="268.357" gradientUnits="userSpaceOnUse">
<stop stop-color="#272C4F"/>
<stop offset="1" stop-color="#8B98F8" stop-opacity="0.56"/>
</linearGradient>
<linearGradient id="paint37_linear_48_86" x1="351.598" y1="794.506" x2="455.544" y2="277.11" gradientUnits="userSpaceOnUse">
<stop stop-color="#272C4F"/>
<stop offset="1" stop-color="#8B98F8" stop-opacity="0.56"/>
</linearGradient>
<linearGradient id="paint38_linear_48_86" x1="364.051" y1="796.813" x2="467.817" y2="280.32" gradientUnits="userSpaceOnUse">
<stop stop-color="#272C4F"/>
<stop offset="1" stop-color="#8B98F8" stop-opacity="0.56"/>
</linearGradient>
<linearGradient id="paint39_linear_48_86" x1="376.67" y1="800.838" x2="481.261" y2="280.236" gradientUnits="userSpaceOnUse">
<stop stop-color="#272C4F"/>
<stop offset="1" stop-color="#8B98F8" stop-opacity="0.56"/>
</linearGradient>
<linearGradient id="paint40_linear_48_86" x1="388.74" y1="805.594" x2="494.788" y2="277.742" gradientUnits="userSpaceOnUse">
<stop stop-color="#272C4F"/>
<stop offset="1" stop-color="#8B98F8" stop-opacity="0.56"/>
</linearGradient>
<linearGradient id="paint41_linear_48_86" x1="400.587" y1="811.374" x2="508.667" y2="273.407" gradientUnits="userSpaceOnUse">
<stop stop-color="#272C4F"/>
<stop offset="1" stop-color="#8B98F8" stop-opacity="0.56"/>
</linearGradient>
<linearGradient id="paint42_linear_48_86" x1="411.793" y1="817.705" x2="522.299" y2="267.662" gradientUnits="userSpaceOnUse">
<stop stop-color="#272C4F"/>
<stop offset="1" stop-color="#8B98F8" stop-opacity="0.56"/>
</linearGradient>
<linearGradient id="paint43_linear_48_86" x1="423.173" y1="824.848" x2="536.436" y2="261.081" gradientUnits="userSpaceOnUse">
<stop stop-color="#272C4F"/>
<stop offset="1" stop-color="#8B98F8" stop-opacity="0.56"/>
</linearGradient>
<linearGradient id="paint44_linear_48_86" x1="440.294" y1="833.306" x2="556.502" y2="254.881" gradientUnits="userSpaceOnUse">
<stop stop-color="#272C4F"/>
<stop offset="1" stop-color="#8B98F8" stop-opacity="0.56"/>
</linearGradient>
<linearGradient id="paint45_linear_48_86" x1="459.584" y1="842.167" x2="578.624" y2="249.644" gradientUnits="userSpaceOnUse">
<stop stop-color="#272C4F"/>
<stop offset="1" stop-color="#8B98F8" stop-opacity="0.56"/>
</linearGradient>
<linearGradient id="paint46_linear_48_86" x1="471.889" y1="849.302" x2="593.599" y2="243.49" gradientUnits="userSpaceOnUse">
<stop stop-color="#272C4F"/>
<stop offset="1" stop-color="#8B98F8" stop-opacity="0.56"/>
</linearGradient>
<linearGradient id="paint47_linear_48_86" x1="481.678" y1="855.316" x2="605.764" y2="237.678" gradientUnits="userSpaceOnUse">
<stop stop-color="#272C4F"/>
<stop offset="1" stop-color="#8B98F8" stop-opacity="0.56"/>
</linearGradient>
<linearGradient id="paint48_linear_48_86" x1="491.292" y1="860.679" x2="617.303" y2="233.455" gradientUnits="userSpaceOnUse">
<stop stop-color="#272C4F"/>
<stop offset="1" stop-color="#8B98F8" stop-opacity="0.56"/>
</linearGradient>
<linearGradient id="paint49_linear_48_86" x1="502.347" y1="864.972" x2="629.61" y2="231.524" gradientUnits="userSpaceOnUse">
<stop stop-color="#272C4F"/>
<stop offset="1" stop-color="#8B98F8" stop-opacity="0.56"/>
</linearGradient>
<linearGradient id="paint50_linear_48_86" x1="514.102" y1="868.338" x2="641.896" y2="232.245" gradientUnits="userSpaceOnUse">
<stop stop-color="#272C4F"/>
<stop offset="1" stop-color="#8B98F8" stop-opacity="0.56"/>
</linearGradient>
</defs>
</svg>
