<svg width="713" height="841" viewBox="0 0 713 841" fill="none" xmlns="http://www.w3.org/2000/svg">
<path d="M310.249 206.446C312.784 205.533 317.551 204.112 320.897 203.301C324.954 202.388 330.43 202.083 337.123 202.388C342.701 202.591 350.814 203.707 355.074 204.924C359.434 206.04 365.823 208.069 369.271 209.489C372.821 210.909 383.875 216.692 393.915 222.474C403.955 228.257 418.355 236.677 425.86 241.141C433.364 245.604 442.39 250.778 445.838 252.706C449.388 254.633 452.329 256.662 452.633 257.169C452.836 257.778 448.475 266.198 442.897 275.937C437.32 285.676 426.773 304.038 419.369 316.821C412.068 329.502 405.476 340.052 404.766 340.356C404.158 340.661 397.971 337.719 391.075 333.864C384.281 329.907 376.979 326.052 374.849 325.241C372.821 324.328 368.359 323.618 365.012 323.618C361.665 323.618 357.71 324.226 356.088 325.038C354.566 325.849 352.335 327.574 351.118 328.893C350.003 330.11 338.138 349.994 324.852 372.82C311.669 395.747 292.907 428.109 283.273 444.847C273.639 461.586 265.019 476.296 263.903 477.412C262.788 478.832 251.531 483.499 232.972 490.397C216.848 496.281 203.36 501.151 202.751 501.151C202.143 501.151 201.534 501.658 201.23 502.165C200.926 502.672 203.258 516.875 206.301 533.614C209.343 550.353 211.878 565.063 211.878 566.382C211.878 567.599 208.633 574.092 204.678 580.787C200.723 587.483 192.914 601.178 187.235 611.221C181.657 621.265 166.445 647.742 153.566 670.061C140.585 692.379 129.328 712.06 128.517 713.683C127.604 715.408 126.59 718.147 126.286 719.77C125.88 721.495 125.981 724.64 126.59 726.871C127.097 729.103 129.328 732.958 131.458 735.393C133.993 738.234 140.179 742.596 149.509 748.074C160.158 754.364 163.707 756.9 163.707 758.422C163.606 759.436 153.16 778.508 140.382 800.624C126.083 825.276 116.449 840.898 115.536 841C114.725 841 97.7885 831.565 78.013 820.102C58.2374 808.537 39.0704 796.972 35.4195 794.334C31.7686 791.696 24.9739 785.407 20.3089 780.537C14.1227 773.842 10.7761 769.277 7.53088 762.885C5.19838 758.117 2.46022 750.61 1.44609 746.147C0.0263079 739.958 -0.277931 735.495 0.229134 727.379C0.533373 719.872 1.5475 714.191 3.47435 708.104C4.99555 703.336 8.03794 695.829 10.269 691.365C12.5001 686.901 17.6722 677.568 21.6273 670.568C25.6838 663.568 30.7545 654.742 32.8842 650.786C35.0138 646.931 43.3297 632.322 51.4427 618.323C59.5558 604.424 73.5508 580.178 82.5766 564.555C91.6023 548.933 101.845 531.382 111.682 514.846L111.074 492.528C110.668 480.253 110.161 465.441 109.147 448.905L130.849 437.34C142.816 430.949 155.898 424.051 159.955 421.819C166.952 418.065 167.459 417.659 172.733 408.631C175.674 403.457 186.322 385.095 196.159 367.747C206.098 350.501 216.036 333.154 218.267 329.197C220.498 325.241 228.916 310.734 237.029 296.734C245.142 282.836 255.689 264.778 260.455 256.662C265.222 248.546 271.712 238.503 274.856 234.344C278 230.184 283.273 224.3 286.518 221.358C289.764 218.315 295.443 214.156 299.094 212.025C302.744 209.793 307.714 207.359 310.249 206.446Z" fill="#C687FF"/>
<path d="M569.866 44.6369C581.63 24.246 592.38 5.88396 593.8 3.85501C595.118 1.72461 596.741 0 597.248 0C597.856 0 614.082 9.23173 633.452 20.391C652.924 31.6516 671.482 42.7094 674.829 44.9413C678.176 47.2746 684.565 52.7527 689.128 57.3179C693.59 61.7815 699.067 68.1727 701.196 71.5205C703.427 74.8683 706.47 80.9551 707.991 85.013C709.512 88.9695 711.338 95.665 711.946 99.6215C712.555 103.679 712.859 110.679 712.453 115.143C712.149 119.607 710.932 126.708 709.715 130.867C708.599 135.027 705.963 142.128 703.833 146.592C701.805 151.055 696.633 160.591 692.475 167.896C688.215 175.098 682.841 184.736 680.407 189.2C678.207 193.409 667.529 211.875 656.283 231.322L654.242 234.851C642.275 255.546 625.948 283.546 618.038 297.241C610.127 310.937 602.927 323.516 602.116 325.139C600.797 327.777 600.696 332.545 601.507 360.139C601.913 377.689 602.116 392.703 601.811 393.312C601.507 394.022 597.552 396.66 592.887 399.095C588.324 401.529 575.647 408.123 545.02 423.848L523.825 460.673C512.264 480.963 492.691 514.948 480.42 536.15C468.048 557.353 454.154 581.091 449.489 588.903C444.824 596.714 438.536 606.048 435.595 609.7C432.756 613.352 427.381 618.83 423.73 621.873C420.079 624.917 413.893 629.178 410.039 631.207C406.186 633.236 399.391 635.873 394.929 636.989C389.858 638.308 383.672 639.119 378.398 639.119C373.835 639.119 367.04 638.409 363.186 637.598C359.434 636.786 353.248 635.062 349.293 633.743C345.338 632.424 338.746 629.583 334.588 627.453C330.43 625.323 314.407 616.192 299.093 607.164C283.78 598.135 268.872 589.613 266.134 588.193C263.295 586.773 260.759 585.048 260.455 584.236C260.049 583.425 265.323 572.976 273.334 558.976C280.839 545.889 291.386 527.426 296.761 517.991C302.237 508.556 307.308 500.644 307.916 500.542C308.626 500.339 313.9 502.875 319.579 506.122C325.359 509.47 332.763 513.426 336.109 514.948C340.368 516.875 343.918 517.788 347.772 517.788C351.524 517.788 354.465 517.078 356.899 515.759C358.826 514.643 361.767 511.904 363.288 509.672C364.91 507.542 375.863 489.079 387.627 468.688C399.119 448.595 417.307 417.173 447.334 365.3L448.678 362.979L479.609 351.82C496.646 345.733 510.641 340.661 510.641 340.559C510.742 340.458 508.41 325.748 505.368 307.893C502.427 290.039 500.196 274.517 500.601 273.401C500.905 272.285 504.455 265.894 508.511 259.198C512.467 252.503 518.754 241.749 522.405 235.358C526.056 228.967 532.343 217.706 536.4 210.504C540.457 203.301 552.728 181.997 563.579 163.331C574.531 144.664 583.963 127.824 584.774 126.099C585.484 124.273 586.092 120.621 586.092 117.882C586.092 114.331 585.383 111.897 583.05 108.346C580.92 104.897 577.777 102.056 572.604 98.8099C568.649 96.2737 561.652 92.0129 557.19 89.4767C552.728 86.8391 548.975 83.9986 548.772 83.187C548.57 82.3754 558.102 65.0279 569.866 44.6369Z" fill="#C687FF"/>
</svg>
