<svg width="4104" height="849" viewBox="0 0 4104 849" fill="none" xmlns="http://www.w3.org/2000/svg">
<g filter="url(#filter0_d_1_11)">
<path d="M314.249 206.446C316.784 205.533 321.551 204.112 324.897 203.301C328.954 202.388 334.43 202.083 341.123 202.388C346.701 202.591 354.814 203.707 359.074 204.924C363.434 206.04 369.823 208.069 373.271 209.489C376.821 210.909 387.875 216.692 397.915 222.474C407.955 228.257 422.355 236.677 429.86 241.141C437.364 245.604 446.39 250.778 449.838 252.706C453.388 254.633 456.329 256.662 456.633 257.169C456.836 257.778 452.475 266.198 446.897 275.937C441.32 285.676 430.773 304.038 423.369 316.821C416.068 329.502 409.476 340.052 408.766 340.356C408.158 340.661 401.971 337.719 395.075 333.864C388.281 329.907 380.979 326.052 378.849 325.241C376.821 324.328 372.359 323.618 369.012 323.618C365.665 323.618 361.71 324.226 360.088 325.038C358.566 325.849 356.335 327.574 355.118 328.893C354.003 330.11 342.138 349.994 328.852 372.82C315.669 395.747 296.907 428.109 287.273 444.847C277.639 461.586 269.019 476.296 267.903 477.412C266.788 478.832 255.531 483.499 236.972 490.397C220.848 496.281 207.36 501.151 206.751 501.151C206.143 501.151 205.534 501.658 205.23 502.165C204.926 502.672 207.258 516.875 210.301 533.614C213.343 550.353 215.878 565.063 215.878 566.382C215.878 567.599 212.633 574.092 208.678 580.787C204.723 587.483 196.914 601.178 191.235 611.221C185.657 621.265 170.445 647.742 157.566 670.061C144.585 692.379 133.328 712.06 132.517 713.683C131.604 715.408 130.59 718.147 130.286 719.77C129.88 721.495 129.981 724.64 130.59 726.871C131.097 729.103 133.328 732.958 135.458 735.393C137.993 738.234 144.179 742.596 153.509 748.074C164.158 754.364 167.707 756.9 167.707 758.422C167.606 759.436 157.16 778.508 144.382 800.624C130.083 825.276 120.449 840.898 119.536 841C118.725 841 101.789 831.565 82.013 820.102C62.2374 808.537 43.0704 796.972 39.4195 794.334C35.7686 791.696 28.9739 785.407 24.3089 780.537C18.1227 773.842 14.7761 769.277 11.5309 762.885C9.19838 758.117 6.46022 750.61 5.44609 746.147C4.02631 739.958 3.72207 735.495 4.22913 727.379C4.53337 719.872 5.5475 714.191 7.47435 708.104C8.99555 703.336 12.0379 695.829 14.269 691.365C16.5001 686.901 21.6722 677.568 25.6273 670.568C29.6838 663.568 34.7545 654.742 36.8842 650.786C39.0138 646.931 47.3297 632.322 55.4427 618.323C63.5558 604.424 77.5508 580.178 86.5766 564.555C95.6023 548.933 105.845 531.382 115.682 514.846L115.074 492.528C114.668 480.253 114.161 465.441 113.147 448.905L134.849 437.34C146.816 430.949 159.898 424.051 163.955 421.819C170.952 418.065 171.459 417.659 176.733 408.631C179.674 403.457 190.322 385.095 200.159 367.747C210.098 350.501 220.036 333.154 222.267 329.197C224.498 325.241 232.916 310.734 241.029 296.734C249.142 282.836 259.689 264.778 264.455 256.662C269.222 248.546 275.712 238.503 278.856 234.344C282 230.184 287.273 224.3 290.518 221.358C293.764 218.315 299.443 214.156 303.094 212.025C306.744 209.793 311.714 207.359 314.249 206.446Z" fill="#C687FF"/>
<path d="M3892.1 328.183C3897.38 327.27 3906.1 326.154 3911.37 325.748C3916.64 325.241 3925.97 324.835 3932.16 324.734C3938.35 324.734 3948.59 325.139 3954.98 325.647C3961.37 326.154 3969.89 327.168 3973.74 327.777C3977.59 328.386 3985.4 330.009 3990.98 331.429C3996.56 332.748 4005.28 335.487 4010.25 337.414C4015.22 339.342 4022.32 342.588 4025.97 344.617C4029.62 346.545 4035.3 350.095 4038.64 352.53C4041.99 354.863 4047.47 359.327 4050.81 362.371C4054.16 365.414 4059.54 371.298 4062.68 375.457C4065.82 379.617 4070.29 386.414 4072.52 390.573C4074.75 394.732 4078.2 402.95 4080.12 408.834C4082.05 414.717 4084.38 423.543 4085.19 428.616C4086 433.688 4087.12 441.5 4088.34 454.485H3999.6V452.152C3999.6 450.934 3998.89 447.181 3997.98 443.833C3997.07 440.485 3994.94 434.804 3993.21 431.253C3991.18 427.196 3987.74 422.63 3983.88 418.978C3980.54 415.833 3975.97 412.283 3973.74 411.167C3971.51 409.949 3966.44 408.022 3962.59 406.805C3956.8 404.877 3952.44 404.37 3938.75 404.065C3925.77 403.66 3920.3 403.964 3914.41 405.181C3910.26 406.094 3904.17 408.123 3900.82 409.645C3897.48 411.167 3893.02 414.312 3890.58 416.949C3888.05 419.79 3885.71 423.645 3884.5 427.094C3883.18 431.152 3882.87 434.398 3883.18 439.268C3883.48 442.92 3884.6 447.485 3885.51 449.413C3886.53 451.34 3888.35 454.485 3889.67 456.21C3890.99 458.036 3894.23 460.978 3896.87 462.804C3899.61 464.528 3904.27 467.064 3907.31 468.282C3910.36 469.499 3933.18 474.876 3958.02 480.253C3982.87 485.528 4009.03 491.818 4016.33 494.151C4023.64 496.484 4033.68 500.238 4038.64 502.571C4043.61 504.904 4051.73 509.469 4056.6 512.614C4061.56 515.759 4068.87 521.745 4073.02 525.701C4077.08 529.759 4082.56 536.252 4085.09 540.208C4087.53 544.165 4090.77 550.048 4092.19 553.396C4093.51 556.744 4095.44 562.019 4096.25 565.063C4097.16 568.106 4098.28 574.193 4098.88 578.454C4099.49 582.816 4100 590.12 4100 594.685C4100 599.352 4099.29 607.468 4098.48 612.743C4097.67 618.018 4096.35 624.409 4095.54 626.946C4094.83 629.482 4092.9 634.453 4091.38 638.105C4089.86 641.757 4086.11 648.554 4083.06 653.322C4079.92 658.09 4073.73 665.597 4069.17 670.061C4064.61 674.525 4057.71 680.307 4053.86 682.945C4049.9 685.481 4043.31 689.437 4039.15 691.669C4034.99 693.901 4027.19 697.35 4021.91 699.278C4016.64 701.307 4007.71 704.046 4002.14 705.568C3996.56 706.988 3986.52 709.118 3979.83 710.133C3973.13 711.249 3959.64 712.669 3949.91 713.278C3936.62 714.191 3927.7 714.089 3914.41 713.278C3904.68 712.567 3891.9 711.249 3886.02 710.234C3880.14 709.22 3871.01 707.191 3865.74 705.77C3860.46 704.35 3851.54 701.307 3845.96 698.973C3840.38 696.742 3832.57 692.988 3828.72 690.655C3824.87 688.321 3819.09 684.568 3816.04 682.336C3813 680.104 3807.32 675.032 3803.57 671.075C3799.72 667.22 3794.04 660.119 3790.89 655.351C3787.75 650.583 3783.49 642.873 3781.46 638.105C3779.43 633.337 3776.59 624.714 3775.07 618.83C3773.65 612.946 3772.03 603.41 3771.42 597.526C3770.91 591.642 3770.41 586.062 3770.41 585.048C3770.41 583.425 3773.35 583.323 3864.72 583.323L3865.13 585.555C3865.43 586.874 3866.14 590.425 3866.85 593.468C3867.46 596.511 3869.39 601.99 3871.11 605.642C3873.04 609.801 3876.28 614.366 3879.83 617.815C3882.98 620.96 3888.25 624.917 3891.6 626.641C3894.94 628.366 3901.13 630.801 3905.29 632.018C3911.17 633.743 3916.64 634.351 3929.12 634.757C3942.91 635.163 3946.87 634.96 3955.49 633.134C3961.06 632.018 3968.37 629.685 3971.71 628.062C3975.06 626.438 3980.03 622.888 3982.66 620.149C3985.71 617.004 3988.24 613.25 3989.56 609.7C3990.88 606.352 3991.69 601.482 3991.79 597.526C3991.79 593.874 3991.28 589.106 3990.47 586.874C3989.76 584.642 3987.94 581.091 3986.52 579.062C3985.1 577.034 3981.35 573.686 3978.3 571.657C3975.26 569.729 3969.99 567.193 3966.64 566.077C3963.29 564.961 3943.93 560.599 3923.54 556.44C3903.16 552.179 3883.79 548.02 3880.44 547.208C3877.09 546.396 3869.99 544.266 3864.72 542.541C3859.45 540.817 3850.12 537.063 3843.93 534.223C3837.75 531.281 3829.23 526.513 3824.87 523.672C3820.61 520.73 3813.71 515.049 3809.65 510.991C3805.6 507.035 3800.43 500.948 3798.09 497.6C3795.86 494.252 3792.62 488.673 3790.79 485.122C3789.07 481.673 3786.53 475.079 3785.21 470.412C3783.9 465.847 3782.17 457.021 3781.46 450.934C3780.55 442.413 3780.55 437.137 3781.46 428.616C3782.07 422.529 3783.49 414.007 3784.71 409.848C3785.82 405.689 3788.56 398.384 3790.79 393.616C3793.02 388.848 3796.88 382.254 3799.31 378.906C3801.64 375.559 3807.22 369.37 3811.58 365.11C3816.04 360.849 3823.45 354.863 3828.21 351.82C3832.98 348.675 3839.06 345.023 3841.9 343.603C3844.64 342.284 3851.33 339.545 3856.61 337.516C3861.88 335.588 3869.89 333.052 3874.36 331.835C3878.82 330.719 3886.83 329.096 3892.1 328.183Z" fill="black"/>
<path d="M573.867 44.6369C585.63 24.246 596.38 5.88396 597.8 3.85501C599.118 1.72461 600.741 0 601.248 0C601.857 0 618.083 9.23173 637.453 20.391C656.924 31.6516 675.482 42.7094 678.829 44.9413C682.176 47.2746 688.565 52.7527 693.128 57.3179C697.591 61.7815 703.067 68.1727 705.197 71.5205C707.428 74.8683 710.47 80.9551 711.991 85.013C713.512 88.9695 715.338 95.665 715.946 99.6215C716.555 103.679 716.859 110.679 716.453 115.143C716.149 119.607 714.932 126.708 713.715 130.867C712.6 135.027 709.963 142.128 707.833 146.592C705.805 151.055 700.633 160.591 696.475 167.896C692.216 175.098 686.841 184.736 684.407 189.2C682.207 193.409 671.529 211.875 660.283 231.322L658.242 234.851C646.276 255.546 629.948 283.546 622.038 297.241C614.128 310.937 606.927 323.516 606.116 325.139C604.798 327.777 604.696 332.545 605.507 360.139C605.913 377.689 606.116 392.703 605.812 393.312C605.507 394.022 601.552 396.66 596.887 399.095C592.324 401.529 579.647 408.123 549.02 423.848L527.825 460.673C516.264 480.963 496.691 514.948 484.42 536.15C472.048 557.353 458.154 581.091 453.489 588.903C448.824 596.714 442.537 606.048 439.596 609.7C436.756 613.352 431.381 618.83 427.73 621.873C424.079 624.917 417.893 629.178 414.04 631.207C410.186 633.236 403.391 635.873 398.929 636.989C393.858 638.308 387.672 639.119 382.399 639.119C377.835 639.119 371.04 638.409 367.187 637.598C363.434 636.786 357.248 635.062 353.293 633.743C349.338 632.424 342.746 629.583 338.588 627.453C334.43 625.323 318.407 616.192 303.094 607.164C287.78 598.135 272.873 589.613 270.134 588.193C267.295 586.773 264.759 585.048 264.455 584.236C264.05 583.425 269.323 572.976 277.335 558.976C284.839 545.889 295.386 527.426 300.761 517.991C306.237 508.556 311.308 500.644 311.917 500.542C312.626 500.339 317.9 502.875 323.579 506.122C329.36 509.47 336.763 513.426 340.109 514.948C344.369 516.875 347.918 517.788 351.772 517.788C355.524 517.788 358.465 517.078 360.899 515.759C362.826 514.643 365.767 511.904 367.288 509.672C368.911 507.542 379.863 489.079 391.627 468.688C403.119 448.595 421.308 417.173 451.334 365.3L452.678 362.979L483.609 351.82C500.646 345.733 514.641 340.661 514.641 340.559C514.743 340.458 512.41 325.748 509.368 307.893C506.427 290.039 504.196 274.517 504.601 273.401C504.906 272.285 508.455 265.894 512.512 259.198C516.467 252.503 522.754 241.749 526.405 235.358C530.056 228.967 536.344 217.706 540.4 210.504C544.457 203.301 556.728 181.997 567.579 163.331C578.532 144.664 587.963 127.824 588.774 126.099C589.484 124.273 590.093 120.621 590.093 117.882C590.093 114.331 589.383 111.897 587.05 108.346C584.921 104.897 581.777 102.056 576.605 98.8099C572.65 96.2737 565.652 92.0129 561.19 89.4767C556.728 86.8391 552.975 83.9986 552.773 83.187C552.57 82.3754 562.103 65.0279 573.867 44.6369Z" fill="#C687FF"/>
<path fill-rule="evenodd" clip-rule="evenodd" d="M896.36 202.895H1032.25L1038.44 219.938C1041.89 229.271 1052.03 257.169 1061.16 282.024C1070.28 306.879 1087.12 352.733 1098.68 383.979C1110.24 415.225 1127.58 462.499 1137.32 488.977C1147.15 515.455 1156.79 541.628 1158.82 547.106C1160.85 552.585 1163.08 556.845 1163.58 556.643C1164.09 556.44 1171.09 538.686 1179.1 517.281C1187.01 495.875 1202.42 454.079 1213.38 424.558C1224.33 395.037 1242.89 345.023 1254.55 313.473C1266.21 281.923 1280.21 244.184 1295.42 202.895H1431.82L1431.31 706.582H1323.82L1323.61 547.512C1323.31 401.631 1323.21 388.544 1321.69 388.848C1320.47 388.95 1317.22 396.66 1310.63 414.92C1305.46 429.123 1287.31 478.731 1270.27 524.991C1253.23 571.251 1232.14 628.873 1223.42 652.815C1214.59 676.756 1206.58 698.872 1203.64 707.089L1123.22 706.582L1106.59 661.438C1097.56 636.583 1079.61 587.28 1066.73 551.875C1053.96 516.469 1035.3 465.34 1025.36 438.253C1011.87 401.631 1006.8 388.95 1005.58 388.848C1003.96 388.544 1003.86 399.095 1003.35 706.582L896.36 707.089L896.36 202.895ZM2566.63 202.895H2675.15V612.743H2906.37L2905.86 706.582H2567.14L2566.63 202.895ZM3356.64 202.895H3461.1V292.169C3461.1 362.878 3461.4 381.443 3462.42 381.443C3463.02 381.443 3465.26 378.602 3467.18 375.153C3469.11 371.704 3474.38 365.11 3478.84 360.646C3483.31 356.081 3491.12 349.69 3496.09 346.443C3501.16 343.096 3509.07 338.733 3513.83 336.603C3518.6 334.574 3526.61 331.632 3531.58 330.212C3536.65 328.791 3546.18 326.864 3552.88 326.052C3561.29 324.936 3568.8 324.632 3577.22 325.038C3583.91 325.342 3593.54 326.255 3598.51 327.168C3603.58 327.98 3612.71 330.313 3618.79 332.241C3624.98 334.168 3634.72 338.023 3640.6 340.864C3646.48 343.806 3654.9 348.574 3659.36 351.617C3663.82 354.559 3670.82 359.936 3674.77 363.385C3678.83 366.936 3685.22 373.225 3688.87 377.385C3692.62 381.544 3698.51 389.356 3702.06 394.631C3705.5 399.906 3710.88 409.544 3714.02 415.935C3717.06 422.326 3721.22 432.369 3723.15 438.253C3725.08 444.137 3727.71 454.383 3729.13 461.079C3730.55 467.775 3732.28 477.615 3733.09 482.89C3733.9 488.876 3734.41 502.672 3734.41 519.411C3734.41 535.744 3733.9 549.846 3733.09 555.425C3732.38 560.498 3730.86 569.324 3729.74 575.207C3728.52 581.091 3725.79 591.541 3723.55 598.54C3721.32 605.54 3716.96 616.497 3713.92 622.888C3710.88 629.279 3705.4 639.119 3701.65 644.699C3697.9 650.38 3690.19 659.713 3684.21 665.902C3678.32 671.887 3669.7 679.8 3664.94 683.351C3660.17 686.901 3651.04 692.481 3644.66 695.829C3638.27 699.075 3629.14 703.234 3624.37 704.857C3619.61 706.481 3611.39 708.814 3606.12 709.93C3600.84 711.147 3591.21 712.567 3584.82 713.176C3578.43 713.785 3568.6 713.988 3563.02 713.683C3557.44 713.278 3548.52 712.162 3543.24 711.147C3537.97 710.133 3529.96 708.104 3525.49 706.683C3521.03 705.162 3513.33 701.915 3508.25 699.481C3503.29 696.944 3495.07 691.872 3490 688.017C3485.03 684.264 3478.03 677.669 3474.59 673.51C3471.04 669.452 3467.18 664.076 3465.97 661.641C3464.65 659.307 3463.02 657.38 3462.42 657.38C3461.4 657.38 3461 663.162 3460.59 706.582L3356.64 707.089V202.895ZM3513.83 418.065C3509.67 419.79 3502.58 423.543 3498.11 426.485C3493.65 429.529 3487.57 434.601 3484.52 437.848C3481.58 441.195 3477.73 445.862 3476.01 448.398C3474.28 450.934 3470.93 457.021 3468.5 462.093C3466.17 467.166 3463.13 475.586 3461.71 480.861C3460.39 486.137 3458.77 494.557 3458.16 499.629C3457.55 504.701 3457.04 513.527 3457.04 519.411C3457.04 525.295 3457.55 534.121 3458.16 539.194C3458.77 544.266 3460.39 552.686 3461.71 557.961C3463.13 563.237 3466.47 572.164 3469.11 577.744C3471.85 583.323 3476.72 591.236 3479.96 595.396C3483.31 599.555 3488.68 605.236 3492.03 607.975C3495.38 610.613 3502.68 615.076 3508.25 617.815C3513.83 620.555 3522.05 623.598 3526.51 624.612C3532.19 625.83 3538.37 626.337 3547.3 626.337C3556.63 626.236 3562.11 625.627 3568.09 624.004C3572.55 622.888 3580.36 619.844 3585.33 617.41C3590.4 614.975 3597.6 610.207 3601.45 606.961C3605.31 603.714 3610.99 597.932 3613.93 593.975C3616.87 590.12 3620.92 583.932 3622.75 580.28C3624.68 576.628 3627.41 570.237 3628.83 566.077C3630.25 561.918 3632.08 555.324 3632.99 551.367C3634.11 546.701 3634.82 537.165 3635.22 523.976C3635.63 507.846 3635.43 501.759 3634.11 494.049C3633.2 488.774 3631.27 480.557 3629.85 475.789C3628.33 471.021 3625.79 464.427 3624.17 461.079C3622.45 457.731 3619.4 452.557 3617.38 449.514C3615.35 446.471 3611.7 441.703 3609.16 438.963C3606.63 436.123 3602.06 431.964 3599.02 429.63C3595.98 427.196 3590.3 423.645 3586.34 421.717C3582.49 419.79 3576.3 417.254 3572.65 416.036C3569 414.92 3563.12 413.5 3559.47 412.891C3555.82 412.384 3549.43 411.978 3545.27 411.978C3541.11 411.978 3534.01 412.689 3529.55 413.5C3525.09 414.312 3517.99 416.442 3513.83 418.065V418.065ZM1934.83 235.358H2040.3V331.733H2114.33L2113.82 413.399L2040.3 413.906L2040.6 504.499C2040.81 594.381 2040.81 594.99 2043.04 601.584C2044.26 605.236 2046.79 610.207 2048.62 612.743C2050.54 615.279 2053.69 618.323 2055.61 619.641C2057.54 620.96 2061.6 622.989 2064.64 624.207C2069.81 626.236 2071.84 626.438 2117.37 626.438V665.293C2117.37 686.597 2117.07 704.249 2116.66 704.452C2116.16 704.756 2111.49 705.872 2106.22 706.988C2100.94 708.002 2092.02 709.524 2086.44 710.133C2080.87 710.843 2068.29 711.35 2058.55 711.35C2047.4 711.35 2036.65 710.64 2029.65 709.625C2023.57 708.712 2014.64 706.785 2009.88 705.365C2005.11 704.046 1998.52 701.713 1995.17 700.191C1991.82 698.771 1985.94 695.727 1982.19 693.394C1978.34 691.162 1971.95 686.292 1967.99 682.64C1963.94 678.988 1958.36 672.597 1955.42 668.438C1952.58 664.278 1948.52 657.279 1946.49 652.815C1944.46 648.351 1941.83 641.25 1940.71 637.09C1939.6 632.931 1937.97 625.83 1937.06 621.366C1935.84 614.569 1935.54 596.917 1934.83 413.906L1872.46 413.399L1871.95 331.733H1934.83V235.358ZM1681.3 325.241C1691.64 325.444 1704.62 326.357 1710.2 327.168C1715.78 328.081 1724.91 329.806 1730.48 331.226C1736.06 332.545 1744.28 334.98 1748.74 336.603C1753.2 338.226 1761.21 341.777 1766.48 344.414C1771.76 347.052 1780.28 352.023 1785.25 355.472C1790.32 358.82 1798.73 366.023 1804.01 371.298C1809.48 376.776 1816.48 385.095 1820.13 390.573C1823.68 395.848 1828.75 404.674 1831.49 410.152C1834.23 415.529 1838.18 425.167 1840.41 431.456C1842.54 437.645 1845.28 446.876 1846.4 451.949C1847.62 457.021 1849.24 465.644 1850.05 471.224C1850.96 476.803 1852.18 489.18 1852.79 498.615C1853.4 508.151 1853.6 520.426 1853.29 526.005C1852.89 531.585 1852.28 538.281 1851.16 545.788H1719.63C1614.97 545.788 1588 546.092 1588 547.106C1588 547.715 1588.71 552.382 1589.52 557.454C1590.33 562.527 1591.95 570.034 1593.07 574.193C1594.29 578.352 1597.23 585.859 1599.66 590.932C1602.09 596.004 1606.66 603.207 1610 607.062C1613.35 611.12 1619.13 616.395 1623.49 619.337C1627.65 622.178 1633.84 625.627 1637.18 626.844C1640.53 628.062 1645.8 629.786 1648.85 630.598C1651.89 631.409 1659.9 632.627 1666.59 633.235C1675.82 634.148 1681.7 634.148 1690.93 633.235C1697.63 632.627 1706.45 631.105 1710.5 629.989C1714.46 628.873 1720.44 626.641 1723.69 625.018C1726.83 623.395 1732 620.047 1735.05 617.613C1738.09 615.178 1742.75 610.004 1745.29 606.047C1747.93 602.192 1751.37 595.7 1755.84 584.338H1848.12L1847.41 588.396C1846.91 590.627 1844.98 597.323 1842.95 603.41C1840.92 609.395 1837.27 618.627 1834.74 623.902C1832.3 629.178 1827.33 637.902 1823.88 643.177C1820.33 648.453 1814.86 655.757 1811.71 659.409C1808.47 663.061 1802.59 668.945 1798.63 672.394C1794.58 675.945 1787.27 681.626 1782.2 684.974C1777.23 688.321 1769.02 693.089 1763.95 695.423C1758.98 697.858 1750.06 701.51 1744.17 703.437C1738.29 705.365 1727.85 708.104 1720.85 709.524C1713.85 710.944 1701.58 712.567 1693.47 713.278C1685.35 713.886 1673.49 714.089 1667.1 713.683C1660.71 713.379 1650.16 712.365 1643.77 711.553C1637.39 710.741 1627.35 708.814 1621.46 707.394C1615.58 705.973 1606.96 703.437 1602.2 701.814C1597.43 700.191 1589.01 696.539 1583.43 693.901C1577.86 691.162 1569.44 686.394 1564.67 683.148C1559.91 680.003 1552.5 674.423 1548.04 670.67C1543.68 667.017 1536.89 660.322 1533.03 655.858C1529.18 651.395 1523.09 643.38 1519.54 638.105C1515.99 632.83 1510.72 623.395 1507.78 617.308C1504.94 611.221 1501.09 601.584 1499.26 596.004C1497.44 590.425 1494.8 580.178 1493.38 573.179C1491.96 566.179 1490.24 555.019 1489.63 548.324C1488.82 540.31 1488.51 527.426 1488.92 510.281C1489.32 491.31 1490.03 481.47 1491.45 473.253C1492.57 467.166 1494.39 458.441 1495.51 453.978C1496.73 449.514 1499.06 441.804 1500.78 436.732C1502.61 431.659 1506.26 423.036 1508.9 417.457C1511.63 411.877 1516.7 402.95 1520.25 397.674C1523.7 392.399 1531 383.573 1536.28 377.993C1541.55 372.515 1550.07 364.907 1555.04 361.153C1560.11 357.4 1567.41 352.53 1571.26 350.298C1575.22 347.965 1581.1 344.922 1584.45 343.4C1587.79 341.878 1594.89 339.038 1600.17 337.11C1605.44 335.183 1614.36 332.545 1619.94 331.226C1625.52 329.907 1635.15 328.081 1641.24 327.27C1647.43 326.357 1654.73 325.444 1657.47 325.241C1660.31 325.038 1670.95 325.038 1681.3 325.241ZM1643.27 408.935C1639.41 410.051 1633.02 412.689 1629.17 414.717C1625.32 416.848 1619.13 421.21 1615.58 424.558C1611.93 427.906 1606.86 433.891 1604.22 437.746C1601.69 441.703 1598.14 448.297 1596.41 452.456C1594.69 456.615 1592.36 463.717 1591.24 468.18C1590.13 472.644 1588.91 478.021 1588.61 480.151L1588 483.905H1754.31C1753.4 474.064 1752.49 468.282 1751.68 464.63C1750.97 460.978 1749.45 455.296 1748.23 451.949C1747.11 448.601 1744.48 442.92 1742.45 439.268C1740.42 435.616 1735.55 429.427 1731.6 425.471C1726.22 420.196 1722.17 417.254 1715.78 414.109C1711.01 411.775 1703.51 408.935 1699.04 407.718C1693.37 406.297 1686.77 405.486 1676.73 405.283C1668.93 405.08 1659.8 405.283 1656.45 405.79C1653.1 406.399 1647.22 407.718 1643.27 408.935ZM2340.99 325.139C2353.87 325.342 2369.99 326.255 2376.99 327.168C2383.99 328.081 2394.03 329.704 2399.3 330.82C2404.58 331.936 2413.5 334.371 2419.08 336.197C2424.66 338.023 2432.16 341.067 2435.81 342.893C2439.46 344.719 2445.65 348.269 2449.5 350.806C2453.46 353.342 2459.64 358.414 2463.29 362.066C2466.94 365.718 2472.12 372.008 2474.65 375.863C2477.19 379.82 2480.64 386.211 2482.26 390.066C2483.98 394.022 2486.21 400.616 2487.33 404.776C2488.44 408.935 2489.97 416.239 2490.78 421.007C2491.79 427.906 2492.1 456.615 2492.1 706.582H2392.71L2392.51 673.409C2392.2 642.467 2392.1 640.134 2390.48 640.134C2389.26 640.134 2387.94 641.858 2386.42 645.409C2385.21 648.351 2381.25 655.148 2377.8 660.423C2374.35 665.699 2367.76 673.713 2363.3 678.177C2358.84 682.64 2351.33 688.93 2346.57 692.075C2341.8 695.22 2334.5 699.379 2330.34 701.307C2326.18 703.234 2318.88 705.973 2314.12 707.394C2309.35 708.915 2301.13 710.843 2295.86 711.756C2289.27 712.973 2280.85 713.48 2268.99 713.48C2257.63 713.48 2248.3 712.872 2241.6 711.756C2236.03 710.843 2226.9 708.712 2221.32 706.988C2215.74 705.263 2207.53 702.017 2203.07 699.785C2198.61 697.553 2192.01 693.597 2188.36 691.061C2184.71 688.423 2179.13 683.655 2175.99 680.51C2172.75 677.264 2167.98 671.278 2165.24 667.322C2162.6 663.264 2158.85 656.264 2157.03 651.8C2155.2 647.337 2152.67 639.627 2151.55 634.554C2149.83 627.047 2149.42 622.076 2149.42 607.163C2149.42 591.642 2149.72 587.584 2151.75 579.773C2152.97 574.7 2155.3 567.497 2156.93 563.541C2158.55 559.686 2162.1 553.295 2164.84 549.338C2167.57 545.483 2172.75 539.498 2176.29 536.049C2179.84 532.599 2186.23 527.629 2190.39 524.991C2194.55 522.252 2201.65 518.397 2206.11 516.368C2210.57 514.237 2218.58 511.194 2223.86 509.469C2229.13 507.643 2238.26 505.107 2244.14 503.788C2250.02 502.368 2260.26 500.339 2266.96 499.223C2273.65 498.107 2296.27 494.658 2317.16 491.513C2338.05 488.47 2358.94 485.021 2363.6 483.905C2368.17 482.789 2374.05 480.76 2376.79 479.441C2379.43 478.122 2382.57 475.89 2383.79 474.572C2385 473.354 2386.83 470.412 2387.74 468.18C2389.16 465.137 2389.57 461.282 2389.57 452.456C2389.57 444.543 2388.96 438.659 2387.74 434.195C2386.83 430.543 2384.8 425.369 2383.28 422.63C2381.76 419.891 2378.51 415.833 2375.98 413.602C2373.44 411.268 2368.68 408.123 2365.33 406.602C2361.98 405.08 2355.39 403.051 2350.62 402.138C2344.03 400.819 2338.35 400.616 2326.28 401.022C2313.81 401.428 2308.94 402.037 2302.45 403.863C2297.99 405.181 2291.7 407.92 2288.36 409.848C2285.11 411.775 2280.65 415.428 2278.42 417.964C2276.29 420.5 2273.35 424.862 2272.13 427.601C2270.81 430.442 2269.19 435.108 2268.58 438.05C2267.97 440.891 2267.47 446.166 2267.47 456.007L2241.4 456.818C2227 457.224 2204.79 457.528 2168.59 457.528L2169.2 438.05C2169.8 421.616 2170.31 416.848 2172.54 408.326C2173.96 402.747 2177.21 394.124 2179.54 389.051C2181.97 384.08 2186.84 376.37 2190.19 372.11C2193.64 367.747 2200.23 361.255 2204.89 357.603C2209.46 353.95 2217.57 348.675 2222.84 346.038C2228.12 343.298 2237.04 339.443 2242.62 337.516C2248.2 335.588 2256.92 333.052 2261.89 331.936C2266.96 330.719 2276.09 329.096 2282.17 328.183C2288.36 327.27 2298.8 326.154 2305.5 325.647C2312.19 325.139 2328.21 324.936 2340.99 325.139V325.139ZM2380.54 541.324C2377.8 542.44 2372.33 544.266 2368.37 545.179C2364.52 546.092 2344.54 549.744 2324.05 553.396C2299.92 557.657 2284.3 560.903 2279.94 562.628C2276.09 564.048 2271.22 566.483 2268.99 568.005C2266.76 569.526 2263.41 572.57 2261.58 574.802C2259.76 576.932 2257.32 581.294 2256.21 584.338C2254.69 588.396 2254.18 592.352 2254.18 598.54C2254.18 603.308 2254.79 608.989 2255.5 611.221C2256.31 613.453 2258.03 617.308 2259.45 619.844C2260.97 622.381 2263.92 625.83 2266.05 627.656C2268.28 629.38 2272.54 631.917 2275.58 633.337C2278.62 634.656 2283.18 636.279 2285.72 636.888C2288.25 637.496 2294.64 638.308 2299.92 638.714C2306.71 639.119 2312.8 638.815 2320.2 637.699C2326.08 636.786 2334.5 634.757 2338.96 633.235C2343.42 631.714 2350.73 628.366 2355.19 625.931C2360.6 622.888 2366.21 618.492 2372.02 612.743C2378.82 606.048 2381.56 602.395 2384.39 596.511C2386.42 592.352 2388.55 585.961 2389.06 582.309C2389.67 578.657 2390.18 566.889 2390.18 556.237C2390.18 539.802 2389.97 536.657 2388.76 536.657C2387.94 536.657 2386.83 537.165 2386.42 537.875C2386.02 538.585 2383.38 540.107 2380.54 541.324V541.324ZM3120.86 324.835C3128.67 324.734 3141.65 325.139 3149.76 325.647C3157.87 326.255 3170.14 327.676 3177.14 328.791C3184.14 329.907 3192.35 331.429 3195.4 332.241C3198.44 333.052 3204.62 334.878 3209.09 336.4C3213.55 337.922 3220.85 340.965 3225.31 343.197C3229.77 345.429 3235.96 348.979 3239 351.008C3242.05 353.139 3247.01 356.994 3250.06 359.733C3253.1 362.472 3257.46 367.24 3259.79 370.283C3262.23 373.327 3265.78 378.805 3267.7 382.457C3269.73 386.109 3272.57 392.5 3274.09 396.66C3275.51 400.819 3277.74 408.428 3278.86 413.399C3280.99 422.427 3280.99 424.456 3281.6 707.089H3182.21L3182.01 673.916C3181.7 641.554 3181.7 640.641 3179.68 640.337C3178.05 640.134 3177.14 641.25 3175.11 645.916C3173.79 649.163 3169.94 655.96 3166.59 660.931C3163.25 666.003 3156.66 673.916 3151.89 678.684C3147.12 683.452 3140.02 689.437 3136.07 692.075C3132.21 694.713 3125.12 698.669 3120.35 700.799C3115.58 703.031 3108.79 705.872 3105.14 706.988C3101.49 708.104 3095.2 709.727 3091.24 710.64C3087.19 711.451 3078.47 712.669 3071.98 713.278C3065.38 713.886 3055.45 714.089 3049.87 713.683C3044.29 713.379 3035.37 712.364 3030.09 711.451C3024.82 710.64 3016.6 708.814 3011.84 707.394C3007.07 706.075 2999.16 703.031 2994.09 700.597C2989.12 698.263 2982.73 694.814 2979.89 692.887C2977.15 690.959 2971.68 686.495 2967.82 682.843C2964.07 679.191 2958.9 673.409 2956.57 670.061C2954.13 666.713 2950.28 660.119 2948.05 655.351C2945.92 650.583 2943.08 643.076 2941.96 638.612C2940.75 634.148 2939.23 625.018 2938.62 618.323C2937.7 609.091 2937.7 603.41 2938.62 594.99C2939.23 588.903 2940.95 579.874 2942.37 575.005C2943.79 570.034 2946.32 563.237 2948.05 559.787C2949.87 556.237 2952.71 551.367 2954.34 548.831C2956.06 546.295 2959.61 542.034 2962.15 539.295C2964.68 536.556 2970.16 531.788 2974.31 528.643C2978.47 525.498 2986.28 520.73 2991.55 518.194C2996.83 515.556 3006.67 511.6 3013.36 509.368C3020.05 507.238 3032.12 503.991 3040.23 502.267C3048.35 500.644 3075.22 496.281 3100.07 492.528C3124.91 488.876 3148.64 485.021 3152.8 484.006C3156.96 482.992 3162.44 481.064 3164.97 479.847C3167.51 478.629 3170.65 476.6 3171.97 475.383C3173.19 474.267 3175.32 471.427 3176.43 469.195C3178.36 465.746 3178.66 463.412 3178.66 452.963C3178.66 446.166 3178.05 438.355 3177.24 435.21C3176.53 432.166 3174.5 426.993 3172.68 423.645C3170.95 420.399 3167.61 415.935 3165.28 413.804C3162.84 411.573 3158.79 408.732 3156.15 407.413C3153.41 406.094 3148.75 404.268 3145.7 403.254C3141.95 402.138 3135.16 401.326 3124.91 401.022C3113.55 400.616 3107.37 400.921 3100.37 402.138C3095.2 403.051 3088.1 404.877 3084.65 406.297C3081.1 407.718 3075.63 410.862 3072.48 413.399C3068.93 416.138 3065.38 420.094 3063.56 423.341C3061.83 426.181 3059.81 430.949 3058.99 433.688C3058.08 436.529 3057.17 442.616 3056.15 456.007L3030.19 456.818C3015.89 457.224 2993.79 457.528 2957.58 457.528L2958.29 439.572C2958.8 428.311 2959.71 418.065 2960.93 412.384C2962.04 407.413 2964.27 399.805 2965.9 395.645C2967.42 391.486 2970.87 384.588 2973.5 380.428C2976.04 376.269 2981.51 369.37 2985.67 365.211C2989.73 361.052 2996.32 355.472 3000.18 352.936C3004.13 350.298 3010.52 346.646 3014.37 344.617C3018.33 342.69 3026.04 339.443 3031.61 337.516C3037.19 335.588 3047.23 332.849 3053.92 331.429C3060.62 330.009 3072.48 328.081 3080.29 327.27C3088.1 326.357 3097.23 325.545 3100.57 325.342C3103.92 325.139 3113.05 324.936 3120.86 324.835V324.835ZM3171.06 540.715C3169.13 541.73 3164.97 543.251 3161.93 544.063C3158.89 544.976 3138.3 548.933 3116.29 552.788C3094.29 556.744 3074.41 560.599 3072.18 561.309C3069.95 562.121 3065.69 563.947 3062.85 565.468C3059.91 566.889 3055.55 570.034 3053.21 572.468C3050.88 574.802 3047.84 579.265 3046.42 582.309C3044.7 586.265 3043.78 590.323 3043.48 596.004C3043.07 602.294 3043.48 605.743 3045.2 611.526C3046.93 617.511 3048.35 619.844 3052.71 624.511C3056.05 628.163 3060.21 631.206 3064.07 633.033C3067.41 634.554 3072.89 636.482 3076.23 637.192C3079.89 638.003 3087.9 638.511 3096.01 638.409C3106.96 638.308 3111.63 637.801 3119.34 635.772C3124.61 634.453 3132.62 631.612 3137.08 629.583C3141.54 627.453 3147.93 623.801 3151.28 621.468C3154.63 619.033 3160.31 613.96 3163.75 610.105C3167.51 606.149 3171.66 600.062 3173.69 596.004C3175.62 592.149 3177.65 586.367 3178.16 583.323C3178.76 580.28 3179.27 568.512 3179.27 557.251C3179.37 544.469 3178.97 536.556 3178.36 536.252C3177.85 535.947 3176.74 536.353 3176.03 537.266C3175.21 538.179 3172.98 539.701 3171.06 540.715V540.715Z" fill="black"/>
</g>
<defs>
<filter id="filter0_d_1_11" x="0" y="0" width="4104" height="849" filterUnits="userSpaceOnUse" color-interpolation-filters="sRGB">
<feFlood flood-opacity="0" result="BackgroundImageFix"/>
<feColorMatrix in="SourceAlpha" type="matrix" values="0 0 0 0 0 0 0 0 0 0 0 0 0 0 0 0 0 0 127 0" result="hardAlpha"/>
<feOffset dy="4"/>
<feGaussianBlur stdDeviation="2"/>
<feComposite in2="hardAlpha" operator="out"/>
<feColorMatrix type="matrix" values="0 0 0 0 0 0 0 0 0 0 0 0 0 0 0 0 0 0 0.25 0"/>
<feBlend mode="normal" in2="BackgroundImageFix" result="effect1_dropShadow_1_11"/>
<feBlend mode="normal" in="SourceGraphic" in2="effect1_dropShadow_1_11" result="shape"/>
</filter>
</defs>
</svg>
