<svg width="4096" height="841" viewBox="0 0 4096 841" fill="none" xmlns="http://www.w3.org/2000/svg">
<path d="M310.249 206.446C312.784 205.533 317.551 204.112 320.897 203.301C324.954 202.388 330.43 202.083 337.123 202.388C342.701 202.591 350.814 203.707 355.074 204.924C359.434 206.04 365.823 208.069 369.271 209.489C372.821 210.909 383.875 216.692 393.915 222.474C403.955 228.257 418.355 236.677 425.86 241.141C433.364 245.604 442.39 250.778 445.838 252.706C449.388 254.633 452.329 256.662 452.633 257.169C452.836 257.778 448.475 266.198 442.897 275.937C437.32 285.676 426.773 304.038 419.369 316.821C412.068 329.502 405.476 340.052 404.766 340.356C404.158 340.661 397.971 337.719 391.075 333.864C384.281 329.907 376.979 326.052 374.849 325.241C372.821 324.328 368.359 323.618 365.012 323.618C361.665 323.618 357.71 324.226 356.088 325.038C354.566 325.849 352.335 327.574 351.118 328.893C350.003 330.11 338.138 349.994 324.852 372.82C311.669 395.747 292.907 428.109 283.273 444.847C273.639 461.586 265.019 476.296 263.903 477.412C262.788 478.832 251.531 483.499 232.972 490.397C216.848 496.281 203.36 501.151 202.751 501.151C202.143 501.151 201.534 501.658 201.23 502.165C200.926 502.672 203.258 516.875 206.301 533.614C209.343 550.353 211.878 565.063 211.878 566.382C211.878 567.599 208.633 574.092 204.678 580.787C200.723 587.483 192.914 601.178 187.235 611.221C181.657 621.265 166.445 647.742 153.566 670.061C140.585 692.379 129.328 712.06 128.517 713.683C127.604 715.408 126.59 718.147 126.286 719.77C125.88 721.495 125.981 724.64 126.59 726.871C127.097 729.103 129.328 732.958 131.458 735.393C133.993 738.234 140.179 742.596 149.509 748.074C160.158 754.364 163.707 756.9 163.707 758.422C163.606 759.436 153.16 778.508 140.382 800.624C126.083 825.276 116.449 840.898 115.536 841C114.725 841 97.7885 831.565 78.013 820.102C58.2374 808.537 39.0704 796.972 35.4195 794.334C31.7686 791.696 24.9739 785.407 20.3089 780.537C14.1227 773.842 10.7761 769.277 7.53088 762.885C5.19838 758.117 2.46022 750.61 1.44609 746.147C0.0263079 739.958 -0.277931 735.495 0.229134 727.379C0.533373 719.872 1.5475 714.191 3.47435 708.104C4.99555 703.336 8.03794 695.829 10.269 691.365C12.5001 686.901 17.6722 677.568 21.6273 670.568C25.6838 663.568 30.7545 654.742 32.8842 650.786C35.0138 646.931 43.3297 632.322 51.4427 618.323C59.5558 604.424 73.5508 580.178 82.5766 564.555C91.6023 548.933 101.845 531.382 111.682 514.846L111.074 492.528C110.668 480.253 110.161 465.441 109.147 448.905L130.849 437.34C142.816 430.949 155.898 424.051 159.955 421.819C166.952 418.065 167.459 417.659 172.733 408.631C175.674 403.457 186.322 385.095 196.159 367.747C206.098 350.501 216.036 333.154 218.267 329.197C220.498 325.241 228.916 310.734 237.029 296.734C245.142 282.836 255.689 264.778 260.455 256.662C265.222 248.546 271.712 238.503 274.856 234.344C278 230.184 283.273 224.3 286.518 221.358C289.764 218.315 295.443 214.156 299.094 212.025C302.744 209.793 307.714 207.359 310.249 206.446Z" fill="#C687FF"/>
<path d="M3888.1 328.183C3893.38 327.27 3902.1 326.154 3907.37 325.748C3912.64 325.241 3921.97 324.835 3928.16 324.734C3934.35 324.734 3944.59 325.139 3950.98 325.647C3957.37 326.154 3965.89 327.168 3969.74 327.777C3973.59 328.386 3981.4 330.009 3986.98 331.429C3992.56 332.748 4001.28 335.487 4006.25 337.414C4011.22 339.342 4018.32 342.588 4021.97 344.617C4025.62 346.545 4031.3 350.095 4034.64 352.53C4037.99 354.863 4043.47 359.327 4046.81 362.371C4050.16 365.414 4055.54 371.298 4058.68 375.457C4061.82 379.617 4066.29 386.414 4068.52 390.573C4070.75 394.732 4074.2 402.95 4076.12 408.834C4078.05 414.717 4080.38 423.543 4081.19 428.616C4082 433.688 4083.12 441.5 4084.34 454.485H3995.6V452.152C3995.6 450.934 3994.89 447.181 3993.98 443.833C3993.07 440.485 3990.94 434.804 3989.21 431.253C3987.18 427.196 3983.74 422.63 3979.88 418.978C3976.54 415.833 3971.97 412.283 3969.74 411.167C3967.51 409.949 3962.44 408.022 3958.59 406.805C3952.8 404.877 3948.44 404.37 3934.75 404.065C3921.77 403.66 3916.3 403.964 3910.41 405.181C3906.26 406.094 3900.17 408.123 3896.82 409.645C3893.48 411.167 3889.02 414.312 3886.58 416.949C3884.05 419.79 3881.71 423.645 3880.5 427.094C3879.18 431.152 3878.87 434.398 3879.18 439.268C3879.48 442.92 3880.6 447.485 3881.51 449.413C3882.53 451.34 3884.35 454.485 3885.67 456.21C3886.99 458.036 3890.23 460.978 3892.87 462.804C3895.61 464.528 3900.27 467.064 3903.31 468.282C3906.36 469.499 3929.18 474.876 3954.02 480.253C3978.87 485.528 4005.03 491.818 4012.33 494.151C4019.64 496.484 4029.68 500.238 4034.64 502.571C4039.61 504.904 4047.73 509.469 4052.6 512.614C4057.56 515.759 4064.87 521.745 4069.02 525.701C4073.08 529.759 4078.56 536.252 4081.09 540.208C4083.53 544.165 4086.77 550.048 4088.19 553.396C4089.51 556.744 4091.44 562.019 4092.25 565.063C4093.16 568.106 4094.28 574.193 4094.88 578.454C4095.49 582.816 4096 590.12 4096 594.685C4096 599.352 4095.29 607.468 4094.48 612.743C4093.67 618.018 4092.35 624.409 4091.54 626.946C4090.83 629.482 4088.9 634.453 4087.38 638.105C4085.86 641.757 4082.11 648.554 4079.06 653.322C4075.92 658.09 4069.73 665.597 4065.17 670.061C4060.61 674.525 4053.71 680.307 4049.86 682.945C4045.9 685.481 4039.31 689.437 4035.15 691.669C4030.99 693.901 4023.19 697.35 4017.91 699.278C4012.64 701.307 4003.71 704.046 3998.14 705.568C3992.56 706.988 3982.52 709.118 3975.83 710.133C3969.13 711.249 3955.64 712.669 3945.91 713.278C3932.62 714.191 3923.7 714.089 3910.41 713.278C3900.68 712.567 3887.9 711.249 3882.02 710.234C3876.14 709.22 3867.01 707.191 3861.74 705.77C3856.46 704.35 3847.54 701.307 3841.96 698.973C3836.38 696.742 3828.57 692.988 3824.72 690.655C3820.87 688.321 3815.09 684.568 3812.04 682.336C3809 680.104 3803.32 675.032 3799.57 671.075C3795.72 667.22 3790.04 660.119 3786.89 655.351C3783.75 650.583 3779.49 642.873 3777.46 638.105C3775.43 633.337 3772.59 624.714 3771.07 618.83C3769.65 612.946 3768.03 603.41 3767.42 597.526C3766.91 591.642 3766.41 586.062 3766.41 585.048C3766.41 583.425 3769.35 583.323 3860.72 583.323L3861.13 585.555C3861.43 586.874 3862.14 590.425 3862.85 593.468C3863.46 596.511 3865.39 601.99 3867.11 605.642C3869.04 609.801 3872.28 614.366 3875.83 617.815C3878.98 620.96 3884.25 624.917 3887.6 626.641C3890.94 628.366 3897.13 630.801 3901.29 632.018C3907.17 633.743 3912.64 634.351 3925.12 634.757C3938.91 635.163 3942.87 634.96 3951.49 633.134C3957.06 632.018 3964.37 629.685 3967.71 628.062C3971.06 626.438 3976.03 622.888 3978.66 620.149C3981.71 617.004 3984.24 613.25 3985.56 609.7C3986.88 606.352 3987.69 601.482 3987.79 597.526C3987.79 593.874 3987.28 589.106 3986.47 586.874C3985.76 584.642 3983.94 581.091 3982.52 579.062C3981.1 577.034 3977.35 573.686 3974.3 571.657C3971.26 569.729 3965.99 567.193 3962.64 566.077C3959.29 564.961 3939.93 560.599 3919.54 556.44C3899.16 552.179 3879.79 548.02 3876.44 547.208C3873.09 546.396 3865.99 544.266 3860.72 542.541C3855.45 540.817 3846.12 537.063 3839.93 534.223C3833.75 531.281 3825.23 526.513 3820.87 523.672C3816.61 520.73 3809.71 515.049 3805.65 510.991C3801.6 507.035 3796.43 500.948 3794.09 497.6C3791.86 494.252 3788.62 488.673 3786.79 485.122C3785.07 481.673 3782.53 475.079 3781.21 470.412C3779.9 465.847 3778.17 457.021 3777.46 450.934C3776.55 442.413 3776.55 437.137 3777.46 428.616C3778.07 422.529 3779.49 414.007 3780.71 409.848C3781.82 405.689 3784.56 398.384 3786.79 393.616C3789.02 388.848 3792.88 382.254 3795.31 378.906C3797.64 375.559 3803.22 369.37 3807.58 365.11C3812.04 360.849 3819.45 354.863 3824.21 351.82C3828.98 348.675 3835.06 345.023 3837.9 343.603C3840.64 342.284 3847.33 339.545 3852.61 337.516C3857.88 335.588 3865.89 333.052 3870.36 331.835C3874.82 330.719 3882.83 329.096 3888.1 328.183Z" fill="#FFFCFC"/>
<path d="M569.866 44.6369C581.63 24.246 592.38 5.88396 593.8 3.85501C595.118 1.72461 596.741 0 597.248 0C597.856 0 614.082 9.23173 633.452 20.391C652.924 31.6516 671.482 42.7094 674.829 44.9413C678.176 47.2746 684.565 52.7527 689.128 57.3179C693.59 61.7815 699.067 68.1727 701.196 71.5205C703.427 74.8683 706.47 80.9551 707.991 85.013C709.512 88.9695 711.338 95.665 711.946 99.6215C712.555 103.679 712.859 110.679 712.453 115.143C712.149 119.607 710.932 126.708 709.715 130.867C708.599 135.027 705.963 142.128 703.833 146.592C701.805 151.055 696.633 160.591 692.475 167.896C688.215 175.098 682.841 184.736 680.407 189.2C678.207 193.409 667.529 211.875 656.283 231.322L654.242 234.851C642.275 255.546 625.948 283.546 618.038 297.241C610.127 310.937 602.927 323.516 602.116 325.139C600.797 327.777 600.696 332.545 601.507 360.139C601.913 377.689 602.116 392.703 601.811 393.312C601.507 394.022 597.552 396.66 592.887 399.095C588.324 401.529 575.647 408.123 545.02 423.848L523.825 460.673C512.264 480.963 492.691 514.948 480.42 536.15C468.048 557.353 454.154 581.091 449.489 588.903C444.824 596.714 438.536 606.048 435.595 609.7C432.756 613.352 427.381 618.83 423.73 621.873C420.079 624.917 413.893 629.178 410.039 631.207C406.186 633.236 399.391 635.873 394.929 636.989C389.858 638.308 383.672 639.119 378.398 639.119C373.835 639.119 367.04 638.409 363.186 637.598C359.434 636.786 353.248 635.062 349.293 633.743C345.338 632.424 338.746 629.583 334.588 627.453C330.43 625.323 314.407 616.192 299.093 607.164C283.78 598.135 268.872 589.613 266.134 588.193C263.295 586.773 260.759 585.048 260.455 584.236C260.049 583.425 265.323 572.976 273.334 558.976C280.839 545.889 291.386 527.426 296.761 517.991C302.237 508.556 307.308 500.644 307.916 500.542C308.626 500.339 313.9 502.875 319.579 506.122C325.359 509.47 332.763 513.426 336.109 514.948C340.368 516.875 343.918 517.788 347.772 517.788C351.524 517.788 354.465 517.078 356.899 515.759C358.826 514.643 361.767 511.904 363.288 509.672C364.91 507.542 375.863 489.079 387.627 468.688C399.119 448.595 417.307 417.173 447.334 365.3L448.678 362.979L479.609 351.82C496.646 345.733 510.641 340.661 510.641 340.559C510.742 340.458 508.41 325.748 505.368 307.893C502.427 290.039 500.196 274.517 500.601 273.401C500.905 272.285 504.455 265.894 508.511 259.198C512.467 252.503 518.754 241.749 522.405 235.358C526.056 228.967 532.343 217.706 536.4 210.504C540.457 203.301 552.728 181.997 563.579 163.331C574.531 144.664 583.963 127.824 584.774 126.099C585.484 124.273 586.092 120.621 586.092 117.882C586.092 114.331 585.383 111.897 583.05 108.346C580.92 104.897 577.777 102.056 572.604 98.8099C568.649 96.2737 561.652 92.0129 557.19 89.4767C552.728 86.8391 548.975 83.9986 548.772 83.187C548.57 82.3754 558.102 65.0279 569.866 44.6369Z" fill="#C687FF"/>
<path fill-rule="evenodd" clip-rule="evenodd" d="M892.36 202.895H1028.25L1034.44 219.938C1037.89 229.271 1048.03 257.169 1057.16 282.024C1066.28 306.879 1083.12 352.733 1094.68 383.979C1106.24 415.225 1123.58 462.499 1133.32 488.977C1143.15 515.455 1152.79 541.628 1154.82 547.106C1156.85 552.585 1159.08 556.845 1159.58 556.643C1160.09 556.44 1167.09 538.686 1175.1 517.281C1183.01 495.875 1198.42 454.079 1209.38 424.558C1220.33 395.037 1238.89 345.023 1250.55 313.473C1262.21 281.923 1276.21 244.184 1291.42 202.895H1427.82L1427.31 706.582H1319.82L1319.61 547.512C1319.31 401.631 1319.21 388.544 1317.69 388.848C1316.47 388.95 1313.22 396.66 1306.63 414.92C1301.46 429.123 1283.31 478.731 1266.27 524.991C1249.23 571.251 1228.14 628.873 1219.42 652.815C1210.59 676.756 1202.58 698.872 1199.64 707.089L1119.22 706.582L1102.59 661.438C1093.56 636.583 1075.61 587.28 1062.73 551.874C1049.96 516.469 1031.3 465.34 1021.36 438.253C1007.87 401.631 1002.8 388.95 1001.58 388.848C999.959 388.544 999.858 399.095 999.351 706.582L892.36 707.089L892.36 202.895ZM2562.63 202.895H2671.15V612.743H2902.37L2901.86 706.582H2563.14L2562.63 202.895ZM3352.64 202.895H3457.1V292.169C3457.1 362.878 3457.4 381.443 3458.42 381.443C3459.02 381.443 3461.26 378.602 3463.18 375.153C3465.11 371.704 3470.38 365.11 3474.84 360.646C3479.31 356.081 3487.12 349.69 3492.09 346.443C3497.16 343.095 3505.07 338.733 3509.83 336.603C3514.6 334.574 3522.61 331.632 3527.58 330.212C3532.65 328.791 3542.18 326.864 3548.88 326.052C3557.29 324.936 3564.8 324.632 3573.22 325.038C3579.91 325.342 3589.54 326.255 3594.51 327.168C3599.58 327.98 3608.71 330.313 3614.79 332.241C3620.98 334.168 3630.72 338.023 3636.6 340.864C3642.48 343.806 3650.9 348.574 3655.36 351.617C3659.82 354.559 3666.82 359.936 3670.77 363.385C3674.83 366.936 3681.22 373.225 3684.87 377.385C3688.62 381.544 3694.51 389.356 3698.06 394.631C3701.5 399.906 3706.88 409.544 3710.02 415.935C3713.06 422.326 3717.22 432.369 3719.15 438.253C3721.08 444.137 3723.71 454.383 3725.13 461.079C3726.55 467.775 3728.28 477.615 3729.09 482.89C3729.9 488.876 3730.41 502.672 3730.41 519.411C3730.41 535.744 3729.9 549.846 3729.09 555.425C3728.38 560.498 3726.86 569.323 3725.74 575.207C3724.52 581.091 3721.79 591.54 3719.55 598.54C3717.32 605.54 3712.96 616.497 3709.92 622.888C3706.88 629.279 3701.4 639.119 3697.65 644.699C3693.9 650.38 3686.19 659.713 3680.21 665.902C3674.32 671.887 3665.7 679.8 3660.94 683.35C3656.17 686.901 3647.04 692.481 3640.66 695.829C3634.27 699.075 3625.14 703.234 3620.37 704.857C3615.61 706.481 3607.39 708.814 3602.12 709.93C3596.84 711.147 3587.21 712.567 3580.82 713.176C3574.43 713.785 3564.6 713.988 3559.02 713.683C3553.44 713.278 3544.52 712.162 3539.24 711.147C3533.97 710.133 3525.96 708.104 3521.49 706.683C3517.03 705.162 3509.33 701.915 3504.25 699.481C3499.29 696.944 3491.07 691.872 3486 688.017C3481.03 684.264 3474.03 677.669 3470.59 673.51C3467.04 669.452 3463.18 664.075 3461.97 661.641C3460.65 659.307 3459.02 657.38 3458.42 657.38C3457.4 657.38 3457 663.162 3456.59 706.582L3352.64 707.089V202.895ZM3509.83 418.065C3505.67 419.79 3498.58 423.543 3494.11 426.485C3489.65 429.529 3483.57 434.601 3480.52 437.847C3477.58 441.195 3473.73 445.862 3472.01 448.398C3470.28 450.934 3466.93 457.021 3464.5 462.093C3462.17 467.166 3459.13 475.586 3457.71 480.861C3456.39 486.137 3454.77 494.557 3454.16 499.629C3453.55 504.701 3453.04 513.527 3453.04 519.411C3453.04 525.295 3453.55 534.121 3454.16 539.194C3454.77 544.266 3456.39 552.686 3457.71 557.961C3459.13 563.237 3462.47 572.164 3465.11 577.744C3467.85 583.323 3472.72 591.236 3475.96 595.395C3479.31 599.555 3484.68 605.236 3488.03 607.975C3491.38 610.613 3498.68 615.076 3504.25 617.815C3509.83 620.554 3518.05 623.598 3522.51 624.612C3528.19 625.83 3534.37 626.337 3543.3 626.337C3552.63 626.236 3558.11 625.627 3564.09 624.004C3568.55 622.888 3576.36 619.844 3581.33 617.41C3586.4 614.975 3593.6 610.207 3597.45 606.96C3601.31 603.714 3606.99 597.932 3609.93 593.975C3612.87 590.12 3616.92 583.932 3618.75 580.28C3620.68 576.628 3623.41 570.236 3624.83 566.077C3626.25 561.918 3628.08 555.324 3628.99 551.367C3630.11 546.701 3630.82 537.165 3631.22 523.976C3631.63 507.846 3631.43 501.759 3630.11 494.049C3629.2 488.774 3627.27 480.557 3625.85 475.789C3624.33 471.021 3621.79 464.427 3620.17 461.079C3618.45 457.731 3615.4 452.557 3613.38 449.514C3611.35 446.471 3607.7 441.702 3605.16 438.963C3602.63 436.123 3598.06 431.964 3595.02 429.63C3591.98 427.195 3586.3 423.645 3582.34 421.717C3578.49 419.79 3572.3 417.254 3568.65 416.036C3565 414.92 3559.12 413.5 3555.47 412.891C3551.82 412.384 3545.43 411.978 3541.27 411.978C3537.11 411.978 3530.01 412.689 3525.55 413.5C3521.09 414.312 3513.99 416.442 3509.83 418.065V418.065ZM1930.83 235.358H2036.3V331.733H2110.33L2109.82 413.399L2036.3 413.906L2036.6 504.498C2036.81 594.381 2036.81 594.99 2039.04 601.584C2040.26 605.236 2042.79 610.207 2044.62 612.743C2046.54 615.279 2049.69 618.323 2051.61 619.641C2053.54 620.96 2057.6 622.989 2060.64 624.207C2065.81 626.236 2067.84 626.438 2113.37 626.438V665.293C2113.37 686.597 2113.07 704.249 2112.66 704.452C2112.16 704.756 2107.49 705.872 2102.22 706.988C2096.94 708.002 2088.02 709.524 2082.44 710.133C2076.87 710.843 2064.29 711.35 2054.55 711.35C2043.4 711.35 2032.65 710.64 2025.65 709.625C2019.57 708.712 2010.64 706.785 2005.88 705.365C2001.11 704.046 1994.52 701.713 1991.17 700.191C1987.82 698.771 1981.94 695.727 1978.19 693.394C1974.34 691.162 1967.95 686.292 1963.99 682.64C1959.94 678.988 1954.36 672.597 1951.42 668.438C1948.58 664.278 1944.52 657.278 1942.49 652.815C1940.46 648.351 1937.83 641.25 1936.71 637.09C1935.6 632.931 1933.97 625.83 1933.06 621.366C1931.84 614.569 1931.54 596.917 1930.83 413.906L1868.46 413.399L1867.95 331.733H1930.83V235.358ZM1677.3 325.241C1687.64 325.444 1700.62 326.357 1706.2 327.168C1711.78 328.081 1720.91 329.806 1726.48 331.226C1732.06 332.545 1740.28 334.98 1744.74 336.603C1749.2 338.226 1757.21 341.777 1762.48 344.414C1767.76 347.052 1776.28 352.023 1781.25 355.472C1786.32 358.82 1794.73 366.023 1800.01 371.298C1805.48 376.776 1812.48 385.095 1816.13 390.573C1819.68 395.848 1824.75 404.674 1827.49 410.152C1830.23 415.529 1834.18 425.167 1836.41 431.456C1838.54 437.645 1841.28 446.876 1842.4 451.949C1843.62 457.021 1845.24 465.644 1846.05 471.224C1846.96 476.803 1848.18 489.18 1848.79 498.615C1849.4 508.151 1849.6 520.426 1849.29 526.005C1848.89 531.585 1848.28 538.281 1847.16 545.788H1715.63C1610.97 545.788 1584 546.092 1584 547.106C1584 547.715 1584.71 552.382 1585.52 557.454C1586.33 562.526 1587.95 570.034 1589.07 574.193C1590.29 578.352 1593.23 585.859 1595.66 590.932C1598.09 596.004 1602.66 603.207 1606 607.062C1609.35 611.12 1615.13 616.395 1619.49 619.337C1623.65 622.178 1629.84 625.627 1633.18 626.844C1636.53 628.062 1641.8 629.786 1644.85 630.598C1647.89 631.409 1655.9 632.627 1662.59 633.235C1671.82 634.148 1677.7 634.148 1686.93 633.235C1693.63 632.627 1702.45 631.105 1706.5 629.989C1710.46 628.873 1716.44 626.641 1719.69 625.018C1722.83 623.395 1728 620.047 1731.05 617.612C1734.09 615.178 1738.75 610.004 1741.29 606.047C1743.93 602.192 1747.37 595.7 1751.84 584.338H1844.12L1843.41 588.396C1842.91 590.627 1840.98 597.323 1838.95 603.41C1836.92 609.395 1833.27 618.627 1830.74 623.902C1828.3 629.178 1823.33 637.902 1819.88 643.177C1816.33 648.453 1810.86 655.757 1807.71 659.409C1804.47 663.061 1798.59 668.945 1794.63 672.394C1790.58 675.945 1783.27 681.626 1778.2 684.974C1773.23 688.321 1765.02 693.089 1759.95 695.423C1754.98 697.857 1746.06 701.51 1740.17 703.437C1734.29 705.365 1723.85 708.104 1716.85 709.524C1709.85 710.944 1697.58 712.567 1689.47 713.278C1681.35 713.886 1669.49 714.089 1663.1 713.683C1656.71 713.379 1646.16 712.364 1639.77 711.553C1633.39 710.741 1623.35 708.814 1617.46 707.394C1611.58 705.973 1602.96 703.437 1598.2 701.814C1593.43 700.191 1585.01 696.539 1579.43 693.901C1573.86 691.162 1565.44 686.394 1560.67 683.148C1555.91 680.003 1548.5 674.423 1544.04 670.67C1539.68 667.017 1532.89 660.322 1529.03 655.858C1525.18 651.395 1519.09 643.38 1515.54 638.105C1511.99 632.83 1506.72 623.395 1503.78 617.308C1500.94 611.221 1497.09 601.584 1495.26 596.004C1493.44 590.425 1490.8 580.178 1489.38 573.178C1487.96 566.179 1486.24 555.019 1485.63 548.324C1484.82 540.309 1484.51 527.426 1484.92 510.281C1485.32 491.31 1486.03 481.47 1487.45 473.253C1488.57 467.166 1490.39 458.441 1491.51 453.978C1492.73 449.514 1495.06 441.804 1496.78 436.732C1498.61 431.659 1502.26 423.036 1504.9 417.457C1507.63 411.877 1512.7 402.95 1516.25 397.674C1519.7 392.399 1527 383.573 1532.28 377.993C1537.55 372.515 1546.07 364.907 1551.04 361.153C1556.11 357.4 1563.41 352.53 1567.26 350.298C1571.22 347.965 1577.1 344.922 1580.45 343.4C1583.79 341.878 1590.89 339.038 1596.17 337.11C1601.44 335.183 1610.36 332.545 1615.94 331.226C1621.52 329.907 1631.15 328.081 1637.24 327.27C1643.43 326.357 1650.73 325.444 1653.47 325.241C1656.31 325.038 1666.95 325.038 1677.3 325.241ZM1639.27 408.935C1635.41 410.051 1629.02 412.688 1625.17 414.717C1621.32 416.848 1615.13 421.21 1611.58 424.558C1607.93 427.906 1602.86 433.891 1600.22 437.746C1597.69 441.702 1594.14 448.297 1592.41 452.456C1590.69 456.615 1588.36 463.717 1587.24 468.18C1586.13 472.644 1584.91 478.021 1584.61 480.151L1584 483.905H1750.31C1749.4 474.064 1748.49 468.282 1747.68 464.63C1746.97 460.978 1745.45 455.296 1744.23 451.949C1743.11 448.601 1740.48 442.92 1738.45 439.268C1736.42 435.616 1731.55 429.427 1727.6 425.471C1722.22 420.196 1718.17 417.254 1711.78 414.109C1707.01 411.775 1699.51 408.935 1695.04 407.718C1689.37 406.297 1682.77 405.486 1672.73 405.283C1664.93 405.08 1655.8 405.283 1652.45 405.79C1649.1 406.399 1643.22 407.718 1639.27 408.935ZM2336.99 325.139C2349.87 325.342 2365.99 326.255 2372.99 327.168C2379.99 328.081 2390.03 329.704 2395.3 330.82C2400.58 331.936 2409.5 334.371 2415.08 336.197C2420.66 338.023 2428.16 341.067 2431.81 342.893C2435.46 344.719 2441.65 348.269 2445.5 350.806C2449.46 353.342 2455.64 358.414 2459.29 362.066C2462.94 365.718 2468.12 372.008 2470.65 375.863C2473.19 379.819 2476.64 386.211 2478.26 390.066C2479.98 394.022 2482.21 400.616 2483.33 404.776C2484.44 408.935 2485.97 416.239 2486.78 421.007C2487.79 427.906 2488.1 456.615 2488.1 706.582H2388.71L2388.51 673.409C2388.2 642.467 2388.1 640.134 2386.48 640.134C2385.26 640.134 2383.94 641.858 2382.42 645.409C2381.21 648.351 2377.25 655.148 2373.8 660.423C2370.35 665.699 2363.76 673.713 2359.3 678.177C2354.84 682.64 2347.33 688.93 2342.57 692.075C2337.8 695.22 2330.5 699.379 2326.34 701.307C2322.18 703.234 2314.88 705.973 2310.12 707.394C2305.35 708.915 2297.13 710.843 2291.86 711.756C2285.27 712.973 2276.85 713.48 2264.99 713.48C2253.63 713.48 2244.3 712.872 2237.6 711.756C2232.03 710.843 2222.9 708.712 2217.32 706.988C2211.74 705.263 2203.53 702.017 2199.07 699.785C2194.61 697.553 2188.01 693.597 2184.36 691.061C2180.71 688.423 2175.13 683.655 2171.99 680.51C2168.75 677.264 2163.98 671.278 2161.24 667.322C2158.6 663.264 2154.85 656.264 2153.03 651.8C2151.2 647.337 2148.67 639.627 2147.55 634.554C2145.83 627.047 2145.42 622.076 2145.42 607.163C2145.42 591.642 2145.72 587.584 2147.75 579.773C2148.97 574.7 2151.3 567.497 2152.93 563.541C2154.55 559.686 2158.1 553.295 2160.84 549.338C2163.57 545.483 2168.75 539.498 2172.29 536.049C2175.84 532.599 2182.23 527.629 2186.39 524.991C2190.55 522.252 2197.65 518.397 2202.11 516.368C2206.57 514.237 2214.58 511.194 2219.86 509.469C2225.13 507.643 2234.26 505.107 2240.14 503.788C2246.02 502.368 2256.26 500.339 2262.96 499.223C2269.65 498.107 2292.27 494.658 2313.16 491.513C2334.05 488.47 2354.94 485.021 2359.6 483.905C2364.17 482.789 2370.05 480.76 2372.79 479.441C2375.43 478.122 2378.57 475.89 2379.79 474.571C2381 473.354 2382.83 470.412 2383.74 468.18C2385.16 465.137 2385.57 461.282 2385.57 452.456C2385.57 444.543 2384.96 438.659 2383.74 434.195C2382.83 430.543 2380.8 425.369 2379.28 422.63C2377.76 419.891 2374.51 415.833 2371.98 413.602C2369.44 411.268 2364.68 408.123 2361.33 406.602C2357.98 405.08 2351.39 403.051 2346.62 402.138C2340.03 400.819 2334.35 400.616 2322.28 401.022C2309.81 401.428 2304.94 402.037 2298.45 403.863C2293.99 405.181 2287.7 407.92 2284.36 409.848C2281.11 411.775 2276.65 415.428 2274.42 417.964C2272.29 420.5 2269.35 424.862 2268.13 427.601C2266.81 430.442 2265.19 435.108 2264.58 438.05C2263.97 440.891 2263.47 446.166 2263.47 456.007L2237.4 456.818C2223 457.224 2200.79 457.528 2164.59 457.528L2165.2 438.05C2165.8 421.616 2166.31 416.848 2168.54 408.326C2169.96 402.747 2173.21 394.124 2175.54 389.051C2177.97 384.08 2182.84 376.37 2186.19 372.109C2189.64 367.747 2196.23 361.255 2200.89 357.602C2205.46 353.95 2213.57 348.675 2218.84 346.037C2224.12 343.298 2233.04 339.443 2238.62 337.516C2244.2 335.588 2252.92 333.052 2257.89 331.936C2262.96 330.719 2272.09 329.096 2278.17 328.183C2284.36 327.27 2294.8 326.154 2301.5 325.647C2308.19 325.139 2324.21 324.936 2336.99 325.139V325.139ZM2376.54 541.324C2373.8 542.44 2368.33 544.266 2364.37 545.179C2360.52 546.092 2340.54 549.744 2320.05 553.396C2295.92 557.657 2280.3 560.903 2275.94 562.628C2272.09 564.048 2267.22 566.483 2264.99 568.005C2262.76 569.526 2259.41 572.57 2257.58 574.802C2255.76 576.932 2253.32 581.294 2252.21 584.338C2250.69 588.396 2250.18 592.352 2250.18 598.54C2250.18 603.308 2250.79 608.989 2251.5 611.221C2252.31 613.453 2254.03 617.308 2255.45 619.844C2256.97 622.381 2259.92 625.83 2262.05 627.656C2264.28 629.38 2268.54 631.917 2271.58 633.337C2274.62 634.656 2279.18 636.279 2281.72 636.888C2284.25 637.496 2290.64 638.308 2295.92 638.714C2302.71 639.119 2308.8 638.815 2316.2 637.699C2322.08 636.786 2330.5 634.757 2334.96 633.235C2339.42 631.714 2346.73 628.366 2351.19 625.931C2356.6 622.888 2362.21 618.492 2368.02 612.743C2374.82 606.047 2377.56 602.395 2380.39 596.511C2382.42 592.352 2384.55 585.961 2385.06 582.309C2385.67 578.657 2386.18 566.889 2386.18 556.237C2386.18 539.802 2385.97 536.657 2384.76 536.657C2383.94 536.657 2382.83 537.165 2382.42 537.875C2382.02 538.585 2379.38 540.107 2376.54 541.324V541.324ZM3116.86 324.835C3124.67 324.733 3137.65 325.139 3145.76 325.647C3153.87 326.255 3166.14 327.675 3173.14 328.791C3180.14 329.907 3188.35 331.429 3191.4 332.241C3194.44 333.052 3200.62 334.878 3205.09 336.4C3209.55 337.922 3216.85 340.965 3221.31 343.197C3225.77 345.429 3231.96 348.979 3235 351.008C3238.05 353.139 3243.01 356.994 3246.06 359.733C3249.1 362.472 3253.46 367.24 3255.79 370.283C3258.23 373.327 3261.78 378.805 3263.7 382.457C3265.73 386.109 3268.57 392.5 3270.09 396.66C3271.51 400.819 3273.74 408.428 3274.86 413.399C3276.99 422.427 3276.99 424.456 3277.6 707.089H3178.21L3178.01 673.916C3177.7 641.554 3177.7 640.641 3175.68 640.337C3174.05 640.134 3173.14 641.25 3171.11 645.916C3169.79 649.163 3165.94 655.96 3162.59 660.931C3159.25 666.003 3152.66 673.916 3147.89 678.684C3143.12 683.452 3136.02 689.437 3132.07 692.075C3128.21 694.713 3121.12 698.669 3116.35 700.799C3111.58 703.031 3104.79 705.872 3101.14 706.988C3097.49 708.104 3091.2 709.727 3087.24 710.64C3083.19 711.451 3074.47 712.669 3067.98 713.278C3061.38 713.886 3051.45 714.089 3045.87 713.683C3040.29 713.379 3031.37 712.364 3026.09 711.451C3020.82 710.64 3012.6 708.814 3007.84 707.394C3003.07 706.075 2995.16 703.031 2990.09 700.597C2985.12 698.263 2978.73 694.814 2975.89 692.887C2973.15 690.959 2967.68 686.495 2963.82 682.843C2960.07 679.191 2954.9 673.409 2952.57 670.061C2950.13 666.713 2946.28 660.119 2944.05 655.351C2941.92 650.583 2939.08 643.076 2937.96 638.612C2936.75 634.148 2935.23 625.018 2934.62 618.323C2933.7 609.091 2933.7 603.41 2934.62 594.99C2935.23 588.903 2936.95 579.874 2938.37 575.005C2939.79 570.034 2942.32 563.237 2944.05 559.787C2945.87 556.237 2948.71 551.367 2950.34 548.831C2952.06 546.295 2955.61 542.034 2958.15 539.295C2960.68 536.556 2966.16 531.788 2970.31 528.643C2974.47 525.498 2982.28 520.73 2987.55 518.194C2992.83 515.556 3002.67 511.6 3009.36 509.368C3016.05 507.238 3028.12 503.991 3036.23 502.267C3044.35 500.644 3071.22 496.281 3096.07 492.528C3120.91 488.876 3144.64 485.021 3148.8 484.006C3152.96 482.992 3158.44 481.064 3160.97 479.847C3163.51 478.629 3166.65 476.6 3167.97 475.383C3169.19 474.267 3171.32 471.427 3172.43 469.195C3174.36 465.746 3174.66 463.412 3174.66 452.963C3174.66 446.166 3174.05 438.355 3173.24 435.21C3172.53 432.166 3170.5 426.993 3168.68 423.645C3166.95 420.399 3163.61 415.935 3161.28 413.804C3158.84 411.573 3154.79 408.732 3152.15 407.413C3149.41 406.094 3144.75 404.268 3141.7 403.254C3137.95 402.138 3131.16 401.326 3120.91 401.022C3109.55 400.616 3103.37 400.921 3096.37 402.138C3091.2 403.051 3084.1 404.877 3080.65 406.297C3077.1 407.718 3071.63 410.862 3068.48 413.399C3064.93 416.138 3061.38 420.094 3059.56 423.34C3057.83 426.181 3055.81 430.949 3054.99 433.688C3054.08 436.529 3053.17 442.616 3052.15 456.007L3026.19 456.818C3011.89 457.224 2989.79 457.528 2953.58 457.528L2954.29 439.572C2954.8 428.311 2955.71 418.065 2956.93 412.384C2958.04 407.413 2960.27 399.805 2961.9 395.645C2963.42 391.486 2966.87 384.588 2969.5 380.428C2972.04 376.269 2977.51 369.37 2981.67 365.211C2985.73 361.052 2992.32 355.472 2996.18 352.936C3000.13 350.298 3006.52 346.646 3010.37 344.617C3014.33 342.69 3022.04 339.443 3027.61 337.516C3033.19 335.588 3043.23 332.849 3049.92 331.429C3056.62 330.009 3068.48 328.081 3076.29 327.27C3084.1 326.357 3093.23 325.545 3096.57 325.342C3099.92 325.139 3109.05 324.936 3116.86 324.835V324.835ZM3167.06 540.715C3165.13 541.73 3160.97 543.251 3157.93 544.063C3154.89 544.976 3134.3 548.933 3112.29 552.788C3090.29 556.744 3070.41 560.599 3068.18 561.309C3065.95 562.121 3061.69 563.947 3058.85 565.468C3055.91 566.889 3051.55 570.034 3049.21 572.468C3046.88 574.802 3043.84 579.265 3042.42 582.309C3040.7 586.265 3039.78 590.323 3039.48 596.004C3039.07 602.294 3039.48 605.743 3041.2 611.526C3042.93 617.511 3044.35 619.844 3048.71 624.511C3052.05 628.163 3056.21 631.206 3060.07 633.033C3063.41 634.554 3068.89 636.482 3072.23 637.192C3075.89 638.003 3083.9 638.511 3092.01 638.409C3102.96 638.308 3107.63 637.801 3115.34 635.772C3120.61 634.453 3128.62 631.612 3133.08 629.583C3137.54 627.453 3143.93 623.801 3147.28 621.468C3150.63 619.033 3156.31 613.96 3159.75 610.105C3163.51 606.149 3167.66 600.062 3169.69 596.004C3171.62 592.149 3173.65 586.367 3174.16 583.323C3174.76 580.28 3175.27 568.512 3175.27 557.251C3175.37 544.469 3174.97 536.556 3174.36 536.252C3173.85 535.947 3172.74 536.353 3172.03 537.266C3171.21 538.179 3168.98 539.701 3167.06 540.715V540.715Z" fill="#FFFCFC"/>
</svg>
