<svg width="572" height="554" viewBox="0 0 572 554" fill="none" xmlns="http://www.w3.org/2000/svg">
<g opacity="0.5">
<path fill-rule="evenodd" clip-rule="evenodd" d="M497.667 547.9C497.199 547.9 496.821 547.522 496.821 547.054L496.821 544.701C496.821 544.234 497.199 543.855 497.667 543.855C498.134 543.855 498.513 544.234 498.513 544.701L498.513 547.054C498.513 547.522 498.134 547.9 497.667 547.9ZM388.143 547.9C387.676 547.9 387.297 547.522 387.297 547.054L387.297 544.701C387.297 544.234 387.676 543.855 388.143 543.855C388.61 543.855 388.989 544.234 388.989 544.701L388.989 547.054C388.989 547.522 388.61 547.9 388.143 547.9ZM388.143 540.84C387.676 540.84 387.297 540.461 387.297 539.994L387.297 535.287C387.297 534.819 387.676 534.441 388.143 534.441C388.61 534.441 388.989 534.819 388.989 535.287L388.989 539.994C388.989 540.461 388.61 540.84 388.143 540.84ZM497.667 540.84C497.199 540.84 496.821 540.461 496.821 539.994L496.821 535.287C496.821 534.819 497.199 534.441 497.667 534.441C498.134 534.441 498.513 534.819 498.513 535.287L498.513 539.994C498.513 540.461 498.134 540.84 497.667 540.84ZM388.143 531.426C387.676 531.426 387.297 531.047 387.297 530.58L387.297 525.872C387.297 525.405 387.676 525.026 388.143 525.026C388.61 525.026 388.989 525.405 388.989 525.872L388.989 530.58C388.989 531.047 388.61 531.426 388.143 531.426ZM497.667 531.426C497.199 531.426 496.821 531.047 496.821 530.58L496.821 525.872C496.821 525.405 497.199 525.026 497.667 525.026C498.134 525.026 498.513 525.405 498.513 525.872L498.513 530.58C498.513 531.047 498.134 531.426 497.667 531.426ZM388.143 522.011C387.676 522.011 387.297 521.633 387.297 521.165L387.297 516.458C387.297 515.991 387.676 515.612 388.143 515.612C388.61 515.612 388.989 515.991 388.989 516.458L388.989 521.165C388.989 521.633 388.61 522.011 388.143 522.011ZM497.667 522.011C497.199 522.011 496.821 521.633 496.821 521.165L496.821 516.458C496.821 515.991 497.199 515.612 497.667 515.612C498.134 515.612 498.513 515.991 498.513 516.458L498.513 521.165C498.513 521.633 498.134 522.011 497.667 522.011ZM388.143 512.597C387.676 512.597 387.297 512.218 387.297 511.751L387.297 507.044C387.297 506.577 387.676 506.198 388.143 506.198C388.61 506.198 388.989 506.577 388.989 507.044L388.989 511.751C388.989 512.218 388.61 512.597 388.143 512.597ZM497.667 512.597C497.199 512.597 496.821 512.218 496.821 511.751L496.821 507.044C496.821 506.577 497.199 506.198 497.667 506.198C498.134 506.198 498.513 506.577 498.513 507.044L498.513 511.751C498.513 512.218 498.134 512.597 497.667 512.597ZM388.143 503.183C387.676 503.183 387.297 502.804 387.297 502.337L387.297 497.63C387.297 497.163 387.676 496.784 388.143 496.784C388.61 496.784 388.989 497.163 388.989 497.63L388.989 502.337C388.989 502.804 388.61 503.183 388.143 503.183ZM497.667 503.183C497.199 503.183 496.821 502.804 496.821 502.337L496.821 497.63C496.821 497.163 497.199 496.784 497.667 496.784C498.134 496.784 498.513 497.163 498.513 497.63L498.513 502.337C498.513 502.804 498.134 503.183 497.667 503.183ZM388.143 493.769C387.676 493.769 387.297 493.39 387.297 492.923L387.297 488.216C387.297 487.748 387.676 487.37 388.143 487.37C388.61 487.37 388.989 487.748 388.989 488.216L388.989 492.923C388.989 493.39 388.61 493.769 388.143 493.769ZM497.667 493.769C497.199 493.769 496.821 493.39 496.821 492.923L496.821 488.216C496.821 487.748 497.199 487.37 497.667 487.37C498.134 487.37 498.513 487.748 498.513 488.216L498.513 492.923C498.513 493.39 498.134 493.769 497.667 493.769ZM388.143 484.355C387.676 484.355 387.297 483.976 387.297 483.509L387.297 478.801C387.297 478.334 387.676 477.955 388.143 477.955C388.61 477.955 388.989 478.334 388.989 478.801L388.989 483.509C388.989 483.976 388.61 484.355 388.143 484.355ZM497.667 484.354C497.199 484.354 496.821 483.976 496.821 483.509L496.821 478.801C496.821 478.334 497.199 477.955 497.667 477.955C498.134 477.955 498.513 478.334 498.513 478.801L498.513 483.509C498.513 483.976 498.134 484.354 497.667 484.354ZM388.143 474.94C387.676 474.94 387.297 474.562 387.297 474.094L387.297 469.387C387.297 468.92 387.676 468.541 388.143 468.541C388.61 468.541 388.989 468.92 388.989 469.387L388.989 474.094C388.989 474.562 388.61 474.94 388.143 474.94ZM497.667 474.94C497.199 474.94 496.821 474.562 496.821 474.094L496.821 469.387C496.821 468.92 497.199 468.541 497.667 468.541C498.134 468.541 498.513 468.92 498.513 469.387L498.513 474.094C498.513 474.562 498.134 474.94 497.667 474.94ZM388.143 465.526C387.676 465.526 387.297 465.147 387.297 464.68L387.297 459.973C387.297 459.506 387.676 459.127 388.143 459.127C388.61 459.127 388.989 459.506 388.989 459.973L388.989 464.68C388.989 465.147 388.61 465.526 388.143 465.526ZM497.667 465.526C497.199 465.526 496.821 465.147 496.821 464.68L496.821 459.973C496.821 459.506 497.199 459.127 497.667 459.127C498.134 459.127 498.513 459.506 498.513 459.973L498.513 464.68C498.513 465.147 498.134 465.526 497.667 465.526ZM388.143 456.112C387.676 456.112 387.297 455.733 387.297 455.266L387.297 450.559C387.297 450.092 387.676 449.713 388.143 449.713C388.61 449.713 388.989 450.092 388.989 450.559L388.989 455.266C388.989 455.733 388.61 456.112 388.143 456.112ZM497.667 456.112C497.199 456.112 496.821 455.733 496.821 455.266L496.821 450.559C496.821 450.092 497.199 449.713 497.667 449.713C498.134 449.713 498.513 450.092 498.513 450.559L498.513 455.266C498.513 455.733 498.134 456.112 497.667 456.112ZM388.143 446.698C387.676 446.698 387.297 446.319 387.297 445.852L387.297 443.498C387.297 442.663 387.351 441.839 387.456 441.032C387.517 440.568 387.941 440.242 388.405 440.302C388.868 440.363 389.195 440.787 389.134 441.25C389.038 441.986 388.989 442.736 388.989 443.498L388.989 445.852C388.989 446.319 388.61 446.698 388.143 446.698ZM497.667 446.698C497.199 446.698 496.821 446.319 496.821 445.852L496.821 443.498C496.821 442.736 496.771 441.986 496.675 441.25C496.615 440.787 496.941 440.362 497.405 440.302C497.868 440.242 498.293 440.568 498.353 441.032C498.458 441.839 498.513 442.663 498.513 443.498L498.513 445.852C498.513 446.319 498.134 446.698 497.667 446.698ZM389.188 437.371C388.757 437.192 388.552 436.697 388.731 436.266C389.368 434.729 390.202 433.295 391.201 431.995C391.485 431.625 392.016 431.555 392.387 431.84C392.757 432.125 392.827 432.656 392.542 433.026C391.632 434.21 390.873 435.516 390.294 436.914C390.115 437.345 389.62 437.55 389.188 437.371ZM496.621 437.371C496.19 437.55 495.695 437.345 495.516 436.914C494.936 435.516 494.177 434.21 493.267 433.026C492.983 432.656 493.052 432.125 493.423 431.84C493.793 431.555 494.324 431.625 494.609 431.995C495.608 433.295 496.442 434.729 497.079 436.266C497.258 436.697 497.053 437.192 496.621 437.371ZM394.533 429.695C394.248 429.324 394.317 428.793 394.688 428.508C395.988 427.509 397.421 426.676 398.958 426.038C399.39 425.859 399.885 426.064 400.063 426.496C400.242 426.927 400.038 427.422 399.606 427.601C398.208 428.181 396.903 428.94 395.719 429.85C395.348 430.135 394.817 430.065 394.533 429.695ZM491.277 429.695C490.992 430.065 490.461 430.135 490.091 429.85C488.907 428.94 487.601 428.181 486.203 427.601C485.772 427.422 485.567 426.927 485.746 426.496C485.925 426.064 486.42 425.859 486.851 426.038C488.388 426.676 489.822 427.509 491.122 428.508C491.492 428.793 491.562 429.324 491.277 429.695ZM482.815 425.712C482.755 426.176 482.33 426.502 481.867 426.442C481.131 426.346 480.381 426.296 479.619 426.296L477.324 426.296C476.857 426.296 476.478 425.918 476.478 425.45C476.478 424.983 476.857 424.604 477.324 424.604L479.619 424.604C480.455 424.604 481.278 424.659 482.086 424.764C482.549 424.825 482.875 425.249 482.815 425.712ZM402.994 425.712C402.934 425.249 403.261 424.825 403.724 424.764C404.532 424.659 405.355 424.604 406.19 424.604L408.485 424.604C408.952 424.604 409.331 424.983 409.331 425.45C409.331 425.918 408.952 426.296 408.485 426.296L406.19 426.296C405.428 426.296 404.678 426.346 403.943 426.442C403.479 426.502 403.055 426.176 402.994 425.712ZM473.581 425.45C473.581 425.918 473.202 426.296 472.735 426.296L468.146 426.296C467.679 426.296 467.3 425.918 467.3 425.45C467.3 424.983 467.679 424.604 468.146 424.604L472.735 424.604C473.202 424.604 473.581 424.983 473.581 425.45ZM464.402 425.45C464.402 425.918 464.024 426.296 463.556 426.296L458.967 426.296C458.5 426.296 458.121 425.918 458.121 425.45C458.121 424.983 458.5 424.604 458.967 424.604L463.556 424.604C464.024 424.604 464.402 424.983 464.402 425.45ZM455.224 425.45C455.224 425.918 454.845 426.296 454.378 426.296L449.789 426.296C449.321 426.296 448.943 425.918 448.943 425.45C448.943 424.983 449.321 424.604 449.789 424.604L454.378 424.604C454.845 424.604 455.224 424.983 455.224 425.45ZM446.045 425.45C446.045 425.918 445.667 426.296 445.199 426.296L440.61 426.296C440.143 426.296 439.764 425.918 439.764 425.45C439.764 424.983 440.143 424.604 440.61 424.604L445.199 424.604C445.667 424.604 446.045 424.983 446.045 425.45ZM436.867 425.45C436.867 425.918 436.488 426.296 436.021 426.296L431.432 426.296C430.964 426.296 430.586 425.918 430.586 425.45C430.586 424.983 430.964 424.604 431.432 424.604L436.021 424.604C436.488 424.604 436.867 424.983 436.867 425.45ZM427.688 425.45C427.688 425.918 427.309 426.296 426.842 426.296L422.253 426.296C421.786 426.296 421.407 425.918 421.407 425.45C421.407 424.983 421.786 424.604 422.253 424.604L426.842 424.604C427.309 424.604 427.688 424.983 427.688 425.45ZM418.51 425.45C418.51 425.918 418.131 426.296 417.664 426.296L413.074 426.296C412.607 426.296 412.228 425.918 412.228 425.45C412.228 424.983 412.607 424.604 413.074 424.604L417.664 424.604C418.131 424.604 418.51 424.983 418.51 425.45Z" fill="#D3D3D3"/>
<path d="M388.956 548.257L392.484 542.581C392.906 541.901 392.505 541.024 391.775 540.889C391.647 540.865 391.516 540.894 391.394 540.938L388.144 542.11L384.894 540.938C384.771 540.894 384.641 540.865 384.512 540.889C383.793 541.023 383.39 541.878 383.79 542.558L387.132 548.234C387.545 548.935 388.526 548.947 388.956 548.257Z" fill="#D3D3D3"/>
<path d="M497.667 551.587C496.109 551.587 494.847 550.324 494.847 548.767C494.847 547.209 496.109 545.947 497.667 545.947C499.224 545.947 500.487 547.209 500.487 548.767C500.487 550.324 499.224 551.587 497.667 551.587Z" fill="#D3D3D3" stroke="#D3D3D3" stroke-width="3.38395"/>
</g>
<g opacity="0.5">
<path fill-rule="evenodd" clip-rule="evenodd" d="M61.3477 36.6943C61.8149 36.6943 62.1937 37.0731 62.1937 37.5403V39.8939C62.1937 40.3611 61.8149 40.7399 61.3477 40.7399C60.8805 40.7399 60.5017 40.3611 60.5017 39.8939V37.5403C60.5017 37.0731 60.8805 36.6943 61.3477 36.6943ZM248.488 36.6943C248.955 36.6943 249.334 37.0731 249.334 37.5403V39.8939C249.334 40.3611 248.955 40.7399 248.488 40.7399C248.021 40.7399 247.642 40.3611 247.642 39.8939V37.5403C247.642 37.0731 248.021 36.6943 248.488 36.6943ZM248.488 43.755C248.955 43.755 249.334 44.1337 249.334 44.601V49.3081C249.334 49.7753 248.955 50.1541 248.488 50.1541C248.021 50.1541 247.642 49.7753 247.642 49.3081V44.601C247.642 44.1337 248.021 43.755 248.488 43.755ZM61.3477 43.755C61.8149 43.755 62.1937 44.1338 62.1937 44.601V49.3081C62.1937 49.7753 61.8149 50.1541 61.3477 50.1541C60.8805 50.1541 60.5017 49.7753 60.5017 49.3081V44.601C60.5017 44.1338 60.8805 43.755 61.3477 43.755ZM248.488 53.1692C248.955 53.1692 249.334 53.5479 249.334 54.0152V58.7223C249.334 59.1895 248.955 59.5683 248.488 59.5683C248.021 59.5683 247.642 59.1895 247.642 58.7223V54.0152C247.642 53.5479 248.021 53.1692 248.488 53.1692ZM61.3477 53.1692C61.8149 53.1692 62.1937 53.548 62.1937 54.0152V58.7223C62.1937 59.1895 61.8149 59.5683 61.3477 59.5683C60.8805 59.5683 60.5017 59.1895 60.5017 58.7223V54.0152C60.5017 53.548 60.8805 53.1692 61.3477 53.1692ZM248.488 62.5834C248.955 62.5834 249.334 62.9622 249.334 63.4294V68.1365C249.334 68.6037 248.955 68.9825 248.488 68.9825C248.021 68.9825 247.642 68.6037 247.642 68.1365V63.4294C247.642 62.9622 248.021 62.5834 248.488 62.5834ZM61.3477 62.5834C61.8149 62.5834 62.1937 62.9622 62.1937 63.4294V68.1365C62.1937 68.6037 61.8149 68.9825 61.3477 68.9825C60.8805 68.9825 60.5017 68.6037 60.5017 68.1365V63.4294C60.5017 62.9622 60.8805 62.5834 61.3477 62.5834ZM248.488 71.9976C248.955 71.9976 249.334 72.3764 249.334 72.8436V77.5507C249.334 78.0179 248.955 78.3967 248.488 78.3967C248.021 78.3967 247.642 78.0179 247.642 77.5507V72.8436C247.642 72.3764 248.021 71.9976 248.488 71.9976ZM61.3477 71.9976C61.8149 71.9976 62.1937 72.3764 62.1937 72.8436V77.5507C62.1937 78.0179 61.8149 78.3967 61.3477 78.3967C60.8805 78.3967 60.5017 78.0179 60.5017 77.5507V72.8436C60.5017 72.3764 60.8805 71.9976 61.3477 71.9976ZM248.488 81.4118C248.955 81.4118 249.334 81.7906 249.334 82.2578V86.9649C249.334 87.4321 248.955 87.8109 248.488 87.8109C248.021 87.8109 247.642 87.4321 247.642 86.9649V82.2578C247.642 81.7906 248.021 81.4118 248.488 81.4118ZM61.3477 81.4118C61.8149 81.4118 62.1937 81.7906 62.1937 82.2578V86.9649C62.1937 87.4321 61.8149 87.8109 61.3477 87.8109C60.8805 87.8109 60.5017 87.4321 60.5017 86.9649V82.2578C60.5017 81.7906 60.8805 81.4118 61.3477 81.4118ZM248.488 90.826C248.955 90.826 249.334 91.2048 249.334 91.672V96.3791C249.334 96.8463 248.955 97.2251 248.488 97.2251C248.021 97.2251 247.642 96.8463 247.642 96.3791V91.672C247.642 91.2048 248.021 90.826 248.488 90.826ZM61.3477 90.826C61.8149 90.826 62.1937 91.2048 62.1937 91.672V96.3791C62.1937 96.8463 61.8149 97.2251 61.3477 97.2251C60.8805 97.2251 60.5017 96.8463 60.5017 96.3791V91.672C60.5017 91.2048 60.8805 90.826 61.3477 90.826ZM248.488 100.24C248.955 100.24 249.334 100.619 249.334 101.086V105.793C249.334 106.261 248.955 106.639 248.488 106.639C248.021 106.639 247.642 106.261 247.642 105.793V101.086C247.642 100.619 248.021 100.24 248.488 100.24ZM61.3477 100.24C61.8149 100.24 62.1937 100.619 62.1937 101.086V105.793C62.1937 106.261 61.8149 106.639 61.3477 106.639C60.8805 106.639 60.5017 106.261 60.5017 105.793V101.086C60.5017 100.619 60.8805 100.24 61.3477 100.24ZM248.488 109.654C248.955 109.654 249.334 110.033 249.334 110.5V115.208C249.334 115.675 248.955 116.053 248.488 116.053C248.021 116.053 247.642 115.675 247.642 115.208V110.5C247.642 110.033 248.021 109.654 248.488 109.654ZM61.3477 109.654C61.8149 109.654 62.1937 110.033 62.1937 110.5V115.208C62.1937 115.675 61.8149 116.054 61.3477 116.054C60.8805 116.054 60.5017 115.675 60.5017 115.208V110.5C60.5017 110.033 60.8805 109.654 61.3477 109.654ZM248.488 119.069C248.955 119.069 249.334 119.447 249.334 119.915V124.622C249.334 125.089 248.955 125.468 248.488 125.468C248.021 125.468 247.642 125.089 247.642 124.622V119.915C247.642 119.447 248.021 119.069 248.488 119.069ZM61.3477 119.069C61.8149 119.069 62.1937 119.447 62.1937 119.915V124.622C62.1937 125.089 61.8149 125.468 61.3477 125.468C60.8805 125.468 60.5017 125.089 60.5017 124.622V119.915C60.5017 119.447 60.8805 119.069 61.3477 119.069ZM248.488 128.483C248.955 128.483 249.334 128.862 249.334 129.329V134.036C249.334 134.503 248.955 134.882 248.488 134.882C248.021 134.882 247.642 134.503 247.642 134.036V129.329C247.642 128.862 248.021 128.483 248.488 128.483ZM61.3477 128.483C61.8149 128.483 62.1937 128.862 62.1937 129.329V134.036C62.1937 134.503 61.8149 134.882 61.3477 134.882C60.8805 134.882 60.5017 134.503 60.5017 134.036V129.329C60.5017 128.862 60.8805 128.483 61.3477 128.483ZM248.488 137.897C248.955 137.897 249.334 138.276 249.334 138.743V141.097C249.334 141.932 249.28 142.756 249.174 143.563C249.114 144.026 248.689 144.353 248.226 144.293C247.763 144.232 247.436 143.808 247.497 143.344C247.593 142.609 247.642 141.859 247.642 141.097V138.743C247.642 138.276 248.021 137.897 248.488 137.897ZM61.3477 137.897C61.8149 137.897 62.1937 138.276 62.1937 138.743V141.097C62.1937 141.859 62.2432 142.609 62.3391 143.344C62.3996 143.808 62.073 144.232 61.6097 144.293C61.1464 144.353 60.7218 144.027 60.6614 143.563C60.556 142.756 60.5017 141.932 60.5017 141.097V138.743C60.5017 138.276 60.8805 137.897 61.3477 137.897ZM247.443 147.224C247.874 147.403 248.079 147.897 247.9 148.329C247.263 149.866 246.429 151.299 245.43 152.599C245.146 152.97 244.614 153.039 244.244 152.755C243.874 152.47 243.804 151.939 244.089 151.568C244.998 150.384 245.757 149.079 246.337 147.681C246.516 147.249 247.011 147.045 247.443 147.224ZM62.3931 147.224C62.8247 147.045 63.3197 147.249 63.4986 147.681C64.0784 149.079 64.8374 150.384 65.7472 151.568C66.0319 151.939 65.9623 152.47 65.5919 152.755C65.2214 153.039 64.6903 152.97 64.4056 152.599C63.4067 151.299 62.5729 149.866 61.9357 148.329C61.7567 147.898 61.9615 147.403 62.3931 147.224ZM242.098 154.9C242.383 155.271 242.314 155.802 241.943 156.086C240.643 157.085 239.209 157.919 237.673 158.556C237.241 158.735 236.746 158.53 236.567 158.099C236.388 157.667 236.593 157.172 237.025 156.993C238.423 156.414 239.728 155.655 240.912 154.745C241.283 154.46 241.814 154.53 242.098 154.9ZM67.7375 154.9C68.0222 154.53 68.5533 154.46 68.9237 154.745C70.1077 155.655 71.413 156.414 72.811 156.993C73.2426 157.172 73.4474 157.667 73.2685 158.099C73.0895 158.531 72.5945 158.735 72.1629 158.556C70.6265 157.919 69.1926 157.085 67.8928 156.086C67.5223 155.802 67.4528 155.271 67.7375 154.9ZM76.1994 158.882C76.2598 158.419 76.6844 158.092 77.1477 158.153C77.883 158.249 78.6332 158.298 79.3954 158.298H81.6167C82.0839 158.298 82.4627 158.677 82.4627 159.144C82.4627 159.612 82.0839 159.99 81.6167 159.99H79.3954C78.5598 159.99 77.7365 159.936 76.9288 159.831C76.4655 159.77 76.1389 159.346 76.1994 158.882ZM233.636 158.882C233.697 159.346 233.37 159.77 232.907 159.831C232.099 159.936 231.276 159.99 230.44 159.99H228.219C227.752 159.99 227.373 159.612 227.373 159.144C227.373 158.677 227.752 158.298 228.219 158.298H230.44C231.203 158.298 231.953 158.249 232.688 158.153C233.151 158.092 233.576 158.419 233.636 158.882ZM85.2132 159.144C85.2132 158.677 85.592 158.298 86.0592 158.298H90.5017C90.9689 158.298 91.3477 158.677 91.3477 159.144C91.3477 159.612 90.9689 159.99 90.5017 159.99H86.0592C85.592 159.99 85.2132 159.612 85.2132 159.144ZM94.0982 159.144C94.0982 158.677 94.477 158.298 94.9442 158.298H99.3867C99.8539 158.298 100.233 158.677 100.233 159.144C100.233 159.612 99.8539 159.99 99.3867 159.99H94.9442C94.477 159.99 94.0982 159.612 94.0982 159.144ZM102.983 159.144C102.983 158.677 103.362 158.298 103.829 158.298H108.272C108.739 158.298 109.118 158.677 109.118 159.144C109.118 159.612 108.739 159.99 108.272 159.99H103.829C103.362 159.99 102.983 159.612 102.983 159.144ZM111.868 159.144C111.868 158.677 112.247 158.298 112.714 158.298H117.157C117.624 158.298 118.003 158.677 118.003 159.144C118.003 159.612 117.624 159.99 117.157 159.99H112.714C112.247 159.99 111.868 159.612 111.868 159.144ZM120.753 159.144C120.753 158.677 121.132 158.298 121.599 158.298H126.042C126.509 158.298 126.888 158.677 126.888 159.144C126.888 159.612 126.509 159.99 126.042 159.99H121.599C121.132 159.99 120.753 159.612 120.753 159.144ZM129.638 159.144C129.638 158.677 130.017 158.298 130.484 158.298H134.927C135.394 158.298 135.773 158.677 135.773 159.144C135.773 159.612 135.394 159.99 134.927 159.99H130.484C130.017 159.99 129.638 159.612 129.638 159.144ZM138.523 159.144C138.523 158.677 138.902 158.298 139.369 158.298H143.812C144.279 158.298 144.658 158.677 144.658 159.144C144.658 159.612 144.279 159.99 143.812 159.99H139.369C138.902 159.99 138.523 159.612 138.523 159.144ZM147.408 159.144C147.408 158.677 147.787 158.298 148.254 158.298H152.697C153.164 158.298 153.543 158.677 153.543 159.144C153.543 159.612 153.164 159.99 152.697 159.99H148.254C147.787 159.99 147.408 159.612 147.408 159.144ZM156.293 159.144C156.293 158.677 156.672 158.298 157.139 158.298H161.582C162.049 158.298 162.428 158.677 162.428 159.144C162.428 159.612 162.049 159.99 161.582 159.99H157.139C156.672 159.99 156.293 159.612 156.293 159.144ZM165.178 159.144C165.178 158.677 165.557 158.298 166.024 158.298H170.467C170.934 158.298 171.313 158.677 171.313 159.144C171.313 159.612 170.934 159.99 170.467 159.99H166.024C165.557 159.99 165.178 159.612 165.178 159.144ZM174.063 159.144C174.063 158.677 174.442 158.298 174.909 158.298H179.352C179.819 158.298 180.198 158.677 180.198 159.144C180.198 159.612 179.819 159.99 179.352 159.99H174.909C174.442 159.99 174.063 159.612 174.063 159.144ZM182.948 159.144C182.948 158.677 183.327 158.298 183.794 158.298H188.237C188.704 158.298 189.083 158.677 189.083 159.144C189.083 159.612 188.704 159.99 188.237 159.99H183.794C183.327 159.99 182.948 159.612 182.948 159.144ZM191.833 159.144C191.833 158.677 192.212 158.298 192.679 158.298H197.122C197.589 158.298 197.968 158.677 197.968 159.144C197.968 159.612 197.589 159.99 197.122 159.99H192.679C192.212 159.99 191.833 159.612 191.833 159.144ZM200.718 159.144C200.718 158.677 201.097 158.298 201.564 158.298H206.007C206.474 158.298 206.853 158.677 206.853 159.144C206.853 159.612 206.474 159.99 206.007 159.99H201.564C201.097 159.99 200.718 159.612 200.718 159.144ZM209.603 159.144C209.603 158.677 209.982 158.298 210.449 158.298H214.892C215.359 158.298 215.738 158.677 215.738 159.144C215.738 159.612 215.359 159.99 214.892 159.99H210.449C209.982 159.99 209.603 159.612 209.603 159.144ZM218.488 159.144C218.488 158.677 218.867 158.298 219.334 158.298H223.777C224.244 158.298 224.623 158.677 224.623 159.144C224.623 159.612 224.244 159.99 223.777 159.99H219.334C218.867 159.99 218.488 159.612 218.488 159.144Z" fill="white"/>
<path d="M247.675 36.3382L244.147 42.0139C243.724 42.6939 244.126 43.5706 244.855 43.7058C244.984 43.7296 245.114 43.701 245.237 43.6568L248.487 42.4852L251.737 43.6568C251.859 43.701 251.99 43.7296 252.118 43.7058C252.837 43.5722 253.241 42.7169 252.841 42.0368L249.498 36.361C249.085 35.6601 248.104 35.6477 247.675 36.3382Z" fill="white"/>
<path d="M61.3471 33.0079C62.9046 33.0079 64.1671 34.2705 64.1671 35.8279C64.1671 37.3853 62.9046 38.6479 61.3471 38.6479C59.7897 38.6479 58.5272 37.3853 58.5272 35.8279C58.5272 34.2705 59.7897 33.0079 61.3471 33.0079Z" fill="white" stroke="white" stroke-width="3.38395"/>
</g>
<g clip-path="url(#clip0_48_317)">
<g filter="url(#filter0_b_48_317)">
<rect width="88.0309" height="17.6062" transform="translate(1 372.737)" fill="#97A4D2" fill-opacity="0.26"/>
<path d="M14.2045 381.541C14.2045 382.756 13.2192 383.741 12.0038 383.741C10.7883 383.741 9.80298 382.756 9.80298 381.541C9.80298 380.325 10.7883 379.34 12.0038 379.34C13.2192 379.34 14.2045 380.325 14.2045 381.541Z" fill="#D3D3D3"/>
<path d="M21.9072 381.541C21.9072 382.756 20.9218 383.741 19.7064 383.741C18.4909 383.741 17.5056 382.756 17.5056 381.541C17.5056 380.325 18.4909 379.34 19.7064 379.34C20.9218 379.34 21.9072 380.325 21.9072 381.541Z" fill="#D3D3D3"/>
<path d="M29.61 381.541C29.61 382.756 28.6247 383.741 27.4093 383.741C26.1938 383.741 25.2085 382.756 25.2085 381.541C25.2085 380.325 26.1938 379.34 27.4093 379.34C28.6247 379.34 29.61 380.325 29.61 381.541Z" fill="#D3D3D3"/>
</g>
<path fill-rule="evenodd" clip-rule="evenodd" d="M1 391.169C1 390.713 1.36269 390.344 1.8101 390.344H88.2208C88.6682 390.344 89.0309 390.713 89.0309 391.169C89.0309 391.625 88.6682 391.994 88.2208 391.994H1.8101C1.36269 391.994 1 391.625 1 391.169Z" fill="#D3D3D3"/>
<rect width="88.0309" height="42.3678" transform="translate(1 391.994)" fill="#4EA4FA"/>
</g>
<rect x="1" y="372.737" width="88.0309" height="60.5212" rx="8.80309" stroke="#D3D3D3" stroke-width="1.65058"/>
<path fill-rule="evenodd" clip-rule="evenodd" d="M160.326 276.204C151.058 276.204 143.545 283.717 143.545 292.985V389.793C143.545 399.973 135.293 408.225 125.114 408.225H91.1976C90.7418 408.225 90.3723 407.855 90.3723 407.4C90.3723 406.944 90.7418 406.574 91.1976 406.574H125.114C134.382 406.574 141.895 399.061 141.895 389.793V292.985C141.895 282.806 150.147 274.554 160.326 274.554H194.243C194.698 274.554 195.068 274.923 195.068 275.379C195.068 275.835 194.698 276.204 194.243 276.204H160.326Z" fill="#D3D3D3"/>
<path d="M194.829 274.586L189.292 271.144C188.629 270.732 187.774 271.124 187.642 271.836C187.619 271.961 187.647 272.088 187.69 272.208L188.833 275.378L187.69 278.548C187.647 278.668 187.619 278.796 187.642 278.921C187.772 279.622 188.607 280.016 189.27 279.625L194.807 276.365C195.491 275.962 195.503 275.005 194.829 274.586Z" fill="#D3D3D3"/>
<path d="M86.2806 407.398C86.2806 405.879 87.5122 404.647 89.0316 404.647C90.5509 404.647 91.7825 405.879 91.7825 407.398C91.7825 408.918 90.5509 410.149 89.0316 410.149C87.5122 410.149 86.2806 408.918 86.2806 407.398Z" fill="#D3D3D3" stroke="#D3D3D3" stroke-width="3.30116"/>
<g filter="url(#filter1_b_48_317)">
<rect x="489.571" y="160.938" width="81.4286" height="39.6139" rx="19.807" fill="#111523"/>
<path d="M514.017 180.74C514.017 181.594 513.86 182.329 513.548 182.944C513.235 183.556 512.807 184.027 512.262 184.358C511.72 184.686 511.104 184.851 510.414 184.851C509.721 184.851 509.102 184.686 508.558 184.358C508.016 184.027 507.589 183.555 507.276 182.94C506.963 182.325 506.807 181.592 506.807 180.74C506.807 179.885 506.963 179.152 507.276 178.54C507.589 177.925 508.016 177.453 508.558 177.125C509.102 176.794 509.721 176.629 510.414 176.629C511.104 176.629 511.72 176.794 512.262 177.125C512.807 177.453 513.235 177.925 513.548 178.54C513.86 179.152 514.017 179.885 514.017 180.74ZM512.821 180.74C512.821 180.088 512.715 179.54 512.504 179.095C512.296 178.647 512.009 178.308 511.645 178.079C511.283 177.847 510.872 177.731 510.414 177.731C509.953 177.731 509.541 177.847 509.179 178.079C508.817 178.308 508.53 178.647 508.319 179.095C508.111 179.54 508.007 180.088 508.007 180.74C508.007 181.391 508.111 181.941 508.319 182.389C508.53 182.834 508.817 183.173 509.179 183.405C509.541 183.634 509.953 183.749 510.414 183.749C510.872 183.749 511.283 183.634 511.645 183.405C512.009 183.173 512.296 182.834 512.504 182.389C512.715 181.941 512.821 181.391 512.821 180.74Z" fill="#D3D3D3"/>
<path d="M519.23 182.252V178.739H520.403V184.741H519.254V183.702H519.191C519.053 184.022 518.832 184.289 518.527 184.503C518.225 184.714 517.848 184.819 517.398 184.819C517.012 184.819 516.671 184.735 516.374 184.565C516.08 184.393 515.848 184.139 515.678 183.803C515.512 183.467 515.428 183.052 515.428 182.557V178.739H516.597V182.416C516.597 182.825 516.71 183.151 516.937 183.393C517.163 183.635 517.458 183.756 517.82 183.756C518.039 183.756 518.256 183.702 518.472 183.592C518.691 183.483 518.872 183.317 519.016 183.096C519.161 182.875 519.233 182.593 519.23 182.252Z" fill="#D3D3D3"/>
<path d="M524.774 178.739V179.677H521.496V178.739H524.774ZM522.375 177.301H523.543V182.979C523.543 183.205 523.577 183.376 523.645 183.491C523.713 183.603 523.8 183.68 523.907 183.721C524.016 183.76 524.135 183.78 524.262 183.78C524.356 183.78 524.438 183.773 524.509 183.76C524.579 183.747 524.634 183.737 524.673 183.729L524.884 184.694C524.816 184.72 524.72 184.746 524.595 184.772C524.47 184.801 524.313 184.817 524.126 184.819C523.818 184.824 523.532 184.77 523.266 184.655C523 184.541 522.785 184.363 522.621 184.124C522.457 183.884 522.375 183.583 522.375 183.221V177.301Z" fill="#D3D3D3"/>
<path d="M528.531 184.862C527.95 184.862 527.449 184.731 527.03 184.468C526.613 184.202 526.293 183.836 526.069 183.37C525.845 182.903 525.733 182.369 525.733 181.767C525.733 181.158 525.847 180.62 526.077 180.154C526.306 179.685 526.629 179.319 527.046 179.056C527.462 178.792 527.954 178.661 528.519 178.661C528.975 178.661 529.381 178.746 529.738 178.915C530.095 179.082 530.383 179.316 530.602 179.618C530.823 179.92 530.955 180.273 530.996 180.677H529.859C529.797 180.396 529.653 180.154 529.429 179.95C529.208 179.747 528.911 179.646 528.538 179.646C528.213 179.646 527.927 179.732 527.683 179.903C527.44 180.073 527.251 180.315 527.116 180.63C526.981 180.943 526.913 181.313 526.913 181.74C526.913 182.178 526.979 182.555 527.112 182.873C527.245 183.191 527.433 183.437 527.675 183.612C527.92 183.786 528.208 183.874 528.538 183.874C528.76 183.874 528.96 183.833 529.14 183.752C529.323 183.669 529.475 183.551 529.597 183.397C529.722 183.243 529.81 183.058 529.859 182.842H530.996C530.955 183.23 530.828 183.577 530.617 183.881C530.406 184.186 530.124 184.426 529.769 184.6C529.418 184.775 529.005 184.862 528.531 184.862Z" fill="#D3D3D3"/>
<path d="M534.774 184.862C534.211 184.862 533.72 184.733 533.301 184.475C532.881 184.218 532.556 183.857 532.324 183.393C532.092 182.929 531.976 182.387 531.976 181.767C531.976 181.145 532.092 180.6 532.324 180.134C532.556 179.668 532.881 179.306 533.301 179.048C533.72 178.79 534.211 178.661 534.774 178.661C535.337 178.661 535.828 178.79 536.247 179.048C536.667 179.306 536.992 179.668 537.224 180.134C537.456 180.6 537.572 181.145 537.572 181.767C537.572 182.387 537.456 182.929 537.224 183.393C536.992 183.857 536.667 184.218 536.247 184.475C535.828 184.733 535.337 184.862 534.774 184.862ZM534.778 183.881C535.143 183.881 535.445 183.785 535.684 183.592C535.924 183.4 536.101 183.143 536.216 182.822C536.333 182.502 536.392 182.149 536.392 181.764C536.392 181.381 536.333 181.029 536.216 180.708C536.101 180.385 535.924 180.126 535.684 179.931C535.445 179.735 535.143 179.638 534.778 179.638C534.411 179.638 534.106 179.735 533.863 179.931C533.624 180.126 533.445 180.385 533.328 180.708C533.214 181.029 533.156 181.381 533.156 181.764C533.156 182.149 533.214 182.502 533.328 182.822C533.445 183.143 533.624 183.4 533.863 183.592C534.106 183.785 534.411 183.881 534.778 183.881Z" fill="#D3D3D3"/>
<path d="M538.876 184.741V178.739H539.997V179.716H540.072C540.197 179.385 540.401 179.127 540.685 178.942C540.969 178.755 541.309 178.661 541.705 178.661C542.106 178.661 542.442 178.755 542.713 178.942C542.987 179.13 543.189 179.388 543.319 179.716H543.381C543.525 179.396 543.753 179.14 544.065 178.95C544.378 178.757 544.75 178.661 545.183 178.661C545.727 178.661 546.172 178.832 546.515 179.173C546.862 179.514 547.035 180.029 547.035 180.716V184.741H545.867V180.826C545.867 180.419 545.756 180.125 545.535 179.943C545.313 179.76 545.049 179.669 544.741 179.669C544.361 179.669 544.065 179.786 543.854 180.021C543.643 180.253 543.538 180.551 543.538 180.916V184.741H542.373V180.751C542.373 180.426 542.272 180.164 542.069 179.966C541.865 179.768 541.601 179.669 541.275 179.669C541.054 179.669 540.849 179.728 540.662 179.845C540.477 179.96 540.327 180.12 540.212 180.326C540.1 180.531 540.044 180.77 540.044 181.041V184.741H538.876Z" fill="#D3D3D3"/>
<path d="M551.188 184.862C550.597 184.862 550.087 184.736 549.66 184.483C549.235 184.228 548.907 183.87 548.675 183.409C548.446 182.945 548.331 182.402 548.331 181.779C548.331 181.164 548.446 180.622 548.675 180.154C548.907 179.685 549.23 179.319 549.644 179.056C550.061 178.792 550.548 178.661 551.106 178.661C551.445 178.661 551.773 178.717 552.091 178.829C552.408 178.941 552.694 179.117 552.946 179.356C553.199 179.596 553.398 179.907 553.544 180.29C553.69 180.671 553.763 181.133 553.763 181.678V182.092H548.992V181.216H552.618C552.618 180.909 552.556 180.637 552.431 180.4C552.306 180.16 552.13 179.971 551.903 179.833C551.679 179.695 551.416 179.626 551.114 179.626C550.785 179.626 550.499 179.707 550.254 179.868C550.012 180.027 549.824 180.236 549.691 180.494C549.561 180.749 549.496 181.026 549.496 181.326V182.01C549.496 182.411 549.566 182.752 549.707 183.033C549.85 183.315 550.05 183.53 550.305 183.678C550.56 183.824 550.858 183.897 551.2 183.897C551.421 183.897 551.623 183.866 551.805 183.803C551.988 183.738 552.145 183.642 552.278 183.514C552.411 183.386 552.513 183.229 552.583 183.041L553.689 183.241C553.6 183.566 553.441 183.851 553.212 184.096C552.985 184.339 552.7 184.528 552.356 184.663C552.015 184.796 551.626 184.862 551.188 184.862Z" fill="#D3D3D3"/>
<rect x="489.571" y="160.938" width="81.4286" height="39.6139" rx="19.807" stroke="#D3D3D3" stroke-width="1.65058" stroke-linecap="round" stroke-linejoin="round"/>
</g>
<g filter="url(#filter2_b_48_317)">
<rect x="489.571" y="348.004" width="81.4286" height="39.6139" rx="19.807" fill="#111523"/>
<path d="M514.017 367.805C514.017 368.66 513.86 369.394 513.548 370.009C513.235 370.621 512.807 371.093 512.262 371.424C511.72 371.752 511.104 371.916 510.414 371.916C509.721 371.916 509.102 371.752 508.558 371.424C508.016 371.093 507.589 370.62 507.276 370.005C506.963 369.39 506.807 368.657 506.807 367.805C506.807 366.951 506.963 366.217 507.276 365.605C507.589 364.99 508.016 364.519 508.558 364.191C509.102 363.86 509.721 363.694 510.414 363.694C511.104 363.694 511.72 363.86 512.262 364.191C512.807 364.519 513.235 364.99 513.548 365.605C513.86 366.217 514.017 366.951 514.017 367.805ZM512.821 367.805C512.821 367.154 512.715 366.606 512.504 366.16C512.296 365.712 512.009 365.373 511.645 365.144C511.283 364.912 510.872 364.796 510.414 364.796C509.953 364.796 509.541 364.912 509.179 365.144C508.817 365.373 508.53 365.712 508.319 366.16C508.111 366.606 508.007 367.154 508.007 367.805C508.007 368.456 508.111 369.006 508.319 369.454C508.53 369.9 508.817 370.238 509.179 370.47C509.541 370.699 509.953 370.814 510.414 370.814C510.872 370.814 511.283 370.699 511.645 370.47C512.009 370.238 512.296 369.9 512.504 369.454C512.715 369.006 512.821 368.456 512.821 367.805Z" fill="#D3D3D3"/>
<path d="M519.23 369.317V365.804H520.403V371.807H519.254V370.767H519.191C519.053 371.088 518.832 371.355 518.527 371.568C518.225 371.779 517.848 371.885 517.398 371.885C517.012 371.885 516.671 371.8 516.374 371.631C516.08 371.459 515.848 371.205 515.678 370.869C515.512 370.533 515.428 370.117 515.428 369.622V365.804H516.597V369.482C516.597 369.891 516.71 370.216 516.937 370.458C517.163 370.701 517.458 370.822 517.82 370.822C518.039 370.822 518.256 370.767 518.472 370.658C518.691 370.548 518.872 370.383 519.016 370.161C519.161 369.94 519.233 369.659 519.23 369.317Z" fill="#D3D3D3"/>
<path d="M524.774 365.804V366.742H521.496V365.804H524.774ZM522.375 364.366H523.543V370.044C523.543 370.271 523.577 370.441 523.645 370.556C523.713 370.668 523.8 370.745 523.907 370.787C524.016 370.826 524.135 370.845 524.262 370.845C524.356 370.845 524.438 370.839 524.509 370.826C524.579 370.813 524.634 370.802 524.673 370.794L524.884 371.76C524.816 371.786 524.72 371.812 524.595 371.838C524.47 371.866 524.313 371.882 524.126 371.885C523.818 371.89 523.532 371.835 523.266 371.721C523 371.606 522.785 371.429 522.621 371.189C522.457 370.949 522.375 370.649 522.375 370.286V364.366Z" fill="#D3D3D3"/>
<path d="M528.531 371.928C527.95 371.928 527.449 371.796 527.03 371.533C526.613 371.267 526.293 370.901 526.069 370.435C525.845 369.969 525.733 369.435 525.733 368.833C525.733 368.223 525.847 367.685 526.077 367.219C526.306 366.75 526.629 366.384 527.046 366.121C527.462 365.858 527.954 365.726 528.519 365.726C528.975 365.726 529.381 365.811 529.738 365.98C530.095 366.147 530.383 366.381 530.602 366.684C530.823 366.986 530.955 367.339 530.996 367.743H529.859C529.797 367.461 529.653 367.219 529.429 367.016C529.208 366.813 528.911 366.711 528.538 366.711C528.213 366.711 527.927 366.797 527.683 366.969C527.44 367.138 527.251 367.381 527.116 367.696C526.981 368.008 526.913 368.378 526.913 368.806C526.913 369.243 526.979 369.621 527.112 369.939C527.245 370.257 527.433 370.503 527.675 370.677C527.92 370.852 528.208 370.939 528.538 370.939C528.76 370.939 528.96 370.899 529.14 370.818C529.323 370.735 529.475 370.616 529.597 370.462C529.722 370.309 529.81 370.124 529.859 369.907H530.996C530.955 370.296 530.828 370.642 530.617 370.947C530.406 371.252 530.124 371.491 529.769 371.666C529.418 371.84 529.005 371.928 528.531 371.928Z" fill="#D3D3D3"/>
<path d="M534.774 371.928C534.211 371.928 533.72 371.799 533.301 371.541C532.881 371.283 532.556 370.922 532.324 370.458C532.092 369.995 531.976 369.453 531.976 368.833C531.976 368.21 532.092 367.666 532.324 367.199C532.556 366.733 532.881 366.371 533.301 366.113C533.72 365.855 534.211 365.726 534.774 365.726C535.337 365.726 535.828 365.855 536.247 366.113C536.667 366.371 536.992 366.733 537.224 367.199C537.456 367.666 537.572 368.21 537.572 368.833C537.572 369.453 537.456 369.995 537.224 370.458C536.992 370.922 536.667 371.283 536.247 371.541C535.828 371.799 535.337 371.928 534.774 371.928ZM534.778 370.947C535.143 370.947 535.445 370.85 535.684 370.658C535.924 370.465 536.101 370.208 536.216 369.888C536.333 369.567 536.392 369.215 536.392 368.829C536.392 368.446 536.333 368.094 536.216 367.774C536.101 367.451 535.924 367.192 535.684 366.996C535.445 366.801 535.143 366.703 534.778 366.703C534.411 366.703 534.106 366.801 533.863 366.996C533.624 367.192 533.445 367.451 533.328 367.774C533.214 368.094 533.156 368.446 533.156 368.829C533.156 369.215 533.214 369.567 533.328 369.888C533.445 370.208 533.624 370.465 533.863 370.658C534.106 370.85 534.411 370.947 534.778 370.947Z" fill="#D3D3D3"/>
<path d="M538.876 371.807V365.804H539.997V366.781H540.072C540.197 366.451 540.401 366.193 540.685 366.008C540.969 365.82 541.309 365.726 541.705 365.726C542.106 365.726 542.442 365.82 542.713 366.008C542.987 366.195 543.189 366.453 543.319 366.781H543.381C543.525 366.461 543.753 366.206 544.065 366.015C544.378 365.823 544.75 365.726 545.183 365.726C545.727 365.726 546.172 365.897 546.515 366.238C546.862 366.579 547.035 367.094 547.035 367.782V371.807H545.867V367.891C545.867 367.485 545.756 367.19 545.535 367.008C545.313 366.826 545.049 366.734 544.741 366.734C544.361 366.734 544.065 366.852 543.854 367.086C543.643 367.318 543.538 367.616 543.538 367.981V371.807H542.373V367.817C542.373 367.491 542.272 367.229 542.069 367.031C541.865 366.833 541.601 366.734 541.275 366.734C541.054 366.734 540.849 366.793 540.662 366.91C540.477 367.025 540.327 367.185 540.212 367.391C540.1 367.597 540.044 367.835 540.044 368.106V371.807H538.876Z" fill="#D3D3D3"/>
<path d="M551.188 371.928C550.597 371.928 550.087 371.801 549.66 371.549C549.235 371.293 548.907 370.935 548.675 370.474C548.446 370.01 548.331 369.467 548.331 368.845C548.331 368.23 548.446 367.688 548.675 367.219C548.907 366.75 549.23 366.384 549.644 366.121C550.061 365.858 550.548 365.726 551.106 365.726C551.445 365.726 551.773 365.782 552.091 365.894C552.408 366.006 552.694 366.182 552.946 366.422C553.199 366.662 553.398 366.973 553.544 367.356C553.69 367.736 553.763 368.199 553.763 368.743V369.157H548.992V368.282H552.618C552.618 367.974 552.556 367.702 552.431 367.465C552.306 367.226 552.13 367.037 551.903 366.899C551.679 366.761 551.416 366.691 551.114 366.691C550.785 366.691 550.499 366.772 550.254 366.934C550.012 367.093 549.824 367.301 549.691 367.559C549.561 367.814 549.496 368.092 549.496 368.391V369.075C549.496 369.476 549.566 369.818 549.707 370.099C549.85 370.38 550.05 370.595 550.305 370.744C550.56 370.89 550.858 370.963 551.2 370.963C551.421 370.963 551.623 370.931 551.805 370.869C551.988 370.804 552.145 370.707 552.278 370.58C552.411 370.452 552.513 370.294 552.583 370.107L553.689 370.306C553.6 370.632 553.441 370.917 553.212 371.162C552.985 371.404 552.7 371.593 552.356 371.728C552.015 371.861 551.626 371.928 551.188 371.928Z" fill="#D3D3D3"/>
<rect x="489.571" y="348.004" width="81.4286" height="39.6139" rx="19.807" stroke="#D3D3D3" stroke-width="1.65058" stroke-linecap="round" stroke-linejoin="round"/>
</g>
<g clip-path="url(#clip1_48_317)">
<rect x="196.869" y="249.521" width="88.0309" height="51.7181" rx="8.80309" fill="#4EA4FA"/>
<path fill-rule="evenodd" clip-rule="evenodd" d="M271.411 257.935C271.626 257.72 271.974 257.72 272.189 257.935L274.001 259.746L275.812 257.935C276.027 257.72 276.376 257.72 276.591 257.935C276.805 258.149 276.805 258.498 276.591 258.713L274.779 260.524L276.591 262.336C276.805 262.551 276.805 262.899 276.591 263.114C276.376 263.329 276.027 263.329 275.812 263.114L274.001 261.302L272.189 263.114C271.974 263.329 271.626 263.329 271.411 263.114C271.196 262.899 271.196 262.551 271.411 262.336L273.223 260.524L271.411 258.713C271.196 258.498 271.196 258.149 271.411 257.935Z" fill="#4EA4FA"/>
</g>
<rect x="196.869" y="249.521" width="88.0309" height="51.7181" rx="8.80309" stroke="#4EA4FA" stroke-width="1.65058"/>
<g filter="url(#filter3_b_48_317)">
<rect x="101.686" y="323.246" width="81.4286" height="26.4093" rx="13.2046" fill="#111523"/>
<rect x="106.088" y="327.647" width="17.6062" height="17.6062" rx="8.80309" fill="#4EA4FA"/>
<path d="M115.441 332.599V332.929C116.696 333.184 117.642 334.294 117.642 335.625V335.948C117.642 336.758 117.939 337.537 118.476 338.142L118.603 338.285C118.747 338.448 118.783 338.679 118.694 338.876C118.604 339.074 118.408 339.201 118.192 339.201H111.589C111.373 339.201 111.176 339.074 111.088 338.876C110.999 338.679 111.034 338.448 111.178 338.285L111.306 338.142C111.843 337.537 112.14 336.758 112.14 335.948V335.625C112.14 334.294 113.07 333.184 114.34 332.929V332.599C114.34 332.295 114.586 332.049 114.891 332.049C115.195 332.049 115.441 332.295 115.441 332.599ZM114.891 340.852C114.598 340.852 114.318 340.737 114.112 340.53C113.905 340.324 113.79 340.028 113.79 339.752H115.991C115.991 340.028 115.876 340.324 115.67 340.53C115.463 340.737 115.167 340.852 114.891 340.852Z" fill="#4EA4FA"/>
<rect x="101.686" y="323.246" width="81.4286" height="26.4093" rx="13.2046" stroke="#D3D3D3" stroke-width="1.65058"/>
</g>
<path fill-rule="evenodd" clip-rule="evenodd" d="M452.564 199.912C452.564 189.733 460.817 181.48 470.996 181.48H487.271C487.727 181.48 488.096 181.85 488.096 182.306C488.096 182.762 487.727 183.131 487.271 183.131H470.996C461.728 183.131 454.215 190.644 454.215 199.912V351.85C454.215 361.118 461.728 368.631 470.996 368.631H487.271C487.727 368.631 488.096 369 488.096 369.456C488.096 369.912 487.727 370.281 487.271 370.281H470.996C460.817 370.281 452.564 362.029 452.564 351.85V199.912Z" fill="#D3D3D3"/>
<path fill-rule="evenodd" clip-rule="evenodd" d="M286.123 275.88C286.123 275.424 286.493 275.055 286.949 275.055L453.389 275.055C453.844 275.055 454.214 275.424 454.214 275.88C454.214 276.336 453.844 276.705 453.389 276.705L286.949 276.705C286.493 276.705 286.123 276.336 286.123 275.88Z" fill="#D3D3D3"/>
<path d="M488.104 181.513L482.567 178.071C481.903 177.659 481.048 178.051 480.916 178.762C480.893 178.887 480.921 179.015 480.964 179.135L482.107 182.305L480.964 185.475C480.921 185.595 480.893 185.722 480.916 185.848C481.047 186.549 481.881 186.943 482.544 186.552L488.081 183.291C488.765 182.889 488.777 181.932 488.104 181.513Z" fill="#D3D3D3"/>
<path d="M488.104 368.663L482.567 365.222C481.903 364.809 481.048 365.201 480.916 365.913C480.893 366.038 480.921 366.165 480.964 366.285L482.107 369.455L480.964 372.626C480.921 372.745 480.893 372.873 480.916 372.998C481.047 373.7 481.881 374.093 482.544 373.702L488.081 370.442C488.765 370.039 488.777 369.082 488.104 368.663Z" fill="#D3D3D3"/>
<path d="M282.016 275.881C282.016 274.361 283.248 273.13 284.767 273.13C286.287 273.13 287.518 274.361 287.518 275.881C287.518 277.4 286.287 278.632 284.767 278.632C283.248 278.632 282.016 277.4 282.016 275.881Z" fill="#D3D3D3" stroke="#D3D3D3" stroke-width="3.30116"/>
<g filter="url(#filter4_b_48_317)">
<path d="M369.414 236.787C371.993 234.209 376.173 234.209 378.751 236.787L413.277 271.313C415.856 273.891 415.856 278.072 413.277 280.65L378.751 315.176C376.173 317.754 371.993 317.754 369.414 315.176L334.889 280.65C332.31 278.072 332.31 273.891 334.889 271.313L369.414 236.787Z" fill="#111523"/>
<path fill-rule="evenodd" clip-rule="evenodd" d="M368.831 236.204C371.732 233.303 376.434 233.303 379.335 236.204L413.861 270.73C416.762 273.63 416.762 278.333 413.861 281.234L379.335 315.76C376.434 318.66 371.732 318.66 368.831 315.76L334.305 281.234C331.404 278.333 331.404 273.63 334.305 270.73L368.831 236.204ZM378.168 237.371C375.912 235.115 372.254 235.115 369.998 237.371L335.472 271.897C333.216 274.153 333.216 277.811 335.472 280.067L369.998 314.592C372.254 316.849 375.912 316.849 378.168 314.592L412.694 280.067C414.95 277.811 414.95 274.153 412.694 271.897L378.168 237.371Z" fill="#D3D3D3"/>
</g>
<rect x="431.251" y="208.851" width="63.8224" height="26.4093" rx="13.2046" fill="#4EA4FA"/>
<rect x="431.251" y="208.851" width="63.8224" height="26.4093" rx="13.2046" stroke="#4EA4FA" stroke-width="1.65058" stroke-linecap="round" stroke-linejoin="round"/>
<rect x="431.251" y="316.504" width="63.8224" height="26.4093" rx="13.2046" fill="#4EA4FA"/>
<rect x="431.251" y="316.504" width="63.8224" height="26.4093" rx="13.2046" stroke="#4EA4FA" stroke-width="1.65058" stroke-linecap="round" stroke-linejoin="round"/>
<path fill-rule="evenodd" clip-rule="evenodd" d="M242.331 302.158C241.819 302.158 241.404 302.573 241.404 303.085L241.404 393.929C241.404 405.363 250.673 414.632 262.107 414.632L310.734 414.632C311.246 414.632 311.661 414.217 311.661 413.705C311.661 413.193 311.246 412.778 310.734 412.778L262.107 412.778C251.697 412.778 243.258 404.339 243.258 393.929L243.258 303.085C243.258 302.573 242.843 302.158 242.331 302.158Z" fill="#D3D3D3"/>
<path d="M312.136 414.596L305.917 418.462C305.172 418.925 304.211 418.485 304.063 417.686C304.037 417.545 304.068 417.402 304.116 417.267L305.4 413.706L304.116 410.145C304.068 410.011 304.037 409.867 304.063 409.727C304.209 408.939 305.146 408.497 305.892 408.936L312.111 412.598C312.879 413.05 312.893 414.126 312.136 414.596Z" fill="#D3D3D3"/>
<path d="M242.332 298.181C240.625 298.181 239.242 299.564 239.242 301.271C239.242 302.977 240.625 304.361 242.332 304.361C244.039 304.361 245.422 302.977 245.422 301.271C245.422 299.564 244.039 298.181 242.332 298.181Z" fill="#D3D3D3" stroke="#D3D3D3" stroke-width="3.70806"/>
<path fill-rule="evenodd" clip-rule="evenodd" d="M378.62 5.82715C378.108 5.82715 377.693 6.24219 377.693 6.75416L377.693 9.2793C377.693 9.79128 378.108 10.2063 378.62 10.2063C379.132 10.2063 379.547 9.79128 379.547 9.2793L379.547 6.75416C379.547 6.24219 379.132 5.82715 378.62 5.82715ZM378.62 13.4026C378.108 13.4026 377.693 13.8176 377.693 14.3296L377.693 19.3799C377.693 19.8918 378.108 20.3069 378.62 20.3069C379.132 20.3069 379.547 19.8918 379.547 19.3799L379.547 14.3296C379.547 13.8176 379.132 13.4026 378.62 13.4026ZM378.62 23.5031C378.108 23.5031 377.693 23.9182 377.693 24.4301L377.693 29.4804C377.693 29.9924 378.108 30.4074 378.62 30.4074C379.132 30.4074 379.547 29.9924 379.547 29.4804L379.547 24.4301C379.547 23.9182 379.132 23.5031 378.62 23.5031ZM378.62 33.6037C378.108 33.6037 377.693 34.0187 377.693 34.5307L377.693 39.581C377.693 40.0929 378.108 40.508 378.62 40.508C379.132 40.508 379.547 40.0929 379.547 39.581L379.547 34.5307C379.547 34.0187 379.132 33.6037 378.62 33.6037ZM378.62 43.7042C378.108 43.7042 377.693 44.1193 377.693 44.6312L377.693 49.6815C377.693 50.1935 378.108 50.6085 378.62 50.6085C379.132 50.6085 379.547 50.1935 379.547 49.6815L379.547 44.6312C379.547 44.1193 379.132 43.7042 378.62 43.7042ZM378.62 53.8048C378.108 53.8048 377.693 54.2198 377.693 54.7318L377.693 59.7821C377.693 60.294 378.108 60.7091 378.62 60.7091C379.132 60.7091 379.547 60.294 379.547 59.7821L379.547 54.7318C379.547 54.2198 379.132 53.8048 378.62 53.8048ZM378.62 63.9053C378.108 63.9053 377.693 64.3204 377.693 64.8323L377.693 69.8826C377.693 70.3946 378.108 70.8096 378.62 70.8096C379.132 70.8096 379.547 70.3946 379.547 69.8826L379.547 64.8323C379.547 64.3204 379.132 63.9053 378.62 63.9053ZM378.62 74.0059C378.108 74.0059 377.693 74.4209 377.693 74.9329L377.693 79.9832C377.693 80.4952 378.108 80.9102 378.62 80.9102C379.132 80.9102 379.547 80.4952 379.547 79.9832L379.547 74.9329C379.547 74.4209 379.132 74.0059 378.62 74.0059ZM378.62 84.1064C378.108 84.1064 377.693 84.5215 377.693 85.0335L377.693 90.0837C377.693 90.5957 378.108 91.0107 378.62 91.0107C379.132 91.0107 379.547 90.5957 379.547 90.0837L379.547 85.0335C379.547 84.5215 379.132 84.1064 378.62 84.1064ZM378.62 94.207C378.108 94.207 377.693 94.622 377.693 95.134L377.693 97.6591C377.693 98.5748 377.753 99.477 377.868 100.362C377.935 100.87 378.4 101.228 378.907 101.161C379.415 101.095 379.773 100.63 379.707 100.122C379.602 99.3165 379.547 98.4944 379.547 97.6591L379.547 95.134C379.547 94.622 379.132 94.207 378.62 94.207ZM379.766 104.373C379.293 104.569 379.069 105.111 379.265 105.584C379.963 107.268 380.877 108.839 381.971 110.264C382.283 110.669 382.865 110.746 383.271 110.434C383.677 110.122 383.753 109.54 383.441 109.134C382.444 107.836 381.613 106.406 380.977 104.874C380.781 104.401 380.239 104.177 379.766 104.373ZM385.622 112.785C385.31 113.191 385.386 113.773 385.792 114.085C387.217 115.179 388.788 116.093 390.471 116.791C390.944 116.987 391.487 116.763 391.683 116.29C391.879 115.817 391.655 115.275 391.182 115.079C389.65 114.443 388.219 113.612 386.922 112.615C386.516 112.303 385.934 112.379 385.622 112.785ZM394.895 117.148C394.828 117.656 395.186 118.121 395.694 118.188C396.579 118.303 397.481 118.363 398.397 118.363L400.755 118.363C401.267 118.363 401.682 117.947 401.682 117.435C401.682 116.924 401.267 116.508 400.755 116.508L398.397 116.508C397.561 116.508 396.739 116.454 395.934 116.349C395.426 116.283 394.961 116.641 394.895 117.148ZM404.544 117.435C404.544 117.947 404.959 118.363 405.471 118.363L410.188 118.363C410.699 118.363 411.115 117.947 411.115 117.435C411.115 116.924 410.699 116.508 410.188 116.508L405.471 116.508C404.959 116.508 404.544 116.924 404.544 117.435ZM413.977 117.435C413.977 117.947 414.392 118.363 414.904 118.363L419.62 118.363C420.132 118.363 420.547 117.947 420.547 117.435C420.547 116.924 420.132 116.508 419.62 116.508L414.904 116.508C414.392 116.508 413.977 116.924 413.977 117.435ZM423.409 117.435C423.409 117.947 423.825 118.363 424.336 118.363L429.053 118.363C429.565 118.363 429.98 117.947 429.98 117.435C429.98 116.924 429.565 116.508 429.053 116.508L424.336 116.508C423.825 116.508 423.409 116.924 423.409 117.435ZM432.842 117.435C432.842 117.947 433.257 118.363 433.769 118.363L438.485 118.363C438.997 118.363 439.412 117.947 439.412 117.435C439.412 116.924 438.997 116.508 438.485 116.508L433.769 116.508C433.257 116.508 432.842 116.924 432.842 117.435ZM442.275 117.435C442.275 117.947 442.69 118.363 443.202 118.363L447.918 118.363C448.43 118.363 448.845 117.947 448.845 117.435C448.845 116.924 448.43 116.508 447.918 116.508L443.202 116.508C442.69 116.508 442.275 116.924 442.275 117.435ZM451.707 117.435C451.707 117.947 452.122 118.363 452.634 118.363L457.351 118.363C457.863 118.363 458.278 117.947 458.278 117.435C458.278 116.924 457.863 116.508 457.351 116.508L452.634 116.508C452.122 116.508 451.707 116.924 451.707 117.435ZM461.14 117.435C461.14 117.947 461.555 118.363 462.067 118.363L466.783 118.363C467.295 118.363 467.71 117.947 467.71 117.435C467.71 116.924 467.295 116.508 466.783 116.508L462.067 116.508C461.555 116.508 461.14 116.924 461.14 117.435ZM470.573 117.435C470.573 117.947 470.988 118.363 471.5 118.363L476.216 118.363C476.728 118.363 477.143 117.947 477.143 117.435C477.143 116.924 476.728 116.508 476.216 116.508L471.5 116.508C470.988 116.508 470.573 116.924 470.573 117.435ZM480.005 117.435C480.005 117.947 480.42 118.363 480.932 118.363L485.649 118.363C486.161 118.363 486.576 117.947 486.576 117.435C486.576 116.924 486.161 116.508 485.649 116.508L480.932 116.508C480.42 116.508 480.005 116.924 480.005 117.435ZM489.438 117.435C489.438 117.947 489.853 118.363 490.365 118.363L492.723 118.363C493.235 118.363 493.65 117.947 493.65 117.435C493.65 116.924 493.235 116.508 492.723 116.508L490.365 116.508C489.853 116.508 489.438 116.924 489.438 117.435Z" fill="#D3D3D3"/>
<path d="M494.208 118.324L487.988 122.19C487.243 122.654 486.282 122.213 486.134 121.414C486.108 121.274 486.14 121.13 486.188 120.996L487.472 117.435L486.188 113.874C486.14 113.739 486.108 113.596 486.134 113.455C486.281 112.667 487.218 112.225 487.963 112.664L494.183 116.327C494.951 116.779 494.964 117.854 494.208 118.324Z" fill="#D3D3D3"/>
<path d="M378.705 1.90922C376.999 1.90922 375.615 3.29268 375.615 4.99927C375.615 6.70586 376.999 8.08933 378.705 8.08933C380.412 8.08933 381.795 6.70586 381.795 4.99927C381.795 3.29268 380.412 1.90922 378.705 1.90922Z" fill="#D3D3D3" stroke="#D3D3D3" stroke-width="3.70806"/>
<g filter="url(#filter5_b_48_317)">
<rect x="313.783" y="391.632" width="122.228" height="44.188" rx="9.16801" fill="#111523"/>
<rect x="313.783" y="391.632" width="122.228" height="44.188" rx="9.16801" stroke="#D3D3D3" stroke-width="1.719" stroke-linecap="round" stroke-linejoin="round"/>
</g>
<path fill-rule="evenodd" clip-rule="evenodd" d="M374.143 389.621C373.669 389.621 373.285 389.237 373.285 388.762L373.285 386.594C373.285 386.12 373.669 385.735 374.143 385.735C374.617 385.735 375.002 386.12 375.002 386.594L375.002 388.762C375.002 389.237 374.617 389.621 374.143 389.621ZM374.143 383.115C373.669 383.115 373.285 382.731 373.285 382.256L373.285 377.919C373.285 377.445 373.669 377.06 374.143 377.06C374.617 377.06 375.002 377.445 375.002 377.919L375.002 382.256C375.002 382.731 374.617 383.115 374.143 383.115ZM374.143 374.44C373.669 374.44 373.285 374.056 373.285 373.582L373.285 369.244C373.285 368.77 373.669 368.386 374.143 368.386C374.617 368.386 375.002 368.77 375.002 369.244L375.002 373.582C375.002 374.056 374.617 374.44 374.143 374.44ZM374.143 365.765C373.669 365.765 373.285 365.381 373.285 364.907L373.285 360.569C373.285 360.095 373.669 359.711 374.143 359.711C374.617 359.711 375.002 360.095 375.002 360.569L375.002 364.907C375.002 365.381 374.617 365.765 374.143 365.765ZM374.143 357.091C373.669 357.091 373.285 356.706 373.285 356.232L373.285 351.895C373.285 351.42 373.669 351.036 374.143 351.036C374.617 351.036 375.002 351.42 375.002 351.895L375.002 356.232C375.002 356.706 374.617 357.091 374.143 357.091ZM374.143 348.416C373.669 348.416 373.285 348.031 373.285 347.557L373.285 343.22C373.285 342.746 373.669 342.361 374.143 342.361C374.617 342.361 375.002 342.746 375.002 343.22L375.002 347.557C375.002 348.031 374.617 348.416 374.143 348.416ZM374.143 339.741C373.669 339.741 373.285 339.357 373.285 338.882L373.285 334.545C373.285 334.071 373.669 333.686 374.143 333.686C374.617 333.686 375.002 334.071 375.002 334.545L375.002 338.882C375.002 339.357 374.617 339.741 374.143 339.741ZM374.143 331.066C373.669 331.066 373.285 330.682 373.285 330.208L373.285 325.87C373.285 325.396 373.669 325.012 374.143 325.012C374.617 325.012 375.002 325.396 375.002 325.87L375.002 330.208C375.002 330.682 374.617 331.066 374.143 331.066ZM374.143 322.391C373.669 322.391 373.285 322.007 373.285 321.533L373.285 319.364C373.285 318.89 373.669 318.505 374.143 318.505C374.617 318.505 375.002 318.89 375.002 319.364L375.002 321.533C375.002 322.007 374.617 322.391 374.143 322.391Z" fill="#D3D3D3"/>
<path d="M373.319 317.021L369.738 322.781C369.309 323.472 369.717 324.361 370.457 324.498C370.587 324.523 370.72 324.494 370.844 324.449L374.143 323.26L377.441 324.449C377.566 324.494 377.698 324.523 377.828 324.498C378.558 324.363 378.968 323.495 378.562 322.805L375.169 317.044C374.75 316.333 373.754 316.32 373.319 317.021Z" fill="#D3D3D3"/>
<path d="M374.144 394.443C372.563 394.443 371.282 393.162 371.282 391.581C371.282 390.001 372.563 388.719 374.144 388.719C375.725 388.719 377.006 390.001 377.006 391.581C377.006 393.162 375.725 394.443 374.144 394.443Z" fill="#D3D3D3" stroke="#D3D3D3" stroke-width="3.43447"/>
<g filter="url(#filter6_b_48_317)">
<rect x="122.985" y="116.249" width="156.591" height="92.9105" rx="8.35151" fill="#67D1FF" fill-opacity="0.31"/>
<path d="M177.437 135.04C177.437 131.581 180.241 128.776 183.7 128.776H218.86C222.319 128.776 225.123 131.581 225.123 135.04C225.123 138.499 222.319 141.304 218.86 141.304H183.7C180.241 141.304 177.437 138.499 177.437 135.04Z" fill="#D3D3D3"/>
<path d="M152.484 150.699C152.484 148.97 153.887 147.567 155.616 147.567H246.944C248.673 147.567 250.076 148.97 250.076 150.699C250.076 152.429 248.673 153.831 246.944 153.831H155.616C153.887 153.831 152.484 152.429 152.484 150.699Z" fill="#D5D5D5"/>
<path d="M170.783 162.183C170.783 160.453 172.185 159.051 173.915 159.051H228.645C230.375 159.051 231.777 160.453 231.777 162.183C231.777 163.912 230.375 165.314 228.645 165.314H173.915C172.185 165.314 170.783 163.912 170.783 162.183Z" fill="#D5D5D5"/>
<rect x="131.336" y="179.93" width="67.856" height="20.8788" rx="6.26363" fill="#D5D5D5"/>
<rect x="203.368" y="179.93" width="67.856" height="20.8788" rx="6.26363" fill="#4EA4FA"/>
</g>
<path fill-rule="evenodd" clip-rule="evenodd" d="M240.212 133.229C240.212 132.87 240.503 132.579 240.862 132.579L317.31 132.579C317.669 132.579 317.96 132.87 317.96 133.229C317.96 133.587 317.669 133.878 317.31 133.878L240.862 133.878C240.503 133.878 240.212 133.587 240.212 133.229Z" fill="#D3D3D3"/>
<path d="M238.697 133.228C238.697 132.033 239.667 131.063 240.862 131.063C242.058 131.063 243.027 132.033 243.027 133.228C243.027 134.424 242.058 135.393 240.862 135.393C239.667 135.393 238.697 134.424 238.697 133.228Z" fill="#D3D3D3" stroke="#D3D3D3" stroke-width="2.59809"/>
<rect x="300.596" y="122.836" width="20.7847" height="20.7847" rx="10.3924" fill="#4EA4FA"/>
<g filter="url(#filter7_b_48_317)">
<rect x="320.563" y="174.035" width="123.808" height="47.5045" rx="6.19039" fill="#67D1FF" fill-opacity="0.31"/>
<rect x="310.482" y="186.416" width="18.5712" height="18.5712" rx="9.28559" fill="#09BA8F"/>
<path fill-rule="evenodd" clip-rule="evenodd" d="M324.347 192.59C324.654 192.909 324.644 193.416 324.325 193.722L318.773 199.059L315.21 195.634C314.892 195.327 314.882 194.821 315.188 194.502C315.494 194.183 316.001 194.173 316.32 194.48L318.773 196.838L323.216 192.568C323.534 192.262 324.041 192.272 324.347 192.59Z" fill="#09BA8F"/>
<path fill-rule="evenodd" clip-rule="evenodd" d="M324.01 192.833C324.294 193.127 324.285 193.594 323.989 193.877L318.847 198.797L315.546 195.639C315.251 195.357 315.241 194.889 315.525 194.595C315.809 194.302 316.279 194.292 316.574 194.575L318.847 196.749L322.962 192.812C323.257 192.53 323.726 192.539 324.01 192.833Z" fill="#D3D3D3"/>
<path d="M339.134 191.56C339.134 188.719 341.437 186.416 344.278 186.416H373.156C375.997 186.416 378.3 188.719 378.3 191.56C378.3 194.402 375.997 196.705 373.156 196.705H344.278C341.437 196.705 339.134 194.402 339.134 191.56Z" fill="#D3D3D3"/>
<path d="M339.134 206.027C339.134 204.298 340.536 202.896 342.266 202.896H416.974C418.703 202.896 420.106 204.298 420.106 206.027C420.106 207.757 418.703 209.159 416.974 209.159H342.266C340.536 209.159 339.134 207.757 339.134 206.027Z" fill="#D5D5D5"/>
</g>
<g filter="url(#filter8_b_48_317)">
<rect x="196.702" y="432.712" width="99.7409" height="47.5045" rx="6.19039" fill="#67D1FF" fill-opacity="0.31"/>
<rect x="186.621" y="445.093" width="18.5712" height="18.5712" rx="6.19039" fill="#4EA4FA"/>
<path d="M200.25 453.068L197.466 452.663L196.222 450.14C196.188 450.071 196.132 450.015 196.063 449.981C195.889 449.896 195.679 449.967 195.592 450.14L194.348 452.663L191.564 453.068C191.488 453.079 191.417 453.115 191.364 453.17C191.299 453.236 191.263 453.326 191.264 453.419C191.265 453.513 191.304 453.601 191.37 453.666L193.384 455.63L192.908 458.403C192.897 458.467 192.904 458.533 192.929 458.594C192.954 458.655 192.995 458.707 193.048 458.746C193.101 458.784 193.163 458.807 193.229 458.812C193.294 458.816 193.359 458.803 193.417 458.772L195.907 457.463L198.397 458.772C198.465 458.808 198.544 458.82 198.619 458.807C198.81 458.774 198.938 458.593 198.905 458.403L198.43 455.63L200.444 453.666C200.498 453.613 200.535 453.542 200.546 453.466C200.575 453.274 200.441 453.096 200.25 453.068Z" fill="#D3D3D3"/>
<path d="M215.273 450.237C215.273 447.396 217.577 445.093 220.418 445.093H249.295C252.136 445.093 254.439 447.396 254.439 450.237C254.439 453.078 252.136 455.382 249.295 455.382H220.418C217.577 455.382 215.273 453.078 215.273 450.237Z" fill="#D3D3D3"/>
<path d="M215.273 464.704C215.273 462.974 216.676 461.572 218.405 461.572H271.729C273.459 461.572 274.861 462.974 274.861 464.704C274.861 466.434 273.459 467.836 271.729 467.836H218.405C216.676 467.836 215.273 466.434 215.273 464.704Z" fill="#D5D5D5"/>
</g>
<g filter="url(#filter9_d_48_317)">
<rect x="409.158" y="413.89" width="37.9031" height="37.9031" rx="12.6344" transform="rotate(7.6446 409.158 413.89)" fill="#4EA4FA"/>
<path d="M422.362 426.148C419.502 425.764 416.858 427.748 416.475 430.604C416.331 431.674 416.313 433.444 417.225 435.665C418.134 437.881 419.944 440.487 423.364 443.279L423.368 443.282C423.63 443.495 423.946 443.631 424.281 443.676C424.616 443.721 424.956 443.673 425.266 443.537L425.27 443.535C429.305 441.744 431.738 439.707 433.2 437.809C434.665 435.907 435.114 434.196 435.258 433.125C435.641 430.269 433.614 427.658 430.754 427.274C429.248 427.072 427.865 427.707 426.95 428.279C426.705 428.432 426.482 428.588 426.286 428.734C426.137 428.542 425.963 428.333 425.767 428.12C425.035 427.327 423.868 426.35 422.362 426.148Z" fill="#D3D3D3"/>
</g>
<g filter="url(#filter10_d_48_317)">
<rect x="99.3311" y="90.8525" width="42.0725" height="42.0725" rx="12.6344" fill="#4EA4FA" shape-rendering="crispEdges"/>
<path fill-rule="evenodd" clip-rule="evenodd" d="M114.707 105.97C114.707 103.734 116.52 101.921 118.756 101.921C120.992 101.921 122.805 103.734 122.805 105.97C122.805 107.01 122.413 107.958 121.769 108.675V110.546C123.254 109.566 124.234 107.883 124.234 105.97C124.234 102.945 121.782 100.492 118.756 100.492C115.731 100.492 113.278 102.945 113.278 105.97C113.278 107.883 114.258 109.566 115.743 110.546V108.675C115.099 107.958 114.707 107.01 114.707 105.97Z" fill="#67D1FF" fill-opacity="0.31"/>
<path d="M127.478 112.634L120.758 111.886V106.298C120.758 105.804 120.562 105.33 120.213 104.981C119.864 104.632 119.39 104.436 118.896 104.436C118.403 104.436 117.929 104.632 117.58 104.981C117.231 105.33 117.035 105.804 117.035 106.298V117.474L114.214 116.345C113.979 116.251 113.726 116.206 113.473 116.212C113.219 116.219 112.97 116.278 112.74 116.385C112.509 116.492 112.304 116.644 112.135 116.834C111.966 117.023 111.837 117.245 111.757 117.486L111.652 117.802C111.593 117.98 111.588 118.172 111.64 118.352C111.691 118.532 111.795 118.692 111.939 118.812L116.776 122.846C116.943 122.985 117.154 123.061 117.372 123.061H127.273C127.766 123.061 128.24 122.865 128.589 122.516C128.938 122.167 129.134 121.693 129.134 121.199V114.484C129.134 114.026 128.965 113.584 128.66 113.242C128.354 112.901 127.934 112.684 127.478 112.634Z" fill="#4EA4FA"/>
</g>
<defs>
<filter id="filter0_b_48_317" x="-15.5058" y="356.232" width="121.042" height="50.618" filterUnits="userSpaceOnUse" color-interpolation-filters="sRGB">
<feFlood flood-opacity="0" result="BackgroundImageFix"/>
<feGaussianBlur in="BackgroundImageFix" stdDeviation="8.2529"/>
<feComposite in2="SourceAlpha" operator="in" result="effect1_backgroundBlur_48_317"/>
<feBlend mode="normal" in="SourceGraphic" in2="effect1_backgroundBlur_48_317" result="shape"/>
</filter>
<filter id="filter1_b_48_317" x="472.24" y="143.607" width="116.091" height="74.2762" filterUnits="userSpaceOnUse" color-interpolation-filters="sRGB">
<feFlood flood-opacity="0" result="BackgroundImageFix"/>
<feGaussianBlur in="BackgroundImageFix" stdDeviation="8.2529"/>
<feComposite in2="SourceAlpha" operator="in" result="effect1_backgroundBlur_48_317"/>
<feBlend mode="normal" in="SourceGraphic" in2="effect1_backgroundBlur_48_317" result="shape"/>
</filter>
<filter id="filter2_b_48_317" x="472.24" y="330.673" width="116.091" height="74.2762" filterUnits="userSpaceOnUse" color-interpolation-filters="sRGB">
<feFlood flood-opacity="0" result="BackgroundImageFix"/>
<feGaussianBlur in="BackgroundImageFix" stdDeviation="8.2529"/>
<feComposite in2="SourceAlpha" operator="in" result="effect1_backgroundBlur_48_317"/>
<feBlend mode="normal" in="SourceGraphic" in2="effect1_backgroundBlur_48_317" result="shape"/>
</filter>
<filter id="filter3_b_48_317" x="84.3553" y="305.915" width="116.091" height="61.0712" filterUnits="userSpaceOnUse" color-interpolation-filters="sRGB">
<feFlood flood-opacity="0" result="BackgroundImageFix"/>
<feGaussianBlur in="BackgroundImageFix" stdDeviation="8.2529"/>
<feComposite in2="SourceAlpha" operator="in" result="effect1_backgroundBlur_48_317"/>
<feBlend mode="normal" in="SourceGraphic" in2="effect1_backgroundBlur_48_317" result="shape"/>
</filter>
<filter id="filter4_b_48_317" x="299.187" y="201.085" width="149.689" height="149.689" filterUnits="userSpaceOnUse" color-interpolation-filters="sRGB">
<feFlood flood-opacity="0" result="BackgroundImageFix"/>
<feGaussianBlur in="BackgroundImageFix" stdDeviation="15.4145"/>
<feComposite in2="SourceAlpha" operator="in" result="effect1_backgroundBlur_48_317"/>
<feBlend mode="normal" in="SourceGraphic" in2="effect1_backgroundBlur_48_317" result="shape"/>
</filter>
<filter id="filter5_b_48_317" x="295.733" y="373.582" width="158.327" height="80.2873" filterUnits="userSpaceOnUse" color-interpolation-filters="sRGB">
<feFlood flood-opacity="0" result="BackgroundImageFix"/>
<feGaussianBlur in="BackgroundImageFix" stdDeviation="8.59501"/>
<feComposite in2="SourceAlpha" operator="in" result="effect1_backgroundBlur_48_317"/>
<feBlend mode="normal" in="SourceGraphic" in2="effect1_backgroundBlur_48_317" result="shape"/>
</filter>
<filter id="filter6_b_48_317" x="112.466" y="105.731" width="177.627" height="113.946" filterUnits="userSpaceOnUse" color-interpolation-filters="sRGB">
<feFlood flood-opacity="0" result="BackgroundImageFix"/>
<feGaussianBlur in="BackgroundImageFix" stdDeviation="5.25906"/>
<feComposite in2="SourceAlpha" operator="in" result="effect1_backgroundBlur_48_317"/>
<feBlend mode="normal" in="SourceGraphic" in2="effect1_backgroundBlur_48_317" result="shape"/>
</filter>
<filter id="filter7_b_48_317" x="304.316" y="167.869" width="146.22" height="59.8365" filterUnits="userSpaceOnUse" color-interpolation-filters="sRGB">
<feFlood flood-opacity="0" result="BackgroundImageFix"/>
<feGaussianBlur in="BackgroundImageFix" stdDeviation="3.0829"/>
<feComposite in2="SourceAlpha" operator="in" result="effect1_backgroundBlur_48_317"/>
<feBlend mode="normal" in="SourceGraphic" in2="effect1_backgroundBlur_48_317" result="shape"/>
</filter>
<filter id="filter8_b_48_317" x="180.456" y="426.546" width="122.153" height="59.8365" filterUnits="userSpaceOnUse" color-interpolation-filters="sRGB">
<feFlood flood-opacity="0" result="BackgroundImageFix"/>
<feGaussianBlur in="BackgroundImageFix" stdDeviation="3.0829"/>
<feComposite in2="SourceAlpha" operator="in" result="effect1_backgroundBlur_48_317"/>
<feBlend mode="normal" in="SourceGraphic" in2="effect1_backgroundBlur_48_317" result="shape"/>
</filter>
<filter id="filter9_d_48_317" x="379.453" y="390.677" width="90.484" height="90.484" filterUnits="userSpaceOnUse" color-interpolation-filters="sRGB">
<feFlood flood-opacity="0" result="BackgroundImageFix"/>
<feColorMatrix in="SourceAlpha" type="matrix" values="0 0 0 0 0 0 0 0 0 0 0 0 0 0 0 0 0 0 127 0" result="hardAlpha"/>
<feOffset dx="-0.725388" dy="0.725388"/>
<feGaussianBlur stdDeviation="11.9689"/>
<feComposite in2="hardAlpha" operator="out"/>
<feColorMatrix type="matrix" values="0 0 0 0 0 0 0 0 0 0 0 0 0 0 0 0 0 0 0.15 0"/>
<feBlend mode="normal" in2="BackgroundImageFix" result="effect1_dropShadow_48_317"/>
<feBlend mode="normal" in="SourceGraphic" in2="effect1_dropShadow_48_317" result="shape"/>
</filter>
<filter id="filter10_d_48_317" x="74.6679" y="67.6401" width="89.9481" height="89.9479" filterUnits="userSpaceOnUse" color-interpolation-filters="sRGB">
<feFlood flood-opacity="0" result="BackgroundImageFix"/>
<feColorMatrix in="SourceAlpha" type="matrix" values="0 0 0 0 0 0 0 0 0 0 0 0 0 0 0 0 0 0 127 0" result="hardAlpha"/>
<feOffset dx="-0.725388" dy="0.725388"/>
<feGaussianBlur stdDeviation="11.9689"/>
<feComposite in2="hardAlpha" operator="out"/>
<feColorMatrix type="matrix" values="0 0 0 0 0 0 0 0 0 0 0 0 0 0 0 0 0 0 0.15 0"/>
<feBlend mode="normal" in2="BackgroundImageFix" result="effect1_dropShadow_48_317"/>
<feBlend mode="normal" in="SourceGraphic" in2="effect1_dropShadow_48_317" result="shape"/>
</filter>
<clipPath id="clip0_48_317">
<rect x="1" y="372.737" width="88.0309" height="60.5212" rx="8.80309" fill="white"/>
</clipPath>
<clipPath id="clip1_48_317">
<rect x="196.869" y="249.521" width="88.0309" height="51.7181" rx="8.80309" fill="white"/>
</clipPath>
</defs>
</svg>
