<svg width="28" height="29" viewBox="0 0 28 29" fill="none" xmlns="http://www.w3.org/2000/svg">
<g id="Tick Square">
<g id="Iconly/Bold/Tick Square">
<g id="Tick Square_2">
<path id="Vector" d="M19.0394 3.06055C22.9756 3.06055 25.6114 5.82405 25.6114 9.93448V19.4221C25.6114 23.5198 22.9756 26.2833 19.0394 26.2833H8.97232C5.03607 26.2833 2.38867 23.5198 2.38867 19.4221V9.93448C2.38867 5.82405 5.03607 3.06055 8.97232 3.06055H19.0394ZM18.8536 11.1885C18.4588 10.7937 17.8086 10.7937 17.4138 11.1885L12.6183 15.984L10.5863 13.952C10.1915 13.5572 9.54128 13.5572 9.14649 13.952C8.75171 14.3468 8.75171 14.9854 9.14649 15.3918L11.91 18.1437C12.1074 18.3411 12.3628 18.434 12.6183 18.434C12.8854 18.434 13.1408 18.3411 13.3382 18.1437L18.8536 12.6283C19.2484 12.2335 19.2484 11.5949 18.8536 11.1885Z" fill="white"/>
</g>
</g>
</g>
</svg>
