<svg width="28" height="29" viewBox="0 0 28 29" fill="none" xmlns="http://www.w3.org/2000/svg">
<g id="Tick Square">
<g id="Iconly/Bold/Tick Square">
<g id="Tick Square_2">
<path id="Vector" d="M18.973 2.99414C22.9092 2.99414 25.545 5.75765 25.545 9.86807V19.3557C25.545 23.4534 22.9092 26.2169 18.973 26.2169H8.90592C4.96966 26.2169 2.32227 23.4534 2.32227 19.3557V9.86807C2.32227 5.75765 4.96966 2.99414 8.90592 2.99414H18.973ZM18.7872 11.1221C18.3924 10.7273 17.7422 10.7273 17.3474 11.1221L12.5519 15.9176L10.5199 13.8856C10.1251 13.4908 9.47487 13.4908 9.08009 13.8856C8.6853 14.2804 8.6853 14.919 9.08009 15.3254L11.8436 18.0773C12.041 18.2747 12.2964 18.3676 12.5519 18.3676C12.8189 18.3676 13.0744 18.2747 13.2718 18.0773L18.7872 12.5619C19.182 12.1671 19.182 11.5285 18.7872 11.1221Z" fill="#8CCA66"/>
</g>
</g>
</g>
</svg>
